Roboto-BoldItalic.ufo
<glyph name="exclam" format="1">
  <advance width="540.29"/>
  <unicode hex="0021"/>
  <outline>
    <contour>
      <point x="576.2576421879869" y="1455.8992427602097" type="line"/>
      <point x="276.2315875530565" y="1455.9634271586685" type="line"/>
      <point x="133.41363836048822" y="448.05323618611732" type="line"/>
      <point x="369.15732155401906" y="448.0761385549859" type="line"/>
    </contour>
    <contour>
      <point x="39.755546998526498" y="131.10573660884663" type="curve" smooth="yes"/>
      <point x="41.681861435419968" y="42.373073240740453"/>
      <point x="112.73836223958341" y="-19.59648159101901"/>
      <point x="200.00088546914623" y="-17.761056427184648" type="curve" smooth="yes"/>
      <point x="289.12377555219274" y="-15.886501474175331"/>
      <point x="357.1044576308106" y="51.737980866546934"/>
      <point x="354.85990198514548" y="141.71091787830397" type="curve" smooth="yes"/>
      <point x="352.65659682803806" y="230.0303304537768"/>
      <point x="282.67531805025169" y="292.44492413314453"/>
      <point x="195.4821459064961" y="290.8224538505487" type="curve" smooth="yes"/>
      <point x="105.52825821500669" y="289.14861281466136"/>
      <point x="37.785471356150936" y="221.85419150104462"/>
    </contour>
  </outline>
</glyph>
<glyph name="quotedbl" format="1">
  <advance width="637.29"/>
  <unicode hex="0022"/>
  <outline>
    <contour>
      <point x="696.73917652472187" y="1382.9933962520579" type="line"/>
      <point x="721.05968651485216" y="1536.9328510905493" type="line"/>
      <point x="524.00080675199399" y="1536.9731279046857" type="line"/>
      <point x="437.59962720302906" y="987.03675058068268" type="line"/>
      <point x="598.31487566887074" y="987.09679334881048" type="line"/>
    </contour>
    <contour>
      <point x="381.48919332065623" y="1382.9933891367223" type="line"/>
      <point x="405.80969976382704" y="1536.932743499234" type="line"/>
      <point x="207.7808188280805" y="1536.9730991602453" type="line"/>
      <point x="121.37963714220901" y="987.03667382107028" type="line"/>
      <point x="283.06489291968313" y="987.09698238147951" type="line"/>
    </contour>
  </outline>
</glyph>
<glyph name="numbersign" format="1">
  <advance width="1184.37"/>
  <unicode hex="0023"/>
  <outline>
    <contour>
      <point x="468.94579141656163" y="0.0" type="line"/>
      <point x="654.77737564500296" y="0.0" type="line"/>
      <point x="796.3336595163596" y="409.79477405520362" type="line"/>
      <point x="1039.002240615034" y="410.08989809718889" type="line"/>
      <point x="1069.5186038046102" y="582.87011358273287" type="line"/>
      <point x="855.3927932238189" y="583.17938260286576" type="line"/>
      <point x="953.38601879899466" y="866.82476721451133" type="line"/>
      <point x="1191.9160497527321" y="867.07360687602147" type="line"/>
      <point x="1222.4141482670098" y="1039.8844498503231" type="line"/>
      <point x="1012.5087039716914" y="1040.1628157218886" type="line"/>
      <point x="1156.1017631973641" y="1455.8169588048925" type="line"/>
      <point x="970.2815077209284" y="1455.8472557329133" type="line"/>
      <point x="826.4934112640716" y="1040.1834693706592" type="line"/>
      <point x="646.89780250124352" y="1040.1557103308776" type="line"/>
      <point x="790.40464512573169" y="1455.816460665973" type="line"/>
      <point x="605.55496485600042" y="1455.8474481867406" type="line"/>
      <point x="461.92679736381069" y="1040.2102910515596" type="line"/>
      <point x="210.59136181263335" y="1039.9071546155428" type="line"/>
      <point x="180.04979905055563" y="867.11975933868564" type="line"/>
      <point x="402.692165367455" y="866.8052582473108" type="line"/>
      <point x="304.95857811544118" y="583.19977615320875" type="line"/>
      <point x="58.659826672592388" y="582.91904089275181" type="line"/>
      <point x="28.117161598527858" y="410.11161551380519" type="line"/>
      <point x="245.76726061848325" y="409.84354645362549" type="line"/>
      <point x="104.23081367149247" y="0.0" type="line"/>
      <point x="290.04011517693687" y="0.0" type="line"/>
      <point x="431.48001075171078" y="409.81962985828881" type="line"/>
      <point x="610.65612069039742" y="409.84624497785632" type="line"/>
    </contour>
    <contour>
      <point x="490.25180549527579" y="583.20115691519413" type="line"/>
      <point x="588.17646784016733" y="866.80658461878272" type="line"/>
      <point x="767.75809330342599" y="866.77613075398449" type="line"/>
      <point x="669.47541954429539" y="583.15755774974889" type="line"/>
    </contour>
  </outline>
</glyph>
<glyph name="dollar" format="1">
  <advance width="1139.75"/>
  <unicode hex="0024"/>
  <outline>
    <contour>
      <point x="1014.0641745060865" y="393.16550769229218" type="curve" smooth="yes"/>
      <point x="1029.0378525880931" y="641.50395238713406"/>
      <point x="853.91497968674025" y="757.70132854585142"/>
      <point x="651.86942457805105" y="853.09583168099539" type="curve" smooth="yes"/>
      <point x="557.93187091662799" y="897.44784057543404"/>
      <point x="480.00870143428199" y="949.03689220877459"/>
      <point x="495.80595886974174" y="1063.5916310402633" type="curve" smooth="yes"/>
      <point x="510.32283756017449" y="1168.8616283056163"/>
      <point x="583.48342989528226" y="1247.0795121875051"/>
      <point x="693.7275327894738" y="1245.1032838920453" type="curve" smooth="yes"/>
      <point x="824.36783832354445" y="1242.761434654343"/>
      <point x="839.49354793250109" y="1108.6018348260989"/>
      <point x="834.42506376346489" y="1005.7347126234728" type="curve"/>
      <point x="1116.6416592454043" y="1005.1704778957154" type="line"/>
      <point x="1122.9610295512259" y="1221.4934839923726"/>
      <point x="1039.1497337391711" y="1420.4210333236331"/>
      <point x="810.56917474463546" y="1467.9680626037521" type="curve"/>
      <point x="852.47158161186621" y="1687.7564080299426" type="line"/>
      <point x="696.2226111078287" y="1688.158212847999" type="line"/>
      <point x="655.231775164287" y="1473.1149856702564" type="line"/>
      <point x="422.07017367930536" y="1449.4116076880775"/>
      <point x="231.00095634366613" y="1309.6234340729018"/>
      <point x="215.77991582249592" y="1062.0458291585264" type="curve" smooth="yes"/>
      <point x="200.42520062338727" y="812.29394078726966"/>
      <point x="377.05682090117375" y="698.3638516613596"/>
      <point x="581.23421644410053" y="605.9063780907353" type="curve" smooth="yes"/>
      <point x="678.06423062972772" y="562.05892644896642"/>
      <point x="751.64715251451855" y="507.44312801986024"/>
      <point x="735.23079124668789" y="391.37947938180474" type="curve" smooth="yes"/>
      <point x="719.32077933325638" y="278.89571989203807"/>
      <point x="628.97746156177391" y="210.12541556610518"/>
      <point x="517.21444573196061" y="211.79324991482227" type="curve" smooth="yes"/>
      <point x="373.8358169816641" y="213.93288260213129"/>
      <point x="338.16777316504482" y="333.62788300747712"/>
      <point x="344.01498061737999" y="457.26307097091984" type="curve"/>
      <point x="62.193358295995992" y="457.82360838129136" type="line"/>
      <point x="54.827956837080301" y="215.47720064292497"/>
      <point x="166.98733842735254" y="22.92306087461629"/>
      <point x="417.73263645861766" y="-14.675159640603995" type="curve"/>
      <point x="378.9066985918779" y="-214.80142680313926" type="line"/>
      <point x="535.23626703499588" y="-215.2460609616839" type="line"/>
      <point x="573.50239598893882" y="-16.324985891181292" type="line"/>
      <point x="808.81931404265856" y="8.5143176777602463"/>
      <point x="998.9254397207261" y="142.08959764171865"/>
    </contour>
  </outline>
</glyph>
<glyph name="percent" format="1">
  <advance width="1466.6399999999999"/>
  <unicode hex="0025"/>
  <outline>
    <contour>
      <point x="181.42138343040381" y="1099.1588252398888" type="line" smooth="yes"/>
      <point x="171.99949425208294" y="925.17120322025107"/>
      <point x="289.32071803845565" y="803.33460712334465"/>
      <point x="462.92957459193326" y="799.7525425584397" type="curve" smooth="yes"/>
      <point x="646.32872598055178" y="795.9684752333925"/>
      <point x="779.31092012914996" y="918.18020737210009"/>
      <point x="796.44629243254121" y="1098.91696237519" type="curve" smooth="yes"/>
      <point x="802.66553587474493" y="1175.8743604115543" type="line" smooth="yes"/>
      <point x="812.79216746026441" y="1350.9899628174712"/>
      <point x="699.69450401231938" y="1474.2425226958801"/>
      <point x="523.56932479705665" y="1477.7721509802209" type="curve" smooth="yes"/>
      <point x="339.61301826060912" y="1481.4587185994956"/>
      <point x="204.06013879921616" y="1357.1320954605717"/>
      <point x="187.32608194617751" y="1175.5227964988983" type="curve" smooth="yes"/>
    </contour>
    <contour>
      <point x="1260.043337312308" y="1236.8117189652287" type="line"/>
      <point x="1122.5180938214651" y="1320.3514819061338" type="line"/>
      <point x="244.93603357153091" y="195.73940368914205" type="line"/>
      <point x="383.78228922887769" y="111.09489896006303" type="line"/>
    </contour>
    <contour>
      <point x="379.68842690040373" y="1175.9618144880806" type="line" smooth="yes"/>
      <point x="392.16689520423142" y="1249.0064100240434"/>
      <point x="443.84146298989793" y="1313.0918258926415"/>
      <point x="523.64123988853908" y="1310.865868352447" type="curve" smooth="yes"/>
      <point x="600.02134980797064" y="1308.7352999698815"/>
      <point x="622.58661138466266" y="1243.962416185313"/>
      <point x="615.95938098329304" y="1177.6043238638717" type="curve" smooth="yes"/>
      <point x="605.39399879926134" y="1099.0283778840244" type="line" smooth="yes"/>
      <point x="592.87977590311959" y="1026.770984060031"/>
      <point x="541.38767835271062" y="964.03317451745716"/>
      <point x="462.64727442635001" y="966.12361538714595" type="curve" smooth="yes"/>
      <point x="387.1846052974243" y="968.12703726227937"/>
      <point x="363.19977073264533" y="1030.4889004676386"/>
      <point x="369.38911247098008" y="1096.7686029016186" type="curve" smooth="yes"/>
    </contour>
    <contour>
      <point x="714.46997126703866" y="280.1724174227229" type="line" smooth="yes"/>
      <point x="705.66862775062918" y="105.62185660574508"/>
      <point x="822.58038153817699" y="-17.180381193008646"/>
      <point x="997.18701797448102" y="-20.793743798757209" type="curve" smooth="yes"/>
      <point x="1181.2034982091955" y="-24.601836561394823"/>
      <point x="1313.9121567767286" y="99.075528468139225"/>
      <point x="1330.8930117917339" y="280.06071134310508" type="curve" smooth="yes"/>
      <point x="1336.9667162461362" y="356.8527121357393" type="line" smooth="yes"/>
      <point x="1346.7256632218337" y="531.3229599124935"/>
      <point x="1232.0497676847383" y="653.63104970791699"/>
      <point x="1057.1368193765522" y="657.03616301233433" type="curve" smooth="yes"/>
      <point x="873.83568531678338" y="660.60457310626271"/>
      <point x="736.28185455771813" y="537.3020052016127"/>
      <point x="719.96506729083535" y="355.54824842218807" type="curve" smooth="yes"/>
    </contour>
    <contour>
      <point x="913.76405862911065" y="356.81860926806797" type="line" smooth="yes"/>
      <point x="925.54932239604989" y="430.19797597613115"/>
      <point x="978.22125784279649" y="493.39058083815962"/>
      <point x="1057.7605295114852" y="491.13172207060433" type="curve" smooth="yes"/>
      <point x="1133.3149544778978" y="488.98603011639744"/>
      <point x="1156.729563174149" y="424.51947575041015"/>
      <point x="1150.3471155428333" y="358.6485778505355" type="curve" smooth="yes"/>
      <point x="1140.0456841554453" y="280.07511398401948" type="line" smooth="yes"/>
      <point x="1128.0843023932093" y="204.04801724644454"/>
      <point x="1081.0230349435928" y="143.09468362079119"/>
      <point x="997.61139261966377" y="146.14284358421972" type="curve" smooth="yes"/>
      <point x="925.30060507207395" y="148.78533858114795"/>
      <point x="899.05669314016893" y="212.909671828802"/>
      <point x="904.23127516220586" y="276.63708454811484" type="curve" smooth="yes"/>
    </contour>
  </outline>
</glyph>
<glyph name="ampersand" format="1">
  <advance width="1303.68"/>
  <unicode hex="0026"/>
  <outline>
    <contour>
      <point x="880.08921710231323" y="0.0" type="line"/>
      <point x="1181.6138706862143" y="0.0" type="line"/>
      <point x="1014.9846904383122" y="248.20570201272105" type="line"/>
      <point x="1135.8100106605855" y="378.5377377908182"/>
      <point x="1194.1988079784937" y="538.88302053729046"/>
      <point x="1206.3611842146749" y="714.9973243764108" type="curve"/>
      <point x="968.41597296246266" y="714.55751020808577" type="line"/>
      <point x="956.14297282303221" y="618.4847109565369"/>
      <point x="921.81255841627217" y="535.52246627895465"/>
      <point x="866.78654220389319" y="456.14725476767563" type="curve"/>
      <point x="678.11433410565451" y="738.91091170914785" type="line"/>
      <point x="795.14312005402485" y="815.34344756946678" type="line" smooth="yes"/>
      <point x="910.2458211073756" y="892.29245199968307"/>
      <point x="1012.446317627781" y="999.04051402512448"/>
      <point x="1019.3731286187741" y="1144.729405705961" type="curve" smooth="yes"/>
      <point x="1028.5361177855075" y="1337.4509536045141"/>
      <point x="878.13424128777046" y="1473.13503580933"/>
      <point x="691.46226988102092" y="1477.360153554989" type="curve" smooth="yes"/>
      <point x="457.09731940369215" y="1482.6647501891809"/>
      <point x="281.30863725472329" y="1318.3173675663365"/>
      <point x="266.0093777616737" y="1085.5225424238058" type="curve" smooth="yes"/>
      <point x="258.63300905454162" y="973.28309291686992"/>
      <point x="305.85127044739727" y="873.57863383752169"/>
      <point x="351.80757298342894" y="774.44648411615253" type="curve"/>
      <point x="202.63513971549776" y="683.37009496070368"/>
      <point x="48.414010055565633" y="574.91301812567178"/>
      <point x="36.86299950486476" y="384.64196518041894" type="curve" smooth="yes"/>
      <point x="21.599784126125257" y="133.22257215885108"/>
      <point x="214.95093928442017" y="-15.671008088101759"/>
      <point x="452.38827121862619" y="-19.972770969120269" type="curve" smooth="yes"/>
      <point x="587.16241456508965" y="-22.414536981423414"/>
      <point x="710.56599066550507" y="15.527442383123528"/>
      <point x="825.20098002875204" y="84.917482425891691" type="curve"/>
    </contour>
    <contour>
      <point x="512.8235837001364" y="1091.0755342694351" type="curve" smooth="yes"/>
      <point x="525.33734661388849" y="1173.5970107857197"/>
      <point x="588.94208788129697" y="1246.7291105403187"/>
      <point x="677.01081898537541" y="1245.213019815699" type="curve" smooth="yes"/>
      <point x="743.21191285696273" y="1244.0733773668962"/>
      <point x="785.64043277371775" y="1193.8877304628691"/>
      <point x="777.54958117927902" y="1128.7064046057865" type="curve" smooth="yes"/>
      <point x="767.82618431279354" y="1050.3730064221195"/>
      <point x="708.77180634948877" y="999.93663691017014"/>
      <point x="645.86912033574242" y="960.04898665674204" type="curve" smooth="yes"/>
      <point x="562.79602543748297" y="909.68932954869263" type="line"/>
      <point x="533.38867348437566" y="965.33028088914887"/>
      <point x="502.97309786071719" y="1026.1169249786753"/>
    </contour>
    <contour>
      <point x="325.66328681755158" y="400.2176046182866" type="curve" smooth="yes"/>
      <point x="336.33871475957761" y="476.58330057897791"/>
      <point x="384.85777940506273" y="541.42692641190899"/>
      <point x="445.81832742303106" y="586.56802069742093" type="curve"/>
      <point x="470.30594921870284" y="602.31071793103638" type="line"/>
      <point x="685.79872073376794" y="274.30088929073344" type="line"/>
      <point x="620.45453438899369" y="241.18770300222826"/>
      <point x="551.03039615921114" y="211.68487824068023"/>
      <point x="476.20424775353001" y="213.44389197831021" type="curve" smooth="yes"/>
      <point x="368.83535646606629" y="215.96792079434383"/>
      <point x="311.17580966778405" y="296.58276381708112"/>
    </contour>
  </outline>
</glyph>
<glyph name="quotesingle" format="1">
  <advance width="322.03999999999996"/>
  <unicode hex="0027"/>
  <outline>
    <contour>
      <point x="388.66902541532335" y="1373.2338079740912" type="line"/>
      <point x="414.39737710635575" y="1535.9312885651509" type="line"/>
      <point x="207.62571636764437" y="1535.9657729017847" type="line"/>
      <point x="121.2575013499751" y="986.03578245772724" type="line"/>
      <point x="301.01522014490587" y="986.07681776267839" type="line"/>
    </contour>
  </outline>
</glyph>
<glyph name="parenleft" format="1">
  <advance width="697.43"/>
  <unicode hex="0028"/>
  <outline>
    <contour>
      <point x="116.42744577876211" y="564.39115637491886" type="line" smooth="yes"/>
      <point x="72.921115892142737" y="225.2722632492073"/>
      <point x="116.4212076042956" y="-266.54090287361544"/>
      <point x="454.6132849175475" y="-454.80503789611686" type="curve"/>
      <point x="518.02596364589522" y="-303.85164466487691" type="line"/>
      <point x="285.52897781440021" y="-114.36872613516502"/>
      <point x="319.66273122841994" y="306.3674312068045"/>
      <point x="355.07153186169239" y="565.75667936453124" type="curve" smooth="yes"/>
      <point x="358.83693014183262" y="592.43736636668984" type="line" smooth="yes"/>
      <point x="406.75095172180244" y="922.6776014648832"/>
      <point x="524.11243417833418" y="1249.824431306183"/>
      <point x="795.80470730756281" y="1459.0995162875677" type="curve"/>
      <point x="747.9448619621229" y="1619.8402873828452" type="line"/>
      <point x="361.59318965892004" y="1450.3485811902724"/>
      <point x="173.3905708391971" y="976.30784223483761"/>
      <point x="119.57389250279503" y="587.58320134297571" type="curve" smooth="yes"/>
    </contour>
  </outline>
</glyph>
<glyph name="parenright" format="1">
  <advance width="700.34"/>
  <unicode hex="0029"/>
  <outline>
    <contour>
      <point x="590.93254204885466" y="596.97022507500265" type="line" smooth="yes"/>
      <point x="634.39572837055334" y="937.98323662763937"/>
      <point x="576.86826483737423" y="1431.8244901957007"/>
      <point x="236.91338949724212" y="1616.8373544615529" type="curve"/>
      <point x="174.7209342837308" y="1463.1284364587091" type="line"/>
      <point x="405.48990219629582" y="1278.1871101004051"/>
      <point x="371.3347183322096" y="848.99887486316777"/>
      <point x="336.69294032253771" y="595.24516062782004" type="curve" smooth="yes"/>
      <point x="332.92204400524486" y="568.55495504835096" type="line" smooth="yes"/>
      <point x="284.98530973251917" y="238.48745565035506"/>
      <point x="166.97160775170414" y="-90.42961437634375"/>
      <point x="-104.29826565169486" y="-300.11104429081979" type="curve"/>
      <point x="-56.052620567016326" y="-457.90379638862254" type="line"/>
      <point x="332.05299285185629" y="-293.65562609802532"/>
      <point x="534.02277879935059" y="184.71097597552398"/>
      <point x="587.80922908898583" y="573.82898789769615" type="curve" smooth="yes"/>
    </contour>
  </outline>
</glyph>
<glyph name="asterisk" format="1">
  <advance width="901.13"/>
  <unicode hex="002A"/>
  <outline>
    <contour>
      <point x="135.34348911163232" y="704.24118750250625" type="line"/>
      <point x="284.3773406911302" y="584.33013000729204" type="line"/>
      <point x="506.81132277090626" y="862.23533018887531" type="line"/>
      <point x="633.20826813455642" y="569.84948770800952" type="line"/>
      <point x="793.08588423475715" y="673.71443244235115" type="line"/>
      <point x="632.64796046361289" y="944.50474865047386" type="line"/>
      <point x="961.20456675048604" y="1033.9895754292966" type="line"/>
      <point x="934.55781147997845" y="1227.3290777707539" type="line"/>
      <point x="627.03923181033076" y="1109.454327151743" type="line"/>
      <point x="706.80059311798504" y="1455.8806539357777" type="line"/>
      <point x="515.50602858362845" y="1455.9759521925675" type="line"/>
      <point x="472.35190526882513" y="1101.1982993331903" type="line"/>
      <point x="186.34134496663319" y="1229.0116052736682" type="line"/>
      <point x="100.49896513320489" y="1058.5495148207517" type="line"/>
      <point x="392.62505473081217" y="966.72776144961551" type="line"/>
    </contour>
  </outline>
</glyph>
<glyph name="plus" format="1">
  <advance width="1084.46"/>
  <unicode hex="002B"/>
  <outline>
    <contour>
      <point x="1016.6095177743102" y="555.07586771571516" type="line"/>
      <point x="1062.369193420629" y="815.90572244173461" type="line"/>
      <point x="711.72143749138684" y="816.0711811098688" type="line"/>
      <point x="779.75737897971521" y="1205.9241915631706" type="line"/>
      <point x="511.88493983355932" y="1205.9391035690178" type="line"/>
      <point x="443.84635670153637" y="816.09081355611727" type="line"/>
      <point x="92.218163134451785" y="815.92213868172257" type="line"/>
      <point x="46.459557857180343" y="555.09270784617524" type="line"/>
      <point x="399.03669748496247" y="554.92823818773957" type="line"/>
      <point x="327.73162188890535" y="146.07351787842808" type="line"/>
      <point x="595.60457264587319" y="146.05846845277111" type="line"/>
      <point x="666.91006915421463" y="554.90894344936885" type="line"/>
    </contour>
  </outline>
</glyph>
<glyph name="comma" format="1">
  <advance width="485.96999999999997"/>
  <unicode hex="002C"/>
  <outline>
    <contour>
      <point x="303.79462395982176" y="253" type="move" name="_bottom"/>
    </contour>
    <contour>
      <point x="58.335954748418104" y="45" type="move" name="_right"/>
    </contour>
    <contour>
      <point x="312.12211605272836" y="245.8489095532729" type="line"/>
      <point x="73.962051060736556" y="245.98259675098814" type="line"/>
      <point x="37.059744213496671" y="35.240289894532346" type="line" smooth="yes"/>
      <point x="14.026182373760992" y="-88.62400157297435"/>
      <point x="-54.183447317184935" y="-180.20142254689569"/>
      <point x="-116.8015079185413" y="-285.85723139434828" type="curve"/>
      <point x="30.57398686045623" y="-365.56632062518463" type="line"/>
      <point x="160.53671598162458" y="-262.48220707123971"/>
      <point x="254.99545580413997" y="-114.77430919023544"/>
      <point x="280.50858910144524" y="50.443144078163449" type="curve" smooth="yes"/>
    </contour>
  </outline>
</glyph>
<glyph name="hyphen" format="1">
  <advance width="771.15"/>
  <unicode hex="002D"/>
  <outline>
    <contour>
      <point x="678.85974228893031" y="740.90594817627618" type="line"/>
      <point x="131.63119706060945" y="740.92187011546559" type="line"/>
      <point x="90.499915811610876" y="507.09399265136943" type="line"/>
      <point x="637.72846103994834" y="507.07807071220827" type="line"/>
    </contour>
  </outline>
</glyph>
<glyph name="period" format="1">
  <advance width="578.12"/>
  <unicode hex="002E"/>
  <outline>
    <contour>
      <point x="43.621692695432316" y="137.59605247686017" type="curve" smooth="yes"/>
      <point x="46.416107259197176" y="48.162670255610493"/>
      <point x="116.18432918159967" y="-13.931724305607268"/>
      <point x="204.79896783725991" y="-12.21492685237555" type="curve" smooth="yes"/>
      <point x="295.28719318831384" y="-10.461831007412419"/>
      <point x="363.19897692352737" y="57.175798243292263"/>
      <point x="361.21463063601192" y="148.4024065476284" type="curve" smooth="yes"/>
      <point x="359.2554485255327" y="238.47213888922275"/>
      <point x="289.18752319350375" y="300.43887067877051"/>
      <point x="200.58140979994459" y="299.31476589356259" type="curve" smooth="yes"/>
      <point x="109.24888237122738" y="298.15607235430599"/>
      <point x="40.74920457434483" y="229.52812704818109"/>
    </contour>
  </outline>
</glyph>
<glyph name="slash" format="1">
  <advance width="743.02"/>
  <unicode hex="002F"/>
  <outline>
    <contour>
      <point x="871.55164598105307" y="1455.7384999944138" type="line"/>
      <point x="649.41969465314821" y="1455.7898612452248" type="line"/>
      <point x="-145.04192851051681" y="-124.73829595565536" type="line"/>
      <point x="77.089749637142731" y="-124.78946072357246" type="line"/>
    </contour>
  </outline>
</glyph>
<glyph name="zero" format="1">
  <advance width="1139.75"/>
  <unicode hex="0030"/>
  <outline>
    <contour>
      <point x="1088.9942874744904" y="856.33632027445753" type="line" smooth="yes"/>
      <point x="1125.8295846554267" y="1152.5530552312366"/>
      <point x="1048.1069208020865" y="1468.3379965888284"/>
      <point x="699.38625608717814" y="1476.3875397865384" type="curve" smooth="yes"/>
      <point x="334.47928939092151" y="1484.810712511241"/>
      <point x="180.13176191046679" y="1174.5211700306636"/>
      <point x="134.26227159872298" y="855.83285789436695" type="curve" smooth="yes"/>
      <point x="96.130312880403196" y="602.66602659409568" type="line" smooth="yes"/>
      <point x="59.277889870519843" y="305.88697306088636"/>
      <point x="136.36444995710281" y="-12.129395525348432"/>
      <point x="486.40344110945534" y="-20.255797484488916" type="curve" smooth="yes"/>
      <point x="853.88964956120356" y="-28.78724889362524"/>
      <point x="1002.3504368809977" y="286.14066241673174"/>
      <point x="1049.9144727465514" y="604.47067575172423" type="curve" smooth="yes"/>
    </contour>
    <contour>
      <point x="763.15282864407311" y="563.47965613962435" type="line" smooth="yes"/>
      <point x="742.38880218735358" y="415.38944253046384"/>
      <point x="691.59827145456723" y="201.76142183123903"/>
      <point x="501.4831367113735" y="211.54936513478444" type="curve" smooth="yes"/>
      <point x="329.42559659430856" y="220.40762594546729"/>
      <point x="358.05538976937515" y="444.40895072173475"/>
      <point x="372.7769895275693" y="563.00819247914615" type="curve" smooth="yes"/>
      <point x="422.2510312255838" y="896.50098599132582" type="line" smooth="yes"/>
      <point x="443.17905928746325" y="1045.0560173105089"/>
      <point x="495.25992937364663" y="1254.3367552451157"/>
      <point x="684.68751031671979" y="1244.6988473037322" type="curve" smooth="yes"/>
      <point x="855.59208357669729" y="1236.0033736264536"/>
      <point x="827.45346789233406" y="1015.7401180172599"/>
      <point x="812.69719057145983" y="897.50676888449209" type="curve" smooth="yes"/>
    </contour>
  </outline>
</glyph>
<glyph name="one" format="1">
  <advance width="1139.75"/>
  <unicode hex="0031"/>
  <outline>
    <contour>
      <point x="918.54944068074451" y="1458.5405729211552" type="line"/>
      <point x="881.69779504661483" y="1457.9926581887319" type="line"/>
      <point x="274.72133252483081" y="1248.038221142574" type="line"/>
      <point x="231.38815359290459" y="1002.334674899958" type="line"/>
      <point x="584.35105864636603" y="1108.8553398686051" type="line"/>
      <point x="391.71901527568406" y="0.0" type="line"/>
      <point x="674.13771833578039" y="0.0" type="line"/>
    </contour>
  </outline>
</glyph>
<glyph name="two" format="1">
  <advance width="1139.75"/>
  <unicode hex="0032"/>
  <outline>
    <contour>
      <point x="1008.3027310154274" y="232.92927410027193" type="line"/>
      <point x="406.50294764850656" y="235.36520935331862" type="line"/>
      <point x="704.80391317306601" y="503.45437620549575" type="line" smooth="yes"/>
      <point x="866.1775942789584" y="654.13113118108606"/>
      <point x="1072.084842784596" y="834.52139947726926"/>
      <point x="1090.9233289145636" y="1070.5059043088909" type="curve" smooth="yes"/>
      <point x="1111.871080639916" y="1332.9125958093991"/>
      <point x="923.81496853570331" y="1474.1914691277339"/>
      <point x="675.89480304514632" y="1477.5871804021886" type="curve" smooth="yes"/>
      <point x="393.79979676617978" y="1481.450977408751"/>
      <point x="154.55907080280977" y="1283.700559704218"/>
      <point x="138.52865909720646" y="997.01274549776144" type="curve"/>
      <point x="418.89963957336283" y="998.42001773713503" type="line"/>
      <point x="435.94732757451493" y="1128.0925123180982"/>
      <point x="513.95298993749975" y="1250.1901209971704"/>
      <point x="659.12754479741625" y="1246.7533858197826" type="curve" smooth="yes"/>
      <point x="775.91293457075744" y="1243.988710855728"/>
      <point x="814.84977050114901" y="1147.9453034134749"/>
      <point x="799.73565892609872" y="1043.7444306221316" type="curve" smooth="yes"/>
      <point x="780.11393650192554" y="908.4668397352508"/>
      <point x="650.06722545643504" y="789.96740766958987"/>
      <point x="557.89667539048344" y="700.71280188749279" type="curve" smooth="yes"/>
      <point x="35.214264745176862" y="209.91933074315068" type="line"/>
      <point x="2.3266354468140804" y="0.0" type="line"/>
      <point x="971.38952153397292" y="0.0" type="line"/>
    </contour>
  </outline>
</glyph>
<glyph name="three" format="1">
  <advance width="1139.75"/>
  <unicode hex="0033"/>
  <outline>
    <contour>
      <point x="552.30274533826787" y="629.06267924784061" type="line" smooth="yes"/>
      <point x="682.44714082424105" y="624.64481833597631"/>
      <point x="751.05319141724135" y="553.97198712357158"/>
      <point x="734.20202199321102" y="420.78800526834965" type="curve" smooth="yes"/>
      <point x="717.99968573898718" y="292.73210579958533"/>
      <point x="611.55129880917718" y="210.69456862142917"/>
      <point x="484.54002653582211" y="213.49691241203675" type="curve" smooth="yes"/>
      <point x="372.04508735352243" y="215.9789715919008"/>
      <point x="305.24648910480448" y="289.80032123018395"/>
      <point x="306.86873112328408" y="399.53314035563608" type="curve"/>
      <point x="26.175721535605433" y="400.1105523980213" type="line"/>
      <point x="23.352419260041454" y="139.53646142559938"/>
      <point x="212.97621365819245" y="-15.521410024475209"/>
      <point x="465.41165281276301" y="-20.070729736079898" type="curve" smooth="yes"/>
      <point x="733.80277743394856" y="-24.907598274618469"/>
      <point x="996.25406159387546" y="127.17953847034426"/>
      <point x="1012.4901859559274" y="416.5640545348212" type="curve" smooth="yes"/>
      <point x="1020.3986769473686" y="557.52102106973666"/>
      <point x="958.44275155955313" y="679.97466812429798"/>
      <point x="829.51802197433767" y="741.784797442063" type="curve"/>
      <point x="965.47584154029028" y="805.8789765179414"/>
      <point x="1085.3777819857157" y="908.86257790048478"/>
      <point x="1095.3970113119817" y="1069.135924036683" type="curve" smooth="yes"/>
      <point x="1112.0957659144829" y="1336.2587924027996"/>
      <point x="906.78523400646077" y="1473.9143405560706"/>
      <point x="659.3323953357359" y="1477.6539653766579" type="curve" smooth="yes"/>
      <point x="416.80446878777639" y="1481.319162586261"/>
      <point x="174.77607729121459" y="1337.9321806645241"/>
      <point x="160.78175712393517" y="1078.1901443908669" type="curve"/>
      <point x="443.09925014040459" y="1079.5414658028089" type="line"/>
      <point x="461.8324080893205" y="1183.8175493342642"/>
      <point x="550.36996720047864" y="1248.244642211326"/>
      <point x="655.92354082357167" y="1246.0311668232625" type="curve" smooth="yes"/>
      <point x="764.31807634955533" y="1243.7581160079101"/>
      <point x="822.4939637842192" y="1172.3468976327063"/>
      <point x="809.59597496460913" y="1065.8819915506074" type="curve" smooth="yes"/>
      <point x="793.07605681281575" y="929.5203029871484"/>
      <point x="688.4050814517218" y="857.72489088613918"/>
      <point x="556.6479719578964" y="855.82168993718301" type="curve" smooth="yes"/>
      <point x="421.71899991687053" y="856.84956688441775" type="line"/>
      <point x="385.72251231356546" y="630.26600905562907" type="line"/>
    </contour>
  </outline>
</glyph>
<glyph name="four" format="1">
  <advance width="1139.75"/>
  <unicode hex="0034"/>
  <outline>
    <contour>
      <point x="38.367690298490928" y="512.31726652986208" type="line"/>
      <point x="18.107361375760846" y="315.1074546631973" type="line"/>
      <point x="596.13826082780884" y="314.93167504607857" type="line"/>
      <point x="541.02385841209332" y="0.0" type="line"/>
      <point x="823.45625671438222" y="0.0" type="line"/>
      <point x="878.44363869951042" y="314.90121430216658" type="line"/>
      <point x="1038.1928198145638" y="315.07430885294053" type="line"/>
      <point x="1078.884150432966" y="547.90057246633035" type="line"/>
      <point x="918.59654482994233" y="548.06399912533379" type="line"/>
      <point x="1076.191308920022" y="1455.9833992579559" type="line"/>
      <point x="781.26772585314382" y="1455.635013776101" type="line"/>
    </contour>
    <contour>
      <point x="329.89545777082776" y="550.28212819883424" type="line"/>
      <point x="709.48788854863778" y="1030.7669421367218" type="line"/>
      <point x="736.11761120965252" y="1068.9302647731913" type="line"/>
      <point x="636.60141380634434" y="547.98228700744448" type="line"/>
    </contour>
  </outline>
</glyph>
<glyph name="five" format="1">
  <advance width="1139.75"/>
  <unicode hex="0035"/>
  <outline>
    <contour>
      <point x="386.98267569233241" y="661.281123960792" type="line"/>
      <point x="442.41274087832244" y="711.88185885333735"/>
      <point x="504.89206574436929" y="740.67198697655954"/>
      <point x="581.33088697617382" y="739.55430321667893" type="curve" smooth="yes"/>
      <point x="726.90452547599523" y="737.4257343952869"/>
      <point x="771.20347859390495" y="620.86452143845145"/>
      <point x="757.5454477166669" y="491.77588150422213" type="curve" smooth="yes"/>
      <point x="743.17405610539572" y="355.94492507016048"/>
      <point x="671.87050137550591" y="210.10675667552277"/>
      <point x="515.4821797598471" y="213.95733982561032" type="curve" smooth="yes"/>
      <point x="399.46776612780883" y="216.81383922200826"/>
      <point x="351.08577137191861" y="301.01388414258952"/>
      <point x="344.6933047401522" y="406.96242094726637" type="curve"/>
      <point x="67.741905428350762" y="407.32556123617911" type="line"/>
      <point x="71.63047230767765" y="155.99728599649131"/>
      <point x="254.22114338631289" y="-16.627635335761084"/>
      <point x="504.64494377908863" y="-21.392400377182859" type="curve" smooth="yes"/>
      <point x="798.85695276704473" y="-26.990315164010461"/>
      <point x="1016.0308394654149" y="185.18689047462834"/>
      <point x="1038.8855277071639" y="474.8918662098348" type="curve" smooth="yes"/>
      <point x="1058.819453559041" y="727.57339238686995"/>
      <point x="941.88442024768403" y="956.11625485564196"/>
      <point x="663.57532306698499" y="955.68653173649068" type="curve" smooth="yes"/>
      <point x="591.05298484217872" y="955.5745536311905"/>
      <point x="516.0749702506339" y="938.04219699186649"/>
      <point x="453.97612023434681" y="899.8765337604608" type="curve"/>
      <point x="550.03078035567978" y="1215.9184745193827" type="line"/>
      <point x="1107.8918075433662" y="1216.0598123836864" type="line"/>
      <point x="1145.9257526690369" y="1455.9285702090933" type="line"/>
      <point x="350.30800780673525" y="1455.8846394212871" type="line"/>
      <point x="154.95260493319608" y="720.30671249721877" type="line"/>
    </contour>
  </outline>
</glyph>
<glyph name="six" format="1">
  <advance width="1139.75"/>
  <unicode hex="0036"/>
  <outline>
    <contour>
      <point x="1053.7043141296786" y="486.60579906836062" type="curve" smooth="yes"/>
      <point x="1073.0573854451861" y="719.9187613558521"/>
      <point x="974.25668157901339" y="970.00675394291147"/>
      <point x="707.64677255006916" y="974.47857596955316" type="curve" smooth="yes"/>
      <point x="594.33248831883168" y="976.37918541803162"/>
      <point x="494.05912957500817" y="932.28483005005285"/>
      <point x="414.04088641991837" y="853.62237125509319" type="curve"/>
      <point x="512.446620717673" y="1089.2201267917194"/>
      <point x="687.44988636234621" y="1236.7925682279179"/>
      <point x="952.10441538226439" y="1233.2543259184761" type="curve" smooth="yes"/>
      <point x="965.05380713326315" y="1232.8357698817274" type="line"/>
      <point x="986.76446265980337" y="1472.2328355760249" type="line"/>
      <point x="940.06104061950225" y="1472.1892115620838" type="line" smooth="yes"/>
      <point x="468.51449100900749" y="1468.6655263328555"/>
      <point x="167.15317626921367" y="1119.9747754956441"/>
      <point x="107.33062331262151" y="670.67654740683406" type="curve" smooth="yes"/>
      <point x="93.436717664377014" y="559.76844132876909" type="line" smooth="yes"/>
      <point x="62.904676334544078" y="272.72136897283872"/>
      <point x="199.28192545884986" y="-13.982712066871835"/>
      <point x="518.31068123032469" y="-20.499273807551976" type="curve" smooth="yes"/>
      <point x="810.33308267812913" y="-26.464196950904714"/>
      <point x="1030.1625472692883" y="202.79558237795015"/>
    </contour>
    <contour>
      <point x="371.14019911229371" y="521.15148993833589" type="curve" smooth="yes"/>
      <point x="383.67519346080093" y="609.06533549718711" type="line"/>
      <point x="435.34572766339164" y="687.46347588058939"/>
      <point x="514.72443224261781" y="746.74660830655648"/>
      <point x="612.71744814515534" y="743.78756825808637" type="curve" smooth="yes"/>
      <point x="749.8987488409839" y="739.64518158979649"/>
      <point x="782.94553014103769" y="598.43114654035355"/>
      <point x="770.49555297291226" y="484.77430316767055" type="curve" smooth="yes"/>
      <point x="756.36610226080347" y="355.78541067077003"/>
      <point x="673.49125588387687" y="209.65628349297151"/>
      <point x="526.56795979949641" y="213.57091910778345" type="curve" smooth="yes"/>
      <point x="366.9435355512224" y="217.82396455945417"/>
      <point x="356.91439286679235" y="400.64991291020124"/>
    </contour>
  </outline>
</glyph>
<glyph name="seven" format="1">
  <advance width="1139.75"/>
  <unicode hex="0037"/>
  <outline>
    <contour>
      <point x="1192.3406351777983" y="1455.8856562319529" type="line"/>
      <point x="192.25721656307422" y="1455.938160444412" type="line"/>
      <point x="155.34408189820039" y="1223.0721821564016" type="line"/>
      <point x="851.39273347843221" y="1222.7451518075281" type="line"/>
      <point x="113.85448506784699" y="0.0" type="line"/>
      <point x="424.89889057344215" y="0.0" type="line"/>
      <point x="1164.7641942698297" y="1279.8954769243003" type="line"/>
    </contour>
  </outline>
</glyph>
<glyph name="eight" format="1">
  <advance width="1139.75"/>
  <unicode hex="0038"/>
  <outline>
    <contour>
      <point x="1011.3959312261445" y="407.57084578551741" type="curve" smooth="yes"/>
      <point x="1019.8067357419079" y="544.86819690611321"/>
      <point x="962.52679674547039" y="666.00564730978533"/>
      <point x="849.58471650299111" y="743.95078068048053" type="curve"/>
      <point x="986.20460679317" y="813.0693131679493"/>
      <point x="1089.1270009285481" y="917.06821696993075"/>
      <point x="1099.8849012489266" y="1077.1734991907033" type="curve" smooth="yes"/>
      <point x="1116.6702359762498" y="1326.9825393988103"/>
      <point x="936.9759101521272" y="1472.6170476361494"/>
      <point x="698.87094518211677" y="1477.3998980923679" type="curve" smooth="yes"/>
      <point x="442.11165445005514" y="1482.5574608125357"/>
      <point x="221.30666464278497" y="1328.656702027755"/>
      <point x="205.79262098171131" y="1060.2143296481327" type="curve" smooth="yes"/>
      <point x="198.78577672398771" y="938.97360501633909"/>
      <point x="247.55871564365418" y="831.25498742447735"/>
      <point x="342.9795216005225" y="757.00411384978418" type="curve"/>
      <point x="186.69435819953836" y="685.32123280572137"/>
      <point x="69.503899186562734" y="570.37872649598285"/>
      <point x="57.487248920905515" y="390.41147002424469" type="curve" smooth="yes"/>
      <point x="39.918924821362523" y="127.2996194582791"/>
      <point x="241.05566696377548" y="-15.515487934489277"/>
      <point x="486.51395250816199" y="-20.24976155602932" type="curve" smooth="yes"/>
      <point x="752.67907410065538" y="-25.383418019630238"/>
      <point x="994.06195175778907" y="124.61224641210231"/>
    </contour>
    <contour>
      <point x="814.8641440438571" y="1062.9990220164982" type="curve" smooth="yes"/>
      <point x="802.18086764808993" y="956.20732699844723"/>
      <point x="729.59210456966696" y="859.52815054373207"/>
      <point x="614.13192871837282" y="861.75690417223984" type="curve" smooth="yes"/>
      <point x="509.22645096441528" y="863.7819180999478"/>
      <point x="472.6702797026569" y="953.59963435885288"/>
      <point x="483.80644277194835" y="1046.9312508764669" type="curve" smooth="yes"/>
      <point x="496.56054903843517" y="1153.8227670730216"/>
      <point x="569.54839505205302" y="1247.5024285210618"/>
      <point x="684.39911340313995" y="1245.1172529499781" type="curve" smooth="yes"/>
      <point x="788.13495208506015" y="1242.9629069273992"/>
      <point x="825.93505694804412" y="1156.214806135964"/>
    </contour>
    <contour>
      <point x="734.01360346121112" y="428.46662630533262" type="curve" smooth="yes"/>
      <point x="719.12556121649129" y="305.50844144452242"/>
      <point x="628.24645413354119" y="209.2758793357342"/>
      <point x="500.28778399204361" y="211.8502875793807" type="curve" smooth="yes"/>
      <point x="384.01699413588597" y="214.18954665084482"/>
      <point x="330.65253336311866" y="301.92955301262162"/>
      <point x="344.01145936403782" y="411.47791721987812" type="curve" smooth="yes"/>
      <point x="358.992189919922" y="534.32570654918914"/>
      <point x="450.31191034717494" y="633.81369796694173"/>
      <point x="578.90537174303415" y="631.10376736766932" type="curve" smooth="yes"/>
      <point x="695.12400975275875" y="628.6546191766987"/>
      <point x="747.11167526609142" y="536.64170452126211"/>
    </contour>
  </outline>
</glyph>
<glyph name="nine" format="1">
  <advance width="1139.75"/>
  <unicode hex="0039"/>
  <outline>
    <contour>
      <point x="1067.1429585625542" y="782.28414272707073" type="curve" smooth="yes"/>
      <point x="1079.740875976388" y="882.23046754897507" type="line" smooth="yes"/>
      <point x="1109.7995393062122" y="1162.5489748056029"/>
      <point x="997.3662418199192" y="1470.5772483685159"/>
      <point x="674.06209124371185" y="1477.2597150234037" type="curve" smooth="yes"/>
      <point x="379.34660008400124" y="1483.3512744384118"/>
      <point x="163.21651433605049" y="1236.8781822442859"/>
      <point x="139.93530805421278" y="954.90863635524693" type="curve" smooth="yes"/>
      <point x="120.2953015870188" y="717.03935940404676"/>
      <point x="228.02351850600644" y="474.38117992091196"/>
      <point x="495.88652472975127" y="471.27105291530108" type="curve" smooth="yes"/>
      <point x="598.2974836816511" y="470.08197087819156"/>
      <point x="687.4664606916707" y="516.55576030953262"/>
      <point x="761.17381660502326" y="584.51429536021806" type="curve"/>
      <point x="671.67711755595542" y="342.61616504861695"/>
      <point x="504.16906800691271" y="223.01640846595299"/>
      <point x="242.19981057621482" y="226.69669880572181" type="curve" smooth="yes"/>
      <point x="228.29987787189287" y="227.12716216205186" type="line"/>
      <point x="205.99220003543559" y="-16.176451029243896" type="line"/>
      <point x="235.31721943043698" y="-16.132635177672451" type="line" smooth="yes"/>
      <point x="719.60147831491577" y="-12.591385287100932"/>
      <point x="1005.4507056505878" y="320.66065920643513"/>
    </contour>
    <contour>
      <point x="422.38202764284995" y="957.26282356696299" type="curve" smooth="yes"/>
      <point x="435.9238951283881" y="1080.8823000005361"/>
      <point x="512.04190480029445" y="1247.3917613690739"/>
      <point x="658.896626407746" y="1243.6456471987601" type="curve" smooth="yes"/>
      <point x="812.35487794575829" y="1239.7310837148923"/>
      <point x="816.9879087329839" y="1046.9757839715699"/>
      <point x="804.29330232499342" y="935.91790283938815" type="curve" smooth="yes"/>
      <point x="787.34644052992564" y="816.96085000077392" type="line"/>
      <point x="737.36412844559993" y="745.58767786852923"/>
      <point x="665.37459623056964" y="689.85833670342777"/>
      <point x="573.96203139054751" y="692.36997902853182" type="curve" smooth="yes"/>
      <point x="434.73234520976848" y="696.19543971147607"/>
      <point x="410.13759604413491" y="845.4872338946866"/>
    </contour>
  </outline>
</glyph>
<glyph name="less" format="1">
  <advance width="1011.7099999999999"/>
  <unicode hex="003C"/>
  <outline>
    <contour>
      <point x="809.62390906891949" y="143.73712656121958" type="line"/>
      <point x="856.54869670796973" y="411.70140919432794" type="line"/>
      <point x="339.27829251729815" y="612.5563232116956" type="line"/>
      <point x="926.50676362103513" y="817.96146563190871" type="line"/>
      <point x="977.81691031888272" y="1110.4300516690473" type="line"/>
      <point x="77.92617201257768" y="744.93811509679017" type="line"/>
      <point x="36.746458803292356" y="510.42388693106983" type="line"/>
    </contour>
  </outline>
</glyph>
<glyph name="equal" format="1">
  <advance width="1136.84"/>
  <unicode hex="003D"/>
  <outline>
    <contour>
      <point x="1067.878594276154" y="981.90639927502809" type="line"/>
      <point x="198.60111990192428" y="981.92223826746397" type="line"/>
      <point x="157.1202488741402" y="746.09292706393501" type="line"/>
      <point x="1026.3977232483924" y="746.07708807151232" type="line"/>
    </contour>
    <contour>
      <point x="992.85938843418671" y="548.90680172408588" type="line"/>
      <point x="123.5819148551583" y="548.92264478808681" type="line"/>
      <point x="82.276813184804539" y="314.09286183521652" type="line"/>
      <point x="951.55428676385441" y="314.0770187712547" type="line"/>
    </contour>
  </outline>
</glyph>
<glyph name="greater" format="1">
  <advance width="1026.26"/>
  <unicode hex="003E"/>
  <outline>
    <contour>
      <point x="201.83369359730079" y="1096.3683509047012" type="line"/>
      <point x="155.40380755264175" y="831.20914875669428" type="line"/>
      <point x="685.20354708600348" y="628.85159964904426" type="line"/>
      <point x="84.752929424356253" y="420.97508485186086" type="line"/>
      <point x="33.647588463980767" y="129.66389600865094" type="line"/>
      <point x="945.16862072011713" y="495.14408732259187" type="line"/>
      <point x="986.52349410328588" y="730.65079869320482" type="line"/>
    </contour>
  </outline>
</glyph>
<glyph name="question" format="1">
  <advance width="989.4"/>
  <unicode hex="003F"/>
  <outline>
    <contour>
      <point x="567.77734421405125" y="447.67117836993145" type="line"/>
      <point x="584.48941387878062" y="549.37827057866627"/>
      <point x="625.9801104069486" y="621.76855344482078"/>
      <point x="706.97747451041289" y="686.2778921337341" type="curve" smooth="yes"/>
      <point x="841.61465698881386" y="793.507994011194"/>
      <point x="989.12683968393196" y="906.49453573656615"/>
      <point x="1002.1827551744816" y="1092.2032866771945" type="curve" smooth="yes"/>
      <point x="1019.530673115848" y="1338.9619436739881"/>
      <point x="848.36018074675849" y="1471.7097470739873"/>
      <point x="614.30098788909379" y="1476.5157057218833" type="curve" smooth="yes"/>
      <point x="355.77726089595404" y="1481.8239968693476"/>
      <point x="153.21262172022057" y="1334.5961193275864"/>
      <point x="132.6279458994951" y="1069.4831280722885" type="curve"/>
      <point x="416.0680291040178" y="1070.9049185632748" type="line"/>
      <point x="434.79652802024134" y="1165.9718386050204"/>
      <point x="494.28072324852354" y="1245.8451101923365"/>
      <point x="599.84142888169538" y="1243.4412723155292" type="curve" smooth="yes"/>
      <point x="696.91996564678107" y="1241.23059115059"/>
      <point x="725.7971628214292" y="1168.9636336696972"/>
      <point x="711.84564177867981" y="1081.3448227366537" type="curve" smooth="yes"/>
      <point x="693.84198430282686" y="968.27764850909227"/>
      <point x="592.32026757712742" y="895.46157380336138"/>
      <point x="509.4482662275492" y="828.38437590733247" type="curve" smooth="yes"/>
      <point x="382.90089344681945" y="725.95601615976432"/>
      <point x="332.1600684317724" y="607.05958261961109"/>
      <point x="321.03041226383766" y="446.56764631518394" type="curve"/>
    </contour>
    <contour>
      <point x="229.39387307697706" y="135.50199681782536" type="curve" smooth="yes"/>
      <point x="231.40823584162365" y="47.088501299403035"/>
      <point x="300.96471768887739" y="-15.262526526673479"/>
      <point x="388.32184670379473" y="-13.563081402169312" type="curve" smooth="yes"/>
      <point x="478.2520284656739" y="-11.813580123173509"/>
      <point x="545.67864797212951" y="55.381762909221607"/>
      <point x="543.60792571855654" y="146.0624935809933" type="curve" smooth="yes"/>
      <point x="541.57766217589017" y="234.97146299375638"/>
      <point x="471.32476471523034" y="296.89451576164186"/>
      <point x="383.70948602787456" y="295.12009919496484" type="curve" smooth="yes"/>
      <point x="294.04323792967011" y="293.30414564803868"/>
      <point x="227.33943923152029" y="225.67427401440779"/>
    </contour>
  </outline>
</glyph>
<glyph name="at" format="1">
  <advance width="1778.01"/>
  <unicode hex="0040"/>
  <outline>
    <contour>
      <point x="1066.998962276894" y="-366.7086438177551" type="curve"/>
      <point x="1038.1215390423804" y="-209.02922756340243" type="line"/>
      <point x="930.79948505563357" y="-252.47399076245367"/>
      <point x="815.62721862607418" y="-279.27029051040125"/>
      <point x="699.36082839098333" y="-278.21969682903966" type="curve" smooth="yes"/>
      <point x="266.53042159875417" y="-274.30860188958547"/>
      <point x="180.27440615100591" y="91.549753316066074"/>
      <point x="250.5049241397063" y="456.87459608462325" type="curve" smooth="yes"/>
      <point x="326.92311329593946" y="854.38644332246463"/>
      <point x="617.02066081129556" y="1260.8311278448541"/>
      <point x="1059.8237336321463" y="1253.2859771341962" type="curve" smooth="yes"/>
      <point x="1488.298611781938" y="1245.9849719474528"/>
      <point x="1574.207252706211" y="899.81881100889905"/>
      <point x="1510.3782238527235" y="535.01042275502527" type="curve" smooth="yes"/>
      <point x="1486.4841180687763" y="398.44606674989643"/>
      <point x="1411.6342374297337" y="130.01227670450422"/>
      <point x="1227.5737696223771" y="139.15212425943182" type="curve" smooth="yes"/>
      <point x="1137.350078118164" y="143.63234098394003"/>
      <point x="1145.86560649944" y="234.95629591093063"/>
      <point x="1158.8309588542513" y="302.02232998203425" type="curve" smooth="yes"/>
      <point x="1297.4234706732752" y="879.74897609022116" type="line"/>
      <point x="1204.1115611207729" y="944.57773030266378"/>
      <point x="1117.4019631012382" y="988.72205994880153"/>
      <point x="1000.7480499168366" y="990.83131564923633" type="curve" smooth="yes"/>
      <point x="703.26290090327529" y="996.21023718922515"/>
      <point x="519.93594162005809" y="680.98261342638045"/>
      <point x="473.31112159473764" y="423.59610836853147" type="curve" smooth="yes"/>
      <point x="441.328969324539" y="247.04262478223623"/>
      <point x="471.13699117042091" y="-13.673779812389466"/>
      <point x="700.6720420481538" y="-18.654318476576059" type="curve" smooth="yes"/>
      <point x="813.688998137559" y="-21.10660329041826"/>
      <point x="898.97339458820557" y="41.586303737355991"/>
      <point x="970.04894473374702" y="123.176281456425" type="curve"/>
      <point x="999.64881363047766" y="25.681698862888467"/>
      <point x="1089.8254338640431" y="-19.175725779915503"/>
      <point x="1187.3786942846202" y="-21.477837460019984" type="curve" smooth="yes"/>
      <point x="1495.0674775408222" y="-28.738834567829905"/>
      <point x="1645.1989276661654" y="279.80499056014366"/>
      <point x="1688.1194716364841" y="542.30776896922521" type="curve" smooth="yes"/>
      <point x="1763.3540479810122" y="1002.4437201008373"/>
      <point x="1563.3593516458518" y="1409.7436179122149"/>
      <point x="1057.0506521205618" y="1416.0550010272486" type="curve" smooth="yes"/>
      <point x="518.35262612625968" y="1422.7701327809598"/>
      <point x="139.85642396951232" y="955.86389259218083"/>
      <point x="54.974182397936332" y="457.4384007064445" type="curve" smooth="yes"/>
      <point x="-27.579227201844091" y="-27.312272989168491"/>
      <point x="165.78720186242208" y="-448.01624928813601"/>
      <point x="701.28572289342628" y="-452.85324795771157" type="curve" smooth="yes"/>
      <point x="822.69225525385093" y="-453.94987700978538"/>
      <point x="963.68358944456077" y="-434.96716626921989"/>
    </contour>
    <contour>
      <point x="696.19161991096541" y="422.93808699453416" type="curve" smooth="yes"/>
      <point x="728.97598743591675" y="589.52574272561174"/>
      <point x="813.13923014218085" y="823.3774127995664"/>
      <point x="1020.4088440669379" y="817.18704180081215" type="curve" smooth="yes"/>
      <point x="1043.9635581865136" y="816.48355026431182"/>
      <point x="1066.6799476017604" y="812.15754069112177"/>
      <point x="1088.9891468566075" y="804.85908068867695" type="curve"/>
      <point x="963.46675402410165" y="329.67491293328618" type="line"/>
      <point x="936.41999508800791" y="256.88581480931106"/>
      <point x="860.05249795241252" y="153.91245735211882"/>
      <point x="771.79302772901633" y="158.33913991508612" type="curve" smooth="yes"/>
      <point x="648.87189780492611" y="164.50428934412685"/>
      <point x="680.98267223639562" y="345.65665286850054"/>
    </contour>
  </outline>
</glyph>
<glyph name="A" format="1">
  <advance width="1337.6299999999999"/>
  <unicode hex="0041"/>
  <outline>
    <contour>
      <point x="844.0220635163638" y="1600" type="move" name="top"/>
    </contour>
    <contour>
      <point x="574.60023633479625" y="7" type="move" name="bottom"/>
    </contour>
    <contour>
      <point x="1227.1707618901817" y="0" type="move" name="right"/>
    </contour>
    <contour>
      <point x="474.44588224297468" y="1454" type="move" name="tonos"/>
    </contour>
    <contour>
      <point x="1145.6907618901816" y="0" type="move" name="ogonek"/>
    </contour>
    <contour>
      <point x="1510.4120635163636" y="1600" type="move" name="top_dd"/>
    </contour>
    <contour>
      <point x="1163.6384620390215" y="-407" type="move" name="bottom_dd"/>
    </contour>
    <contour>
      <point x="1510.4120635163636" y="1600" type="move" name="top0315"/>
    </contour>
    <contour>
      <point x="-103.44875975094189" y="0.0" type="line"/>
      <point x="218.90936405856519" y="0.0" type="line"/>
      <point x="368.6447200005307" y="299.6801045036616" type="line"/>
      <point x="877.30586648173471" y="300.03082923566143" type="line"/>
      <point x="922.46940736261513" y="0.0" type="line"/>
      <point x="1222.7344872856099" y="0.0" type="line"/>
      <point x="946.46392395757562" y="1456.0718692778814" type="line"/>
      <point x="675.0430987703761" y="1455.7400639241478" type="line"/>
    </contour>
    <contour>
      <point x="488.83072988895663" y="543.22506811776987" type="line"/>
      <point x="759.69939176192383" y="1086.4277243901247" type="line"/>
      <point x="840.76786825133331" y="542.93896435116721" type="line"/>
    </contour>
  </outline>
</glyph>
<glyph name="B" format="1">
  <advance width="1267.79"/>
  <unicode hex="0042"/>
  <outline>
    <contour>
      <point x="756.85544827856006" y="1612" type="move" name="top"/>
    </contour>
    <contour>
      <point x="481.02858252534543" y="10" type="move" name="bottom"/>
    </contour>
    <contour>
      <point x="1440.5720635163639" y="1600" type="move" name="top_dd"/>
    </contour>
    <contour>
      <point x="1093.7984620390216" y="-407" type="move" name="bottom_dd"/>
    </contour>
    <contour>
      <point x="1442.64544827856" y="1612" type="move" name="top0315"/>
    </contour>
    <contour>
      <point x="1144.249585140436" y="436.40253338602264" type="curve" smooth="yes"/>
      <point x="1152.5935058323175" y="567.03353498176"/>
      <point x="1098.8177260851" y="696.74508438201985"/>
      <point x="968.9854510897419" y="743.32401660022663" type="curve"/>
      <point x="1112.310388869699" y="804.4964434677637"/>
      <point x="1213.6319508483095" y="904.18743507126965"/>
      <point x="1224.4939767022693" y="1066.5633903554547" type="curve" smooth="yes"/>
      <point x="1243.7656330600782" y="1354.6545487710882"/>
      <point x="1000.8436878546325" y="1450.5040494798266"/>
      <point x="752.0723929127987" y="1455.1158047475806" type="curve" smooth="yes"/>
      <point x="273.83217212384534" y="1456.0028733586742" type="line"/>
      <point x="21.205843439941276" y="0.0" type="line"/>
      <point x="580.90765888101123" y="0.0" type="line" smooth="yes"/>
      <point x="866.1777822269637" y="-3.0251015219317972"/>
      <point x="1124.3311019169876" y="124.56215164813545"/>
    </contour>
    <contour>
      <point x="525.7981271911674" y="1213.1220896371724" type="line"/>
      <point x="745.99041116513433" y="1212.3683076074149" type="line" smooth="yes"/>
      <point x="866.15553947895046" y="1209.1744534807378"/>
      <point x="946.38494301054141" y="1166.8512924407819"/>
      <point x="925.88972102503021" y="1034.9047849338749" type="curve" smooth="yes"/>
      <point x="903.8738192657969" y="893.16826952557165"/>
      <point x="777.64032828121583" y="846.68621528978122"/>
      <point x="648.61244361694719" y="845.71101173367242" type="curve" smooth="yes"/>
      <point x="461.96030593326952" y="847.06683926994526" type="line"/>
    </contour>
    <contour>
      <point x="854.86242298221941" y="439.59749458828713" type="curve" smooth="yes"/>
      <point x="833.68783700643428" y="303.47381783157203"/>
      <point x="715.99964026477437" y="242.21222598230142"/>
      <point x="587.69184370161395" y="240.67036014795656" type="curve" smooth="yes"/>
      <point x="357.16026934355051" y="242.09945447508275" type="line"/>
      <point x="425.65428056614155" y="635.09833686573302" type="line"/>
      <point x="701.87648421229358" y="633.92037866678709" type="line" smooth="yes"/>
      <point x="822.25644216961712" y="628.92141738901341"/>
      <point x="873.23189497037652" y="557.68811841285606"/>
    </contour>
  </outline>
</glyph>
<glyph name="C" format="1">
  <advance width="1300.77"/>
  <unicode hex="0043"/>
  <outline>
    <contour>
      <point x="841.69710208801109" y="1609" type="move" name="top"/>
    </contour>
    <contour>
      <point x="560.26241569963258" y="-3" type="move" name="bottom"/>
    </contour>
    <contour>
      <point x="1473.5520635163639" y="1600" type="move" name="top_dd"/>
    </contour>
    <contour>
      <point x="1126.7784620390216" y="-407" type="move" name="bottom_dd"/>
    </contour>
    <contour>
      <point x="1475.1071020880111" y="1609" type="move" name="top0315"/>
    </contour>
    <contour>
      <point x="916.25956954053959" y="484.16429770339175" type="line"/>
      <point x="880.85442051418909" y="314.92090753074746"/>
      <point x="771.9615831995784" y="218.52137154007698"/>
      <point x="594.87743220837558" y="224.9839621145137" type="curve" smooth="yes"/>
      <point x="352.96783106058336" y="233.81232252674019"/>
      <point x="374.60290331102311" y="501.82918194126296"/>
      <point x="396.86657390950279" y="679.20059972452088" type="curve" smooth="yes"/>
      <point x="409.79515169535046" y="777.20881898911364" type="line" smooth="yes"/>
      <point x="439.52148684429585" y="990.02023856124015"/>
      <point x="531.77265547697482" y="1240.8496964104279"/>
      <point x="787.81273777638614" y="1231.9549495612766" type="curve" smooth="yes"/>
      <point x="961.94823397472726" y="1225.9055406475413"/>
      <point x="1013.7399556306816" y="1122.2436062464958"/>
      <point x="1014.4000138834895" y="961.1947704197612" type="curve"/>
      <point x="1305.9389965418475" y="960.23807675122407" type="line"/>
      <point x="1289.226244443656" y="1265.2373130931981"/>
      <point x="1119.4459185143048" y="1471.1953630535818"/>
      <point x="801.68023140819957" y="1477.2039642990017" type="curve" smooth="yes"/>
      <point x="397.59373202435302" y="1484.844797598427"/>
      <point x="162.90966736825624" y="1140.9598314718849"/>
      <point x="111.36151141780518" y="774.56933002354708" type="curve" smooth="yes"/>
      <point x="98.562120727672593" y="679.7416936181238" type="line" smooth="yes"/>
      <point x="55.634131485316608" y="333.7420580821705"/>
      <point x="187.94618626733677" y="-12.689464353715984"/>
      <point x="581.58734229746733" y="-20.145967147685582" type="curve" smooth="yes"/>
      <point x="895.34848893992296" y="-26.089351955750463"/>
      <point x="1169.0371214418726" y="164.3770148639411"/>
      <point x="1206.598969213725" y="486.35375950951334" type="curve"/>
    </contour>
  </outline>
</glyph>
<glyph name="D" format="1">
  <advance width="1292.04"/>
  <unicode hex="0044"/>
  <outline>
    <contour>
      <point x="684.49040970691294" y="1603" type="move" name="top"/>
    </contour>
    <contour>
      <point x="337.53888619361095" y="729" type="move" name="cross"/>
    </contour>
    <contour>
      <point x="410.21858252534537" y="10" type="move" name="bottom"/>
    </contour>
    <contour>
      <point x="1464.8220635163639" y="1600" type="move" name="top_dd"/>
    </contour>
    <contour>
      <point x="1118.0484620390216" y="-407" type="move" name="bottom_dd"/>
    </contour>
    <contour>
      <point x="1465.3404097069129" y="1603" type="move" name="top0315"/>
    </contour>
    <contour>
      <point x="21.207743161854765" y="0.0" type="line"/>
      <point x="472.25485656650358" y="0.0" type="line" smooth="yes"/>
      <point x="880.72485243112601" y="-1.2901116711330269"/>
      <point x="1172.2643419303004" y="301.41337238149356"/>
      <point x="1225.5924216464878" y="695.35413896523778" type="curve" smooth="yes"/>
      <point x="1233.8277915930903" y="760.21858800387065" type="line" smooth="yes"/>
      <point x="1276.2165029125108" y="1126.4099912757588"/>
      <point x="1082.3155644414405" y="1446.0767696920011"/>
      <point x="691.84343505460527" y="1455.0293179591092" type="curve" smooth="yes"/>
      <point x="273.82825858079224" y="1455.988312597769" type="line"/>
    </contour>
    <contour>
      <point x="685.93009360666599" y="1212.0566236390407" type="line" smooth="yes"/>
      <point x="937.53733683898577" y="1204.0045206422947"/>
      <point x="962.56839485351873" y="966.81777722866047"/>
      <point x="936.27459617808836" y="762.81435792993432" type="curve" smooth="yes"/>
      <point x="926.93925499061402" y="694.94366943577882" type="line" smooth="yes"/>
      <point x="890.49206382539808" y="446.56154603814934"/>
      <point x="749.3031306306209" y="239.59238563534393"/>
      <point x="478.65781376786936" y="240.60336250235648" type="curve" smooth="yes"/>
      <point x="357.26524808919055" y="242.08413691406699" type="line"/>
      <point x="525.7191903854465" y="1213.3396455622951" type="line"/>
    </contour>
  </outline>
</glyph>
<glyph name="E" format="1">
  <advance width="1117.44"/>
  <unicode hex="0045"/>
  <outline>
    <contour>
      <point x="789.25040970691282" y="1603" type="move" name="top"/>
    </contour>
    <contour>
      <point x="516.91858252534541" y="10" type="move" name="bottom"/>
    </contour>
    <contour>
      <point x="66.421446370007388" y="1456" type="move" name="tonos"/>
    </contour>
    <contour>
      <point x="822.68076189018177" y="0" type="move" name="ogonek"/>
    </contour>
    <contour>
      <point x="1290.222063516364" y="1600" type="move" name="top_dd"/>
    </contour>
    <contour>
      <point x="943.44846203902171" y="-407" type="move" name="bottom_dd"/>
    </contour>
    <contour>
      <point x="1290.7404097069129" y="1603" type="move" name="top0315"/>
    </contour>
    <contour>
      <point x="21.203442791724214" y="0.0" type="line"/>
      <point x="970.86745534888564" y="0.0" type="line"/>
      <point x="1013.4000849966455" y="241.90984673012065" type="line"/>
      <point x="357.14895598315536" y="242.0624551515115" type="line"/>
      <point x="424.98351762890127" y="630.91977358357735" type="line"/>
      <point x="982.22082984340864" y="631.06967926139089" type="line"/>
      <point x="1023.5303752042255" y="865.91298488896985" type="line"/>
      <point x="465.23157928151647" y="866.06323055909593" type="line"/>
      <point x="525.84058302946858" y="1212.9138837003368" type="line"/>
      <point x="1178.1058062721308" y="1213.0731737784827" type="line"/>
      <point x="1220.8222953161196" y="1455.9080642019665" type="line"/>
      <point x="273.81583189356718" y="1455.9390041993547" type="line"/>
    </contour>
  </outline>
</glyph>
<glyph name="F" format="1">
  <advance width="1089.31"/>
  <unicode hex="0046"/>
  <outline>
    <contour>
      <point x="269.75372713563996" y="303" type="move" name="cross"/>
    </contour>
    <contour>
      <point x="790.80544827856011" y="1612" type="move" name="top"/>
    </contour>
    <contour>
      <point x="413.12858252534534" y="10" type="move" name="bottom"/>
    </contour>
    <contour>
      <point x="1262.0920635163639" y="1600" type="move" name="top_dd"/>
    </contour>
    <contour>
      <point x="915.3184620390216" y="-407" type="move" name="bottom_dd"/>
    </contour>
    <contour>
      <point x="1264.16544827856" y="1612" type="move" name="top0315"/>
    </contour>
    <contour>
      <point x="21.184498642365028" y="0.0" type="line"/>
      <point x="315.24092575266485" y="0.0" type="line"/>
      <point x="418.71702811319881" y="594.92128557556964" type="line"/>
      <point x="976.94680428924471" y="595.07050201751247" type="line"/>
      <point x="1019.4857698084618" y="836.91229731387398" type="line"/>
      <point x="460.24025501074311" y="837.05844054027023" type="line"/>
      <point x="525.80615909699782" y="1212.91842673369" type="line"/>
      <point x="1153.8572962231196" y="1213.0722203574176" type="line"/>
      <point x="1196.5717515838996" y="1455.9084659323553" type="line"/>
      <point x="273.81643780765239" y="1455.9395346010053" type="line"/>
    </contour>
  </outline>
</glyph>
<glyph name="G" format="1">
  <advance width="1353.1499999999999"/>
  <unicode hex="0047"/>
  <outline>
    <contour>
      <point x="848.48710208801106" y="1609" type="move" name="top"/>
    </contour>
    <contour>
      <point x="601.00241569963259" y="-3" type="move" name="bottom"/>
    </contour>
    <contour>
      <point x="1525.9320635163635" y="1600" type="move" name="top_dd"/>
    </contour>
    <contour>
      <point x="1179.1584620390215" y="-407" type="move" name="bottom_dd"/>
    </contour>
    <contour>
      <point x="1527.4871020880109" y="1609" type="move" name="top0315"/>
    </contour>
    <contour>
      <point x="1274.4117156323653" y="764.90779185616373" type="line"/>
      <point x="716.84591390458468" y="764.9241708313117" type="line"/>
      <point x="678.12762725735877" y="545.09053310032539" type="line"/>
      <point x="942.68118625219336" y="544.95222913854388" type="line"/>
      <point x="893.70610968475705" y="293.5986156154782" type="line"/>
      <point x="818.66788665275135" y="240.25249708041767"/>
      <point x="733.2379618546629" y="220.92421055039881"/>
      <point x="641.44582513482771" y="223.08430880153514" type="curve" smooth="yes"/>
      <point x="389.7680687581622" y="229.00691503804163"/>
      <point x="379.51959668818455" y="488.76998881380928"/>
      <point x="404.76297816001079" y="683.22221755049213" type="curve" smooth="yes"/>
      <point x="417.15305656723922" y="773.17683415764373" type="line" smooth="yes"/>
      <point x="448.38564264934917" y="987.44087671942259"/>
      <point x="553.73906410102848" y="1245.0599878629735"/>
      <point x="810.56625762553438" y="1235.4820815480034" type="curve" smooth="yes"/>
      <point x="965.61085902115656" y="1229.6999731722117"/>
      <point x="1023.9693747991679" y="1136.3525553678244"/>
      <point x="1035.5602170735244" y="991.80545057290578" type="curve"/>
      <point x="1317.8891534347326" y="991.0296516470454" type="line"/>
      <point x="1295.5101882963086" y="1294.2841451995541"/>
      <point x="1126.6659165438346" y="1471.5315768430537"/>
      <point x="815.27477622572871" y="1477.2297602826127" type="curve" smooth="yes"/>
      <point x="403.47493367434117" y="1484.7653344830933"/>
      <point x="170.96274118883883" y="1145.0542820298292"/>
      <point x="118.74712901865045" y="770.53461060298298" type="curve" smooth="yes"/>
      <point x="107.07528784165849" y="683.7336072796553" type="line" smooth="yes"/>
      <point x="62.900650941381677" y="324.27904555109109"/>
      <point x="217.30449215923903" y="-13.837547565724584"/>
      <point x="617.03630916110842" y="-19.49748953281755" type="curve" smooth="yes"/>
      <point x="808.27572452601544" y="-22.205314996661222"/>
      <point x="1055.4765824820274" y="23.886360447431144"/>
      <point x="1182.9509029660871" y="183.31125904714906" type="curve"/>
    </contour>
  </outline>
</glyph>
<glyph name="H" format="1">
  <advance width="1404.56"/>
  <unicode hex="0048"/>
  <outline>
    <contour>
      <point x="873.64040970691292" y="1603" type="move" name="top"/>
    </contour>
    <contour>
      <point x="1170.9107618901817" y="0" type="move" name="right"/>
    </contour>
    <contour>
      <point x="69.783100179458287" y="1453" type="move" name="tonos"/>
    </contour>
    <contour>
      <point x="601.3085825253454" y="10" type="move" name="bottom"/>
    </contour>
    <contour>
      <point x="1577.3420635163639" y="1600" type="move" name="top_dd"/>
    </contour>
    <contour>
      <point x="1230.5684620390216" y="-407" type="move" name="bottom_dd"/>
    </contour>
    <contour>
      <point x="1577.8604097069128" y="1603" type="move" name="top0315"/>
    </contour>
    <contour>
      <point x="880.59583833770671" y="0.0" type="line"/>
      <point x="1173.6961360410407" y="0.0" type="line"/>
      <point x="1426.3528918776071" y="1455.9315435447263" type="line"/>
      <point x="1133.2637743535097" y="1455.9455971408656" type="line"/>
      <point x="1030.6588340835565" y="866.07686448394782" type="line"/>
      <point x="465.29000861851478" y="866.05898547719391" type="line"/>
      <point x="567.90755687343415" y="1455.9291855250644" type="line"/>
      <point x="273.8380366524014" y="1455.9481045678424" type="line"/>
      <point x="21.181283906793084" y="0.0" type="line"/>
      <point x="315.2381892609377" y="0.0" type="line"/>
      <point x="423.73814838155431" y="623.92086283589913" type="line"/>
      <point x="989.10555243886324" y="623.93871706587686" type="line"/>
    </contour>
  </outline>
</glyph>
<glyph name="J" format="1">
  <advance width="1109.68"/>
  <unicode hex="004A"/>
  <outline>
    <contour>
      <point x="1002.1320635163638" y="1600" type="move" name="top"/>
    </contour>
    <contour>
      <point x="391.24294125501808" y="-10" type="move" name="bottom"/>
    </contour>
    <contour>
      <point x="1282.4620635163637" y="1600" type="move" name="top_dd"/>
    </contour>
    <contour>
      <point x="935.68846203902172" y="-407" type="move" name="bottom_dd"/>
    </contour>
    <contour>
      <point x="1282.4620635163637" y="1600" type="move" name="top0315"/>
    </contour>
    <contour>
      <point x="672.30250388136392" y="447.52960761823886" type="line" smooth="yes"/>
      <point x="652.74588522621661" y="327.64096659867931"/>
      <point x="578.62097027004313" y="218.01973281807091"/>
      <point x="445.39871089550149" y="221.53648059192355" type="curve" smooth="yes"/>
      <point x="317.1221747435917" y="224.92267314763967"/>
      <point x="292.23602771817724" y="317.66763481034798"/>
      <point x="298.57341182033849" y="430.25896113879423" type="curve"/>
      <point x="4.8004340300282564" y="430.97246113550204" type="line"/>
      <point x="-4.2622432925213047" y="154.00534192298846"/>
      <point x="149.63740609463508" y="-15.924374743846018"/>
      <point x="429.44760296040477" y="-20.780878174692798" type="curve" smooth="yes"/>
      <point x="716.60163579495952" y="-25.764844310535601"/>
      <point x="927.57152246551527" y="167.62947740715958"/>
      <point x="965.7973322771727" y="447.97964943120064" type="curve" smooth="yes"/>
      <point x="1137.3082367277962" y="1455.9318016286475" type="line"/>
      <point x="844.20782632920987" y="1455.9469908514682" type="line"/>
    </contour>
  </outline>
</glyph>
<glyph name="K" format="1">
  <advance width="1261.97"/>
  <unicode hex="004B"/>
  <outline>
    <contour>
      <point x="539.48324982819622" y="62" type="move" name="bottom"/>
    </contour>
    <contour>
      <point x="1066.1507618901817" y="0" type="move" name="right"/>
    </contour>
    <contour>
      <point x="356.48157176124369" y="1226" type="move" name="cross"/>
    </contour>
    <contour>
      <point x="751.87206351636382" y="1600" type="move" name="top"/>
    </contour>
    <contour>
      <point x="1434.7520635163637" y="1600" type="move" name="top_dd"/>
    </contour>
    <contour>
      <point x="1087.9784620390217" y="-407" type="move" name="bottom_dd"/>
    </contour>
    <contour>
      <point x="1434.7520635163637" y="1600" type="move" name="top0315"/>
    </contour>
    <contour>
      <point x="837.23870275159527" y="0.0" type="line"/>
      <point x="1170.5045740687419" y="0.0" type="line"/>
      <point x="796.85499671265927" y="795.02443806609449" type="line"/>
      <point x="1423.8046487460183" y="1455.5381378244624" type="line"/>
      <point x="1041.7944812775308" y="1455.6302267259912" type="line"/>
      <point x="603.32610367185316" y="981.40825582772902" type="line"/>
      <point x="455.94409534817771" y="814.79705369064095" type="line"/>
      <point x="567.88683408394195" y="1455.9240571125299" type="line"/>
      <point x="273.84192477066239" y="1455.947321344313" type="line"/>
      <point x="21.185673428637159" y="0.0" type="line"/>
      <point x="315.22976700148831" y="0.0" type="line"/>
      <point x="385.19535103486913" y="403.88639875156395" type="line"/>
      <point x="577.24085207912356" y="581.57393392834376" type="line"/>
    </contour>
  </outline>
</glyph>
<glyph name="L" format="1">
  <advance width="1075.73"/>
  <unicode hex="004C"/>
  <outline>
    <contour>
      <point x="451.17206351636378" y="1600" type="move" name="top"/>
    </contour>
    <contour>
      <point x="481.02858252534543" y="10" type="move" name="bottom"/>
    </contour>
    <contour>
      <point x="784.22144637000736" y="1456" type="move" name="caron"/>
    </contour>
    <contour>
      <point x="621.28822079931274" y="833" type="move" name="dot"/>
    </contour>
    <contour>
      <point x="1248.5120635163639" y="1600" type="move" name="top_dd"/>
    </contour>
    <contour>
      <point x="901.73846203902167" y="-407" type="move" name="bottom_dd"/>
    </contour>
    <contour>
      <point x="1248.5120635163639" y="1600" type="move" name="top0315"/>
    </contour>
    <contour>
      <point x="974.60072117770187" y="241.9106117246086" type="line"/>
      <point x="357.18696851783648" y="242.05556653871795" type="line"/>
      <point x="567.90262513975824" y="1455.9303983756033" type="line"/>
      <point x="273.83768353564022" y="1455.9470944648826" type="line"/>
      <point x="21.204872195328676" y="0.0" type="line"/>
      <point x="932.06537478799328" y="0.0" type="line"/>
    </contour>
  </outline>
</glyph>
<glyph name="M" format="1">
  <advance width="1740.18"/>
  <unicode hex="004D"/>
  <outline>
    <contour>
      <point x="1038.0220635163637" y="1600" type="move" name="top"/>
    </contour>
    <contour>
      <point x="1502.6507618901817" y="0" type="move" name="right"/>
    </contour>
    <contour>
      <point x="767.1785825253454" y="10" type="move" name="bottom"/>
    </contour>
    <contour>
      <point x="1912.9620635163637" y="1600" type="move" name="top_dd"/>
    </contour>
    <contour>
      <point x="1566.1884620390217" y="-407" type="move" name="bottom_dd"/>
    </contour>
    <contour>
      <point x="1912.9620635163637" y="1600" type="move" name="top0315"/>
    </contour>
    <contour>
      <point x="828.6508795737725" y="402.97526104328176" type="line"/>
      <point x="650.89878530129056" y="1456.0361779425191" type="line"/>
      <point x="273.82510303392979" y="1455.9388102898279" type="line"/>
      <point x="21.186661189524841" y="0.0" type="line"/>
      <point x="315.21933254641556" y="0.0" type="line"/>
      <point x="381.48573201342424" y="381.05250312900642" type="line"/>
      <point x="476.04169334646906" y="1098.2002778408339" type="line"/>
      <point x="670.6089217665409" y="0.0" type="line"/>
      <point x="872.25603356443651" y="0.0" type="line"/>
      <point x="1428.572835242966" y="1060.9415774287429" type="line"/>
      <point x="1287.2735889165531" y="414.77755268709853" type="line"/>
      <point x="1215.2357275284367" y="0.0" type="line"/>
      <point x="1509.3116416283328" y="0.0" type="line"/>
      <point x="1761.9565579518819" y="1455.9359762491729" type="line"/>
      <point x="1372.7405892816407" y="1455.7471629456409" type="line"/>
    </contour>
  </outline>
</glyph>
<glyph name="O" format="1">
  <advance width="1371.58"/>
  <unicode hex="004F"/>
  <outline>
    <contour>
      <point x="857.60206351636373" y="1600" type="move" name="top"/>
    </contour>
    <contour>
      <point x="586.00076189018171" y="0" type="move" name="bottom"/>
    </contour>
    <contour>
      <point x="258.13588224297467" y="1454" type="move" name="tonos"/>
    </contour>
    <contour>
      <point x="1544.3620635163638" y="1600" type="move" name="top_dd"/>
    </contour>
    <contour>
      <point x="1197.5884620390216" y="-407" type="move" name="bottom_dd"/>
    </contour>
    <contour>
      <point x="1544.3620635163638" y="1600" type="move" name="top0315"/>
    </contour>
    <contour>
      <point x="1314.5042430856395" y="760.22498853552565" type="line" smooth="yes"/>
      <point x="1355.9970608904298" y="1110.0663012151663"/>
      <point x="1213.3181092087113" y="1468.3926496379008"/>
      <point x="815.99035621755456" y="1476.1557670355201" type="curve" smooth="yes"/>
      <point x="406.75361989655664" y="1484.1515659787397"/>
      <point x="159.85612919619007" y="1132.2352242733086"/>
      <point x="109.24897484827666" y="759.62427813485624" type="curve" smooth="yes"/>
      <point x="100.89075080864863" y="694.76405337296956" type="line" smooth="yes"/>
      <point x="59.237309987619597" y="344.7237975891203"/>
      <point x="203.66034647556393" y="-12.390895598637405"/>
      <point x="600.48363379725834" y="-20.169035527223883" type="curve" smooth="yes"/>
      <point x="1009.8681908718434" y="-28.193389115492835"/>
      <point x="1255.7698888200216" y="323.06262172311131"/>
      <point x="1306.2441240632497" y="695.84939322854916" type="curve" smooth="yes"/>
    </contour>
    <contour>
      <point x="1008.4280457203683" y="694.92940307688639" type="line" smooth="yes"/>
      <point x="978.56874879277575" y="481.67312006010491"/>
      <point x="870.94110016678269" y="216.13523314730276"/>
      <point x="613.92077976597125" y="226.15310285928587" type="curve" smooth="yes"/>
      <point x="373.12387225708233" y="235.53863332127685"/>
      <point x="375.86362813411006" y="514.85656516532345"/>
      <point x="397.77091357838145" y="693.20722162313984" type="curve" smooth="yes"/>
      <point x="406.37630741556666" y="759.3855271821941" type="line" smooth="yes"/>
      <point x="436.43119405655625" y="974.28934005068652"/>
      <point x="544.30878409186698" y="1238.629524788194"/>
      <point x="802.62098840288843" y="1228.7575501662761" type="curve" smooth="yes"/>
      <point x="1043.5223148815214" y="1219.5509709118171"/>
      <point x="1039.3620145778748" y="941.79147833942352"/>
      <point x="1017.3791225701777" y="763.44850149347883" type="curve" smooth="yes"/>
    </contour>
  </outline>
</glyph>
<glyph name="P" format="1">
  <advance width="1282.34"/>
  <unicode hex="0050"/>
  <outline>
    <contour>
      <point x="118.45588224297465" y="1454" type="move" name="tonos"/>
    </contour>
    <contour>
      <point x="756.85544827856006" y="1612" type="move" name="top"/>
    </contour>
    <contour>
      <point x="412.15858252534542" y="10" type="move" name="bottom"/>
    </contour>
    <contour>
      <point x="1455.1220635163636" y="1600" type="move" name="top_dd"/>
    </contour>
    <contour>
      <point x="1108.3484620390216" y="-407" type="move" name="bottom_dd"/>
    </contour>
    <contour>
      <point x="1457.19544827856" y="1612" type="move" name="top0315"/>
    </contour>
    <contour>
      <point x="681.63197366157385" y="513.03079968682175" type="line" smooth="yes"/>
      <point x="978.15085598403357" y="512.54752523546472"/>
      <point x="1248.7822064578475" y="663.72022363631208"/>
      <point x="1274.0521429221615" y="982.83196725231016" type="curve" smooth="yes"/>
      <point x="1297.1383961438942" y="1274.3679008527492"/>
      <point x="1086.6277568156643" y="1448.8380032906423"/>
      <point x="808.19872481575692" y="1455.0585105401296" type="curve" smooth="yes"/>
      <point x="273.8348241673765" y="1456.0086180627809" type="line"/>
      <point x="21.185445476495488" y="0.0" type="line"/>
      <point x="315.22689405379589" y="0.0" type="line"/>
      <point x="404.70134073648524" y="513.97758586451914" type="line"/>
    </contour>
    <contour>
      <point x="525.77389679229111" y="1213.1025026949553" type="line"/>
      <point x="802.03370584717504" y="1211.8007740209177" type="line" smooth="yes"/>
      <point x="936.7974629916929" y="1205.8189901359879"/>
      <point x="996.93676318238215" y="1110.2420707150502"/>
      <point x="978.222273970885" y="981.18109275159395" type="curve" smooth="yes"/>
      <point x="956.16097126449961" y="829.03944088728633"/>
      <point x="835.47585357717719" y="755.40471457687102"/>
      <point x="689.1744048670671" y="754.46026387872644" type="curve" smooth="yes"/>
      <point x="446.24255462037888" y="756.13917694977135" type="line"/>
    </contour>
  </outline>
</glyph>
<glyph name="Q" format="1">
  <advance width="1371.58"/>
  <unicode hex="0051"/>
  <outline>
    <contour>
      <point x="851.78206351636379" y="1600" type="move" name="top"/>
    </contour>
    <contour>
      <point x="571.66294125501804" y="-10" type="move" name="bottom"/>
    </contour>
    <contour>
      <point x="1544.3620635163638" y="1600" type="move" name="top_dd"/>
    </contour>
    <contour>
      <point x="1197.5884620390216" y="-407" type="move" name="bottom_dd"/>
    </contour>
    <contour>
      <point x="1544.3620635163638" y="1600" type="move" name="top0315"/>
    </contour>
    <contour>
      <point x="1157.1879978558109" y="-103.55206668323387" type="line"/>
      <point x="957.14725891076341" y="95.082971472317126" type="line"/>
      <point x="1167.7563960421678" y="230.84551074860866"/>
      <point x="1270.6797645793329" y="452.84770626655813"/>
      <point x="1303.5758612390575" y="696.28993145968411" type="curve" smooth="yes"/>
      <point x="1312.082142281404" y="762.99773732173696" type="line" smooth="yes"/>
      <point x="1353.3486329787268" y="1112.4760129283572"/>
      <point x="1210.7828270803013" y="1468.4950245396385"/>
      <point x="814.08901034213034" y="1476.2314560437208" type="curve" smooth="yes"/>
      <point x="404.68031471623209" y="1484.2158565996185"/>
      <point x="157.95096308828238" y="1132.3646779507103"/>
      <point x="107.25606106621946" y="759.63874953118068" type="curve" smooth="yes"/>
      <point x="98.874927865541835" y="694.77929702999916" type="line" smooth="yes"/>
      <point x="57.351313584263465" y="347.21688343001182"/>
      <point x="200.70558384949663" y="-12.856574910025198"/>
      <point x="596.32046745292473" y="-19.035591969822843" type="curve" smooth="yes"/>
      <point x="632.44049331292138" y="-19.599742271642572"/>
      <point x="668.20814468133369" y="-16.643243643227102"/>
      <point x="704.00750796124873" y="-12.168459941084359" type="curve"/>
      <point x="958.12046546544707" y="-259.90740727013593" type="line"/>
    </contour>
    <contour>
      <point x="1006.5616649888948" y="694.91939073732135" type="line" smooth="yes"/>
      <point x="976.69228116235263" y="481.69232922479699"/>
      <point x="869.16302036732895" y="216.06214089675004"/>
      <point x="612.08828990372899" y="226.17755359360109" type="curve" smooth="yes"/>
      <point x="371.4589501829808" y="235.64587073957895"/>
      <point x="374.00476261546572" y="516.10750463593831"/>
      <point x="396.19857358961235" y="694.18350059456463" type="curve" smooth="yes"/>
      <point x="405.2202531841894" y="762.1021249555381" type="line" smooth="yes"/>
      <point x="435.6289830405899" y="975.95893983866313"/>
      <point x="543.7102300939888" y="1238.935293131296"/>
      <point x="800.79661241244401" y="1228.9162963054619" type="curve" smooth="yes"/>
      <point x="1041.7145677953908" y="1219.5274044921325"/>
      <point x="1037.5899226254746" y="941.8755850172987"/>
      <point x="1015.5302473399017" y="763.4297203956794" type="curve" smooth="yes"/>
    </contour>
  </outline>
</glyph>
<glyph name="R" format="1">
  <advance width="1267.79"/>
  <unicode hex="0052"/>
  <outline>
    <contour>
      <point x="752.84206351636374" y="1600" type="move" name="top"/>
    </contour>
    <contour>
      <point x="491.69858252534539" y="10" type="move" name="bottom"/>
    </contour>
    <contour>
      <point x="1440.5720635163639" y="1600" type="move" name="top_dd"/>
    </contour>
    <contour>
      <point x="1093.7984620390216" y="-407" type="move" name="bottom_dd"/>
    </contour>
    <contour>
      <point x="1440.5720635163639" y="1600" type="move" name="top0315"/>
    </contour>
    <contour>
      <point x="817.10171365416522" y="0.0" type="line"/>
      <point x="1130.0909620338309" y="0.0" type="line"/>
      <point x="1130.1777555986184" y="16.377943063702357" type="line"/>
      <point x="925.64854052888654" y="608.30438596971464" type="line"/>
      <point x="1114.8159758979214" y="682.06794681846645"/>
      <point x="1230.2523811012359" y="817.17239903013615"/>
      <point x="1245.3898308254531" y="1024.3263943232748" type="curve" smooth="yes"/>
      <point x="1266.7261747176419" y="1316.3114355778907"/>
      <point x="1049.7375709925891" y="1449.6852567137878"/>
      <point x="781.92668929994102" y="1455.0990530696918" type="curve" smooth="yes"/>
      <point x="273.83249226296908" y="1456.0020673712734" type="line"/>
      <point x="21.184112233689063" y="0.0" type="line"/>
      <point x="315.2314253704011" y="0.0" type="line"/>
      <point x="408.16454513091924" y="533.91648914486962" type="line"/>
      <point x="645.57080944850861" y="534.04739156433152" type="line"/>
    </contour>
    <contour>
      <point x="525.77544619802597" y="1213.1093407492315" type="line"/>
      <point x="775.91902996626834" y="1212.0501151889489" type="line" smooth="yes"/>
      <point x="905.23901518931257" y="1207.1046941831896"/>
      <point x="967.80896469531831" y="1130.0988675016897"/>
      <point x="949.12425282877689" y="1001.486609452998" type="curve" smooth="yes"/>
      <point x="927.56632307454231" y="853.09716441627324"/>
      <point x="810.64955054602569" y="775.64621555432132"/>
      <point x="666.72039741616379" y="774.39134801900445" type="curve" smooth="yes"/>
      <point x="449.69584045875183" y="776.11107095961188" type="line"/>
    </contour>
  </outline>
</glyph>
<glyph name="T" format="1">
  <advance width="1228.99"/>
  <unicode hex="0054"/>
  <outline>
    <contour>
      <point x="781.94206351636376" y="1600" type="move" name="top"/>
    </contour>
    <contour>
      <point x="507.6702363347963" y="7" type="move" name="bottom"/>
    </contour>
    <contour>
      <point x="622.86076189018172" y="0" type="move" name="right"/>
    </contour>
    <contour>
      <point x="632.47656698986179" y="836" type="move" name="cross"/>
    </contour>
    <contour>
      <point x="1401.7720635163637" y="1600" type="move" name="top_dd"/>
    </contour>
    <contour>
      <point x="1054.9984620390217" y="-407" type="move" name="bottom_dd"/>
    </contour>
    <contour>
      <point x="1401.7720635163637" y="1600" type="move" name="top0315"/>
    </contour>
    <contour>
      <point x="144.89967306698077" y="1213.0928929137767" type="line"/>
      <point x="572.18981770313826" y="1212.9436277883965" type="line"/>
      <point x="361.65086192620578" y="0.0" type="line"/>
      <point x="654.7479796708302" y="0.0" type="line"/>
      <point x="865.27533983108538" y="1212.9245370635526" type="line"/>
      <point x="1296.45143029361" y="1213.0773275769861" type="line"/>
      <point x="1339.1589371884129" y="1455.9058794499574" type="line"/>
      <point x="187.61189181977392" y="1455.9210409706418" type="line"/>
    </contour>
  </outline>
</glyph>
<glyph name="U" format="1">
  <advance width="1307.56"/>
  <unicode hex="0055"/>
  <outline>
    <contour>
      <point x="823.6520635163638" y="1600" type="move" name="top"/>
    </contour>
    <contour>
      <point x="547.20076189018175" y="0" type="move" name="bottom"/>
    </contour>
    <contour>
      <point x="708.22076189018173" y="0" type="move" name="right"/>
    </contour>
    <contour>
      <point x="890.68994220929449" y="68" type="move" name="ogonek"/>
    </contour>
    <contour>
      <point x="1480.3420635163639" y="1600" type="move" name="top_dd"/>
    </contour>
    <contour>
      <point x="1133.5684620390216" y="-407" type="move" name="bottom_dd"/>
    </contour>
    <contour>
      <point x="1480.3420635163639" y="1600" type="move" name="top0315"/>
    </contour>
    <contour>
      <point x="1051.8019121568557" y="1455.946585088569" type="line"/>
      <point x="887.78456128215907" y="495.61908705447348" type="line" smooth="yes"/>
      <point x="861.33107855861101" y="330.3663857939851"/>
      <point x="758.13024882611785" y="215.64103655058804"/>
      <point x="583.2045631621379" y="221.52443161840537" type="curve" smooth="yes"/>
      <point x="417.89542068143089" y="227.08438692082083"/>
      <point x="371.6634408344928" y="345.06270842481666"/>
      <point x="390.79195604375553" y="494.91183061980985" type="curve" smooth="yes"/>
      <point x="554.15057557249656" y="1455.9129953782231" type="line"/>
      <point x="260.28307442153283" y="1455.9471045051994" type="line"/>
      <point x="97.190845564003311" y="495.72532345359753" type="line"/>
      <point x="61.678185062647771" y="184.0669580456775"/>
      <point x="263.33488787773371" y="-16.392848265174951"/>
      <point x="569.59115371863948" y="-21.326189722824616" type="curve" smooth="yes"/>
      <point x="895.80906194088789" y="-26.581084104958151"/>
      <point x="1137.2046885216791" y="173.50551653610211"/>
      <point x="1182.4200275667181" y="496.88098612937461" type="curve" smooth="yes"/>
      <point x="1345.8745081092343" y="1455.9322979846372" type="line"/>
    </contour>
  </outline>
</glyph>
<glyph name="V" format="1">
  <advance width="1298.83"/>
  <unicode hex="0056"/>
  <outline>
    <contour>
      <point x="806.59993317227827" y="1612" type="move" name="top"/>
    </contour>
    <contour>
      <point x="557.00780575924477" y="10" type="move" name="bottom"/>
    </contour>
    <contour>
      <point x="1454.6303292216189" y="1600" type="move" name="top_dd"/>
    </contour>
    <contour>
      <point x="1141.9390684738298" y="-407" type="move" name="bottom_dd"/>
    </contour>
    <contour>
      <point x="1456.4999331722784" y="1612" type="move" name="top0315"/>
    </contour>
    <contour>
      <point x="1433.4672352114533" y="1455.732499533656" type="line"/>
      <point x="1097.4193866638745" y="1455.8093930988689" type="line"/>
      <point x="607.23808505779289" y="365.34221589014214" type="line"/>
      <point x="460.0129981923277" y="1456.0241299480053" type="line"/>
      <point x="146.01031022333171" y="1456.0216424433718" type="line"/>
      <point x="408.42745591372523" y="0.0" type="line"/>
      <point x="712.88819533839262" y="0.0" type="line"/>
    </contour>
  </outline>
</glyph>
<glyph name="W" format="1">
  <advance width="1738.24"/>
  <unicode hex="0057"/>
  <outline>
    <contour>
      <point x="1032.6803292216191" y="1600" type="move" name="top"/>
    </contour>
    <contour>
      <point x="780.1078057592448" y="10" type="move" name="bottom"/>
    </contour>
    <contour>
      <point x="1894.040329221619" y="1600" type="move" name="top_dd"/>
    </contour>
    <contour>
      <point x="1581.3490684738299" y="-407" type="move" name="bottom_dd"/>
    </contour>
    <contour>
      <point x="1894.040329221619" y="1600" type="move" name="top0315"/>
    </contour>
    <contour>
      <point x="1844.8796225439673" y="1455.8144635102965" type="line"/>
      <point x="1547.2015350529653" y="1455.869848461014" type="line"/>
      <point x="1196.0965956054035" y="426.15366547617941" type="line"/>
      <point x="1125.5561515805587" y="1456.0563718445453" type="line"/>
      <point x="877.09854678551517" y="1455.795770776047" type="line"/>
      <point x="485.22373017439463" y="428.92622365459926" type="line"/>
      <point x="455.83960694031578" y="1456.0027189901639" type="line"/>
      <point x="170.38911649093745" y="1456.0195150267466" type="line"/>
      <point x="257.22705672412451" y="0.0" type="line"/>
      <point x="552.33229266624608" y="0.0" type="line"/>
      <point x="933.24813660035045" y="969.6295864036897" type="line"/>
      <point x="1010.3179548128547" y="0.0" type="line"/>
      <point x="1304.7181463179143" y="0.0" type="line"/>
    </contour>
  </outline>
</glyph>
<glyph name="X" format="1">
  <advance width="1262.94"/>
  <unicode hex="0058"/>
  <outline>
    <contour>
      <point x="540.63840806379619" y="17" type="move" name="bottom"/>
    </contour>
    <contour>
      <point x="1001.6498024670285" y="0" type="move" name="right"/>
    </contour>
    <contour>
      <point x="651.65364674946989" y="742" type="move" name="cross"/>
    </contour>
    <contour>
      <point x="780.40993317227833" y="1612" type="move" name="top"/>
    </contour>
    <contour>
      <point x="1418.740329221619" y="1600" type="move" name="top_dd"/>
    </contour>
    <contour>
      <point x="1106.0490684738299" y="-407" type="move" name="bottom_dd"/>
    </contour>
    <contour>
      <point x="1420.6099331722785" y="1612" type="move" name="top0315"/>
    </contour>
    <contour>
      <point x="494.52018499092435" y="1455.9624727792045" type="line"/>
      <point x="174.13663875026981" y="1456.0084185391363" type="line"/>
      <point x="467.16163593150861" y="748.44987308943632" type="line"/>
      <point x="-80.506431956729287" y="0.0" type="line"/>
      <point x="275.90790902651929" y="0.0" type="line"/>
      <point x="626.47217546298441" y="508.10146099193798" type="line"/>
      <point x="816.58309042402743" y="0.0" type="line"/>
      <point x="1140.7937189968861" y="0.0" type="line"/>
      <point x="839.98145030013848" y="719.51486034471236" type="line"/>
      <point x="1373.9986643355178" y="1455.5999421998927" type="line"/>
      <point x="1021.6895594139168" y="1455.6999952453166" type="line"/>
      <point x="680.22101940632126" y="956.87430860644997" type="line"/>
    </contour>
  </outline>
</glyph>
<glyph name="Z" format="1">
  <advance width="1204.74"/>
  <unicode hex="005A"/>
  <outline>
    <contour>
      <point x="782.91206351636379" y="1600" type="move" name="top"/>
    </contour>
    <contour>
      <point x="507.21858252534537" y="10" type="move" name="bottom"/>
    </contour>
    <contour>
      <point x="1377.5220635163637" y="1600" type="move" name="top_dd"/>
    </contour>
    <contour>
      <point x="1030.7484620390217" y="-407" type="move" name="bottom_dd"/>
    </contour>
    <contour>
      <point x="1377.5220635163637" y="1600" type="move" name="top0315"/>
    </contour>
    <contour>
      <point x="176.91590721936109" y="1213.08986259432" type="line"/>
      <point x="871.64747112284397" y="1210.7195990938067" type="line"/>
      <point x="0.14661249758657391" y="190.98661898323408" type="line"/>
      <point x="-33.096659799365753" y="0.0" type="line"/>
      <point x="1043.6118097070041" y="0.0" type="line"/>
      <point x="1086.1448354497602" y="241.91011232092114" type="line"/>
      <point x="379.03101066806767" y="244.27266333503374" type="line"/>
      <point x="1248.3127850558044" y="1269.0718863394154" type="line"/>
      <point x="1280.8024957239593" y="1455.8372660204593" type="line"/>
      <point x="219.62504198104148" y="1455.92013907622" type="line"/>
    </contour>
  </outline>
</glyph>
<glyph name="backslash" format="1">
  <advance width="839.05"/>
  <unicode hex="005C"/>
  <outline>
    <contour>
      <point x="469.96148281715841" y="-125.00003446973597" type="line"/>
      <point x="745.10844949850321" y="-125.04875045320087" type="line"/>
      <point x="429.16930352325835" y="1455.979558266145" type="line"/>
      <point x="154.08782617352466" y="1456.0563338918053" type="line"/>
    </contour>
  </outline>
</glyph>
<glyph name="bracketright" format="1">
  <advance width="552.9"/>
  <unicode hex="005D"/>
  <outline>
    <contour>
      <point x="147.74604579004495" y="1472.0775020700369" type="line"/>
      <point x="287.63944350590998" y="1471.9516407821627" type="line"/>
      <point x="39.4653264173309" y="-116.94275779073051" type="line"/>
      <point x="-100.00276733152194" y="-117.07204461676426" type="line"/>
      <point x="-135.10805344097653" y="-338.93546746022525" type="line"/>
      <point x="287.08422406287002" y="-338.95201011076443" type="line"/>
      <point x="605.01502723368844" y="1694.9364882494247" type="line"/>
      <point x="183.01053713167602" y="1694.9442553537422" type="line"/>
    </contour>
  </outline>
</glyph>
<glyph name="asciicircum" format="1">
  <advance width="869.12"/>
  <unicode hex="005E"/>
  <outline>
    <contour>
      <point x="58.151845521062981" y="729.30733349654918" type="line"/>
      <point x="295.56385556328934" y="729.23832400482149" type="line"/>
      <point x="543.59905351231168" y="1181.6375684235438" type="line"/>
      <point x="632.42988263892312" y="729.01803579826026" type="line"/>
      <point x="843.26400165428015" y="728.94254863965239" type="line"/>
      <point x="680.10072370381181" y="1456.1264013802695" type="line"/>
      <point x="474.6776967550004" y="1455.7186622593315" type="line"/>
    </contour>
  </outline>
</glyph>
<glyph name="grave" format="1">
  <advance width="657.66"/>
  <unicode hex="0060"/>
  <outline>
    <contour>
      <point x="516.84222716291708" y="1290" type="move" name="_top"/>
    </contour>
    <contour>
      <point x="575.26735062102409" y="1665" type="move" name="mkmktop_acc"/>
    </contour>
    <contour>
      <point x="495.77824591813248" y="1536.1013684409297" type="line"/>
      <point x="203.89872404900331" y="1534.2693035632394" type="line"/>
      <point x="426.97395576529061" y="1227.51734187847" type="line"/>
      <point x="638.39615996805423" y="1227.0005028969981" type="line"/>
    </contour>
  </outline>
</glyph>
<glyph name="a" format="1">
  <advance width="1065.06"/>
  <unicode hex="0061"/>
  <outline>
    <contour>
      <point x="653.68962382629104" y="1290" type="move" name="top"/>
    </contour>
    <contour>
      <point x="360.81527490644356" y="16" type="move" name="bottom"/>
    </contour>
    <contour>
      <point x="848.87076189018171" y="0" type="move" name="ogonek"/>
    </contour>
    <contour>
      <point x="791.42962382629105" y="1290" type="move" name="rhalfring"/>
    </contour>
    <contour>
      <point x="1237.8420635163639" y="1600" type="move" name="top_dd"/>
    </contour>
    <contour>
      <point x="891.0684620390216" y="-407" type="move" name="bottom_dd"/>
    </contour>
    <contour>
      <point x="845.4702314298836" y="654" type="move" name="rhotichook"/>
    </contour>
    <contour>
      <point x="1184.2796238262908" y="1290" type="move" name="top0315"/>
    </contour>
    <contour>
      <point x="626.83937235529515" y="0.0" type="curve"/>
      <point x="903.69251953829803" y="0.0" type="line"/>
      <point x="904.79171970407242" y="19.249894561275813" type="line"/>
      <point x="872.5385421840615" y="94.762998651982812"/>
      <point x="889.0388663381126" y="185.18954735769512"/>
      <point x="901.34070041499444" y="263.51364470465552" type="curve" smooth="yes"/>
      <point x="975.32040370752679" y="722.12785501561711" type="line"/>
      <point x="998.3220373086707" y="960.38061608898954"/>
      <point x="827.06058747439238" y="1098.2134869724141"/>
      <point x="600.71119180589119" y="1102.5495088002156" type="curve" smooth="yes"/>
      <point x="387.37172550441028" y="1106.6363082364708"/>
      <point x="135.44013150354905" y="998.13212040363578"/>
      <point x="123.78262067453225" y="757.12205493390672" type="curve"/>
      <point x="407.42824923338787" y="758.32377117644319" type="line"/>
      <point x="424.37591511583099" y="843.77298476837404"/>
      <point x="489.24618995233362" y="891.18409156981761"/>
      <point x="576.7672040736951" y="888.83388867015299" type="curve" smooth="yes"/>
      <point x="675.13839085921325" y="886.19232594664311"/>
      <point x="705.80146348510812" y="815.37000656530427"/>
      <point x="690.6543046383656" y="726.43838449150542" type="curve" smooth="yes"/>
      <point x="676.25114020868011" y="659.97764772919027" type="line"/>
      <point x="544.03983684816649" y="661.56829977576785" type="line" smooth="yes"/>
      <point x="302.92636944829133" y="662.37477545895672"/>
      <point x="27.346121459335119" y="579.54569473617539"/>
      <point x="16.749648734898983" y="295.80410326779082" type="curve" smooth="yes"/>
      <point x="9.8103704941198355" y="109.99115372467952"/>
      <point x="159.25216549117275" y="-17.664278335859148"/>
      <point x="338.59171787757805" y="-20.28902467398505" type="curve" smooth="yes"/>
      <point x="448.34357565244591" y="-21.895311647292655"/>
      <point x="539.60957241570031" y="22.182458071321975"/>
      <point x="615.9703907742055" y="98.464743821201509" type="curve"/>
      <point x="614.88964760323108" y="64.030965674202236"/>
      <point x="616.63667174392936" y="33.00002500865201"/>
    </contour>
    <contour>
      <point x="408.61683131346649" y="199.09232624093852" type="curve" smooth="yes"/>
      <point x="338.12213367379707" y="200.92591936295756"/>
      <point x="293.45386115184999" y="244.93696897257126"/>
      <point x="303.53918546395266" y="316.64562513938489" type="curve" smooth="yes"/>
      <point x="321.53347435356699" y="444.58858810421657"/>
      <point x="445.97660517879007" y="492.40910549575915"/>
      <point x="560.54210613455098" y="493.98846998372227" type="curve" smooth="yes"/>
      <point x="657.0793034558119" y="493.08184835067266" type="line"/>
      <point x="621.66097717183777" y="304.55308591477547" type="line"/>
      <point x="568.28167773935752" y="241.36017523619435"/>
      <point x="493.90485137249379" y="196.87395333904735"/>
    </contour>
  </outline>
</glyph>
<glyph name="b" format="1">
  <advance width="1118.41"/>
  <unicode hex="0062"/>
  <outline>
    <contour>
      <point x="819.32040970691287" y="1603" type="move" name="top"/>
    </contour>
    <contour>
      <point x="533.83294125501811" y="-10" type="move" name="bottom"/>
    </contour>
    <contour>
      <point x="1291.1920635163638" y="1600" type="move" name="top_dd"/>
    </contour>
    <contour>
      <point x="944.41846203902173" y="-407" type="move" name="bottom_dd"/>
    </contour>
    <contour>
      <point x="1291.710409706913" y="1603" type="move" name="top0315"/>
    </contour>
    <contour>
      <point x="1043.0606925102572" y="532.2605029976047" type="curve" smooth="yes"/>
      <point x="1045.5272915817432" y="554.10602773623668" type="line" smooth="yes"/>
      <point x="1070.9918655276197" y="799.19153546657935"/>
      <point x="1007.5399990515529" y="1096.2047321964048"/>
      <point x="708.86571619334097" y="1101.4231025110996" type="curve" smooth="yes"/>
      <point x="602.60422960925837" y="1103.2796794546489"/>
      <point x="516.26966603885467" y="1060.1271568680581"/>
      <point x="444.69418841183335" y="983.85071233615759" type="curve"/>
      <point x="552.76446853496998" y="1535.9246406774346" type="line"/>
      <point x="269.27835097893905" y="1535.9389943279937" type="line"/>
      <point x="2.8313099378122928" y="0.0" type="line"/>
      <point x="260.98700893683542" y="0.0" type="line"/>
      <point x="302.12891147655682" y="117.28160371195381" type="line"/>
      <point x="362.23402221618318" y="27.632246685222768"/>
      <point x="454.47346573585247" y="-17.669447752119389"/>
      <point x="561.84670291396094" y="-20.417855712575737" type="curve" smooth="yes"/>
      <point x="873.28435351882922" y="-28.389653346732914"/>
      <point x="1010.688766880545" y="263.92244518956221"/>
    </contour>
    <contour>
      <point x="625.89618430783617" y="868.99658352273275" type="curve" smooth="yes"/>
      <point x="790.16083017541473" y="863.5581915887841"/>
      <point x="775.84161900766196" y="671.81081706799932"/>
      <point x="762.87761997631242" y="553.80567296763218" type="curve" smooth="yes"/>
      <point x="760.62144139910822" y="533.27391508440269" type="line" smooth="yes"/>
      <point x="742.01966321388204" y="384.04143613530448"/>
      <point x="684.0729505320196" y="208.3390529661585"/>
      <point x="503.14528407574846" y="213.51370705538542" type="curve" smooth="yes"/>
      <point x="423.89487734325678" y="215.78032248962748"/>
      <point x="367.70767728302451" y="250.16815467886406"/>
      <point x="341.86582444121484" y="325.36052694299457" type="curve"/>
      <point x="418.58381765566241" y="755.99874159847604" type="line"/>
      <point x="469.39090010858251" y="826.99375048618208"/>
      <point x="535.44525204220395" y="871.99118785681515"/>
    </contour>
  </outline>
</glyph>
<glyph name="d" format="1">
  <advance width="1120.35"/>
  <unicode hex="0064"/>
  <outline>
    <contour>
      <point x="1282.0740114513164" y="1536" type="move" name="caron"/>
    </contour>
    <contour>
      <point x="940.66413684255281" y="1306" type="move" name="cross"/>
    </contour>
    <contour>
      <point x="468.6307618901817" y="0" type="move" name="bottom"/>
    </contour>
    <contour>
      <point x="656.36040970691283" y="1603" type="move" name="top"/>
    </contour>
    <contour>
      <point x="1293.1320635163638" y="1600" type="move" name="top_dd"/>
    </contour>
    <contour>
      <point x="946.35846203902156" y="-407" type="move" name="bottom_dd"/>
    </contour>
    <contour>
      <point x="1293.6504097069128" y="1603" type="move" name="top0315"/>
    </contour>
    <contour>
      <point x="655.18353629143235" y="0.0" type="line"/>
      <point x="907.09265268125102" y="0.0" type="line"/>
      <point x="1173.4693146889801" y="1535.9360121956845" type="line"/>
      <point x="890.12658679322919" y="1535.9383314069744" type="line"/>
      <point x="784.3637947824202" y="982.93425803719458" type="line"/>
      <point x="723.19242092142611" y="1059.8456147252546"/>
      <point x="638.66501190354802" y="1099.7409709952396"/>
      <point x="540.37784444786416" y="1102.0696396133819" type="curve" smooth="yes"/>
      <point x="231.40041910823351" y="1109.3900869589343"/>
      <point x="86.693503381273132" y="814.41236930821992"/>
      <point x="54.024889824490472" y="547.36781984921379" type="curve" smooth="yes"/>
      <point x="51.477419804859451" y="525.01711870064037" type="line" smooth="yes"/>
      <point x="26.848794320675864" y="287.1587134638786"/>
      <point x="100.15687004571765" y="-13.892868164823049"/>
      <point x="389.0577592910239" y="-20.175529628339362" type="curve" smooth="yes"/>
      <point x="505.29129212042596" y="-22.703233642623587"/>
      <point x="596.86505466625897" y="30.722550127185102"/>
      <point x="671.31234782420688" y="116.24403038076345" type="curve"/>
    </contour>
    <contour>
      <point x="335.68592477328161" y="526.09295997199479" type="curve" smooth="yes"/>
      <point x="337.96868881533771" y="546.63200774194763" type="line" smooth="yes"/>
      <point x="356.62376679557514" y="690.92356092466878"/>
      <point x="425.16269846005753" y="875.6549341062788"/>
      <point x="600.45092071140459" y="869.62721525163033" type="curve" smooth="yes"/>
      <point x="677.34708768875009" y="866.98295045399368"/>
      <point x="730.13796994834206" y="829.97080350494684"/>
      <point x="756.24183521937925" y="758.44873038099593" type="curve"/>
      <point x="678.67973256725168" y="325.48914238236478" type="line"/>
      <point x="627.37170133323013" y="258.01295405838499"/>
      <point x="561.85411044670263" y="211.40054014506524"/>
      <point x="473.48254693521721" y="214.64812061529921" type="curve" smooth="yes"/>
      <point x="314.82193651802595" y="220.4787643123444"/>
      <point x="323.20919696633109" y="411.55770770110354"/>
    </contour>
  </outline>
</glyph>
<glyph name="e" format="1">
  <advance width="1073.79"/>
  <unicode hex="0065"/>
  <outline>
    <contour>
      <point x="636.30802749213865" y="1291" type="move" name="top"/>
    </contour>
    <contour>
      <point x="458.44980246702858" y="0" type="move" name="bottom"/>
    </contour>
    <contour>
      <point x="741.8254130021204" y="32" type="move" name="ogonek"/>
    </contour>
    <contour>
      <point x="1229.590329221619" y="1600" type="move" name="top_dd"/>
    </contour>
    <contour>
      <point x="916.89906847382974" y="-407" type="move" name="bottom_dd"/>
    </contour>
    <contour>
      <point x="897.90321777796737" y="654" type="move" name="rhotichook"/>
    </contour>
    <contour>
      <point x="1181.4480274921386" y="1291" type="move" name="top0315"/>
    </contour>
    <contour>
      <point x="937.87260549739324" y="173.59714403858879" type="curve"/>
      <point x="807.58300515333713" y="332.90891064056541" type="line"/>
      <point x="735.28959315782208" y="257.96009041778711"/>
      <point x="644.1734636710911" y="210.75218524652527"/>
      <point x="538.02841496466544" y="213.80115786793536" type="curve" smooth="yes"/>
      <point x="401.22920874511283" y="217.73065848503575"/>
      <point x="332.52826854839418" y="317.32947254581285"/>
      <point x="337.42998733490407" y="447.12753871691075" type="curve"/>
      <point x="1000.6821834575427" y="447.08259654085532" type="line"/>
      <point x="1017.2423807963186" y="570.19297912853312" type="line" smooth="yes"/>
      <point x="1047.80545039147" y="847.39492805234579"/>
      <point x="921.81476617893031" y="1096.0759103133485"/>
      <point x="618.78734634808779" y="1102.2763315194052" type="curve" smooth="yes"/>
      <point x="296.64186605314603" y="1108.8679385382391"/>
      <point x="91.24832088483133" y="841.5268498256255"/>
      <point x="61.441087524125393" y="541.35992236713923" type="curve" smooth="yes"/>
      <point x="57.800960125677378" y="501.24562107154918" type="line" smooth="yes"/>
      <point x="34.831914958931506" y="211.33482501142919"/>
      <point x="216.24190974184506" y="-15.694742875176869"/>
      <point x="514.48840763736985" y="-20.045315097152343" type="curve" smooth="yes"/>
      <point x="672.58641733168383" y="-22.351517564504139"/>
      <point x="845.92261058499844" y="38.285822307425804"/>
    </contour>
    <contour>
      <point x="604.46703495156612" y="870.25226313503845" type="curve" smooth="yes"/>
      <point x="721.50752669408087" y="866.90473104218813"/>
      <point x="769.34771099162856" y="777.74951270986605"/>
      <point x="751.7992169863121" y="669.16158729594758" type="curve" smooth="yes"/>
      <point x="746.4464870854913" y="643.77530092097049" type="line"/>
      <point x="357.64775567766958" y="643.94458946685347" type="line"/>
      <point x="399.74584012094664" y="756.75194124170253"/>
      <point x="467.37121336836822" y="874.17340748186052"/>
    </contour>
  </outline>
</glyph>
<glyph name="f" format="1">
  <advance width="711.98"/>
  <unicode hex="0066"/>
  <outline>
    <contour>
      <point x="633.21688510580373" y="1688" type="move" name="top"/>
    </contour>
    <contour>
      <point x="218.15858252534537" y="10" type="move" name="bottom"/>
    </contour>
    <contour>
      <point x="884.76206351636381" y="1600" type="move" name="top_dd"/>
    </contour>
    <contour>
      <point x="537.98846203902167" y="-407" type="move" name="bottom_dd"/>
    </contour>
    <contour>
      <point x="899.96688510580384" y="1688" type="move" name="top0315"/>
    </contour>
    <contour>
      <point x="722.20561729419614" y="871.07647657884058" type="line"/>
      <point x="759.16492125926811" y="1081.9142168378321" type="line"/>
      <point x="550.07042258962724" y="1081.9696702162869" type="line"/>
      <point x="565.51137543622531" y="1175.8717484266431" type="line" smooth="yes"/>
      <point x="585.12453282021863" y="1274.6103356047461"/>
      <point x="661.20030866871616" y="1325.858856765841"/>
      <point x="759.92378845957467" y="1324.9630303202309" type="curve" smooth="yes"/>
      <point x="788.51262048477952" y="1324.7036124813183"/>
      <point x="816.39207191768185" y="1320.2735573170469"/>
      <point x="843.96834887117689" y="1313.1817257526013" type="curve"/>
      <point x="869.02990014700868" y="1537.8210635110154" type="line"/>
      <point x="818.18750171176987" y="1549.1161606834523"/>
      <point x="767.37691625463265" y="1558.5126114912305"/>
      <point x="715.11958911647582" y="1559.2930147213058" type="curve" smooth="yes"/>
      <point x="471.18411268787304" y="1562.9359112137254"/>
      <point x="309.29008845807988" y="1415.1620181620069"/>
      <point x="278.96119874485834" y="1176.1288236885894" type="curve" smooth="yes"/>
      <point x="266.99411858796032" y="1082.5934476526859" type="line"/>
      <point x="110.71429118574839" y="1081.8041241546773" type="line"/>
      <point x="74.24561096252792" y="871.06947749344829" type="line"/>
      <point x="230.57383845243885" y="870.92554611384094" type="line"/>
      <point x="79.373060770646291" y="0.0" type="line"/>
      <point x="362.75848955427216" y="0.0" type="line"/>
      <point x="513.99279710145515" y="870.914160270499" type="line"/>
    </contour>
  </outline>
</glyph>
<glyph name="g" format="1">
  <advance width="1134.8999999999999"/>
  <unicode hex="0067"/>
  <outline>
    <contour>
      <point x="656.59962382629101" y="1290" type="move" name="top"/>
    </contour>
    <contour>
      <point x="356.47717949836715" y="-447" type="move" name="bottom"/>
    </contour>
    <contour>
      <point x="1307.6820635163635" y="1600" type="move" name="top_dd"/>
    </contour>
    <contour>
      <point x="960.90846203902152" y="-407" type="move" name="bottom_dd"/>
    </contour>
    <contour>
      <point x="1254.119623826291" y="1290" type="move" name="top0315"/>
    </contour>
    <contour>
      <point x="934.25793720348815" y="37.10610641540714" type="curve" smooth="yes"/>
      <point x="1112.1948831543496" y="1081.836084433653" type="line"/>
      <point x="853.05417539393306" y="1082.9012371610218" type="line"/>
      <point x="816.08148126020137" y="977.7307125841088" type="line"/>
      <point x="754.91986851314391" y="1063.537450965275"/>
      <point x="661.25811742730957" y="1100.1014028657871"/>
      <point x="557.71751427753986" y="1102.4337872602532" type="curve" smooth="yes"/>
      <point x="247.98024422340922" y="1109.4110150634735"/>
      <point x="89.779781696745061" y="819.34294108981157"/>
      <point x="57.418040214417729" y="547.40285901125594" type="curve" smooth="yes"/>
      <point x="54.986169267727419" y="525.23495745646971" type="line" smooth="yes"/>
      <point x="30.765439442159611" y="283.09601172512265"/>
      <point x="115.23477904008161" y="-14.959944869352103"/>
      <point x="405.66784385110924" y="-19.898681185808957" type="curve" smooth="yes"/>
      <point x="511.51529033253632" y="-21.698588604346789"/>
      <point x="598.27230648249872" y="21.226403779591507"/>
      <point x="671.08393274782543" y="95.646027268132286" type="curve"/>
      <point x="655.16271079071498" y="32.812770633997076" type="line" smooth="yes"/>
      <point x="619.18674138282699" y="-112.94662878603012"/>
      <point x="515.58567674223968" y="-205.82533413383098"/>
      <point x="361.13958291331716" y="-202.10337382315953" type="curve" smooth="yes"/>
      <point x="263.58669941200844" y="-199.752469688377"/>
      <point x="182.87477054920507" y="-155.19503153628173"/>
      <point x="123.20760906033958" y="-79.694827301433094" type="curve"/>
      <point x="-16.682907002086409" y="-252.29731731484037" type="line"/>
      <point x="76.300694380339323" y="-363.71911875101733"/>
      <point x="221.20921313500415" y="-422.6523324485218"/>
      <point x="365.26447453133358" y="-426.02507492438832" type="curve" smooth="yes"/>
      <point x="662.06075883381027" y="-432.97391820191558"/>
      <point x="892.97791967870228" y="-261.06724523485889"/>
    </contour>
    <contour>
      <point x="337.39084435674073" y="526.03166326529947" type="curve" smooth="yes"/>
      <point x="339.7887526776592" y="546.47005961758043" type="line" smooth="yes"/>
      <point x="360.17312123222109" y="695.44527212800608"/>
      <point x="441.71141434536162" y="875.01692473082096"/>
      <point x="617.95932094029172" y="869.81239894031285" type="curve" smooth="yes"/>
      <point x="690.67421075626407" y="867.66515914204979"/>
      <point x="747.70524136381357" y="837.72505819777462"/>
      <point x="777.06660131606122" y="770.40184886466875" type="curve"/>
      <point x="693.2967993261168" y="313.90346592177019" type="line"/>
      <point x="639.46333655596709" y="250.91130996744823"/>
      <point x="573.28251850399874" y="212.02747130948779"/>
      <point x="487.99012076480983" y="215.22702828431716" type="curve" smooth="yes"/>
      <point x="328.30910260286521" y="221.2171109757451"/>
      <point x="324.0144119844536" y="406.53062121098338"/>
    </contour>
  </outline>
</glyph>
<glyph name="h" format="1">
  <advance width="1112.59"/>
  <unicode hex="0068"/>
  <outline>
    <contour>
      <point x="693.32959002602558" y="1671" type="move" name="top"/>
    </contour>
    <contour>
      <point x="404.70579065200377" y="1303" type="move" name="cross"/>
    </contour>
    <contour>
      <point x="463.56858252534539" y="10" type="move" name="bottom"/>
    </contour>
    <contour>
      <point x="905.1307618901817" y="0" type="move" name="right"/>
    </contour>
    <contour>
      <point x="1285.3720635163636" y="1600" type="move" name="top_dd"/>
    </contour>
    <contour>
      <point x="938.59846203902157" y="-407" type="move" name="bottom_dd"/>
    </contour>
    <contour>
      <point x="1297.6395900260254" y="1671" type="move" name="top0315"/>
    </contour>
    <contour>
      <point x="613.88410815626844" y="868.44877349298883" type="curve" smooth="yes"/>
      <point x="728.92438110275828" y="865.5996889504097"/>
      <point x="750.99775904477553" y="788.32880349015727"/>
      <point x="738.20837668543982" y="685.58483496890256" type="curve" smooth="yes"/>
      <point x="622.8423667513747" y="0.0" type="line"/>
      <point x="905.94962143213672" y="0.0" type="line"/>
      <point x="1019.6013363940845" y="682.20974075838501" type="line"/>
      <point x="1041.5827990098371" y="897.75976405361234"/>
      <point x="970.46810148324084" y="1098.142743121829"/>
      <point x="727.03722442962635" y="1102.0850150545939" type="curve" smooth="yes"/>
      <point x="608.48389807870751" y="1104.0049417979305"/>
      <point x="511.81701356152803" y="1049.4964562152097"/>
      <point x="434.26202793806669" y="963.2551922302257" type="curve"/>
      <point x="545.94909394217518" y="1535.9305196406242" type="line"/>
      <point x="263.46261740073754" y="1535.9361010834018" type="line"/>
      <point x="-3.0743753411990156" y="0.0" type="line"/>
      <point x="279.33830654323867" y="0.0" type="line"/>
      <point x="415.61170553152317" y="772.2071213983055" type="line"/>
      <point x="468.14413698200212" y="833.20669705484556"/>
      <point x="531.18886773275165" y="870.49680176344589"/>
    </contour>
  </outline>
</glyph>
<glyph name="i" format="1">
  <advance width="526.71"/>
  <unicode hex="0069"/>
  <outline>
    <contour>
      <point x="160.9285825253454" y="10" type="move" name="bottom"/>
    </contour>
    <contour>
      <point x="259.11076189018172" y="0" type="move" name="ogonek"/>
    </contour>
    <contour>
      <point x="435.6520635163638" y="1600" type="move" name="top"/>
    </contour>
    <contour>
      <point x="699.49206351636383" y="1600" type="move" name="top_dd"/>
    </contour>
    <contour>
      <point x="352.71846203902174" y="-407" type="move" name="bottom_dd"/>
    </contour>
    <contour>
      <point x="333.31023142988369" y="654" type="move" name="rhotichook"/>
    </contour>
    <contour>
      <point x="699.49206351636383" y="1600" type="move" name="top0315"/>
    </contour>
    <contour>
      <point x="237.63184412495832" y="1357.029265019195" type="curve" smooth="yes"/>
      <point x="239.7069932442121" y="1268.1891968486143"/>
      <point x="311.51371462217509" y="1209.9117064028198"/>
      <point x="397.81957068695857" y="1211.5729584166847" type="curve" smooth="yes"/>
      <point x="486.45898407208983" y="1213.2791277394629"/>
      <point x="554.93744482922216" y="1276.7250713221986"/>
      <point x="552.76679712653436" y="1367.2320413910493" type="curve" smooth="yes"/>
      <point x="550.62937558479894" y="1456.3536189104366"/>
      <point x="479.5756829376063" y="1514.7404623995808"/>
      <point x="392.77843828207824" y="1513.0961375041561" type="curve" smooth="yes"/>
      <point x="303.73685593399716" y="1511.4092948956834"/>
      <point x="235.5096844235872" y="1447.8819226857752"/>
    </contour>
    <contour>
      <point x="489.52840841875502" y="1081.9288311561966" type="line"/>
      <point x="206.14362877279939" y="1081.9441442710984" type="line"/>
      <point x="18.271460416510649" y="0.0" type="line"/>
      <point x="301.65624006244354" y="0.0" type="line"/>
    </contour>
  </outline>
</glyph>
<glyph name="j" format="1">
  <advance width="517.01"/>
  <unicode hex="006A"/>
  <outline>
    <contour>
      <point x="389.09206351636379" y="1600" type="move" name="top"/>
    </contour>
    <contour>
      <point x="1.3237947361707398" y="-459" type="move" name="bottom"/>
    </contour>
    <contour>
      <point x="689.79206351636378" y="1600" type="move" name="top_dd"/>
    </contour>
    <contour>
      <point x="343.0184620390217" y="-407" type="move" name="bottom_dd"/>
    </contour>
    <contour>
      <point x="689.79206351636378" y="1600" type="move" name="top0315"/>
    </contour>
    <contour>
      <point x="233.83147446707824" y="1356.8776846673393" type="curve" smooth="yes"/>
      <point x="235.94263132512177" y="1268.6378600499052"/>
      <point x="306.98784866060026" y="1210.3961376112163"/>
      <point x="392.85636884752341" y="1211.9991355088862" type="curve" smooth="yes"/>
      <point x="481.34274944724132" y="1213.6510037577507"/>
      <point x="549.96918605924998" y="1276.6042295650198"/>
      <point x="547.89041122386425" y="1367.0755886104052" type="curve" smooth="yes"/>
      <point x="545.84375866322773" y="1456.1489386926646"/>
      <point x="474.66652502065318" y="1514.6713958048244"/>
      <point x="387.91830669025745" y="1512.9828787785839" type="curve" smooth="yes"/>
      <point x="299.19422756325287" y="1511.2559024656771"/>
      <point x="231.67211212035221" y="1447.1323495609638"/>
    </contour>
    <contour>
      <point x="206.15464598271501" y="1081.9450677397074" type="line"/>
      <point x="9.8536961662883442" y="-59.725517854993939" type="line" smooth="yes"/>
      <point x="-6.6127633659554483" y="-147.88038553496992"/>
      <point x="-58.909875129576065" y="-204.14876275247286"/>
      <point x="-152.03075814678948" y="-203.24090203894912" type="curve" smooth="yes"/>
      <point x="-181.67040034089524" y="-202.95193713828388"/>
      <point x="-210.99037377347921" y="-197.35085769952227"/>
      <point x="-239.80802208869045" y="-191.02789534944981" type="curve"/>
      <point x="-262.7156863463286" y="-421.10695216462676" type="line"/>
      <point x="-212.49741228644143" y="-431.52446816459047"/>
      <point x="-162.43849098620279" y="-439.27819462726819"/>
      <point x="-111.01918762117741" y="-439.75036774232217" type="curve" smooth="yes"/>
      <point x="128.7831329925711" y="-441.95242419410954"/>
      <point x="266.42534367122119" y="-288.51043027190337"/>
      <point x="295.68260090368977" y="-59.512472044860608" type="curve" smooth="yes"/>
      <point x="489.54270541077415" y="1081.9293869770429" type="line"/>
    </contour>
  </outline>
</glyph>
<glyph name="k" format="1">
  <advance width="1061.18"/>
  <unicode hex="006B"/>
  <outline>
    <contour>
      <point x="450.49482649435265" y="41" type="move" name="bottom"/>
    </contour>
    <contour>
      <point x="369.54631620738917" y="1296" type="move" name="cross"/>
    </contour>
    <contour>
      <point x="804.77040970691291" y="1603" type="move" name="top"/>
    </contour>
    <contour>
      <point x="804.77040970691291" y="1603" type="move" name="marktop"/>
    </contour>
    <contour>
      <point x="1233.9620635163637" y="1600" type="move" name="top_dd"/>
    </contour>
    <contour>
      <point x="887.18846203902172" y="-407" type="move" name="bottom_dd"/>
    </contour>
    <contour>
      <point x="1108.3804097069128" y="1603" type="move" name="top0315"/>
    </contour>
    <contour>
      <point x="663.40987770379638" y="0.0" type="line"/>
      <point x="973.41911926906232" y="0.0" type="line"/>
      <point x="672.69389269486044" y="617.62330765286936" type="line"/>
      <point x="1144.2050823991365" y="1081.5224338066753" type="line"/>
      <point x="782.50076307286633" y="1081.6243157619977" type="line"/>
      <point x="463.85273747101667" y="763.3089014612483" type="line"/>
      <point x="407.52059812009696" y="703.5886230793916" type="line"/>
      <point x="552.82557917649706" y="1536.928957708124" type="line"/>
      <point x="270.42195780566249" y="1536.9457588074731" type="line"/>
      <point x="3.7178190070858221" y="0.0" type="line"/>
      <point x="286.11206597816437" y="0.0" type="line"/>
      <point x="341.27431178119207" y="318.39286209034134" type="line"/>
      <point x="471.1246987043055" y="430.99628425137308" type="line"/>
    </contour>
  </outline>
</glyph>
<glyph name="m" format="1">
  <advance width="1719.81"/>
  <unicode hex="006D"/>
  <outline>
    <contour>
      <point x="998.03962382629106" y="1290" type="move" name="top"/>
    </contour>
    <contour>
      <point x="772.99858252534534" y="10" type="move" name="bottom"/>
    </contour>
    <contour>
      <point x="998.03962382629106" y="1290" type="move" name="marktop"/>
    </contour>
    <contour>
      <point x="1892.5920635163639" y="1600" type="move" name="top_dd"/>
    </contour>
    <contour>
      <point x="1545.8184620390216" y="-407" type="move" name="bottom_dd"/>
    </contour>
    <contour>
      <point x="1839.0296238262908" y="1290" type="move" name="top0315"/>
    </contour>
    <contour>
      <point x="613.32728881762387" y="868.26800076541576" type="curve" smooth="yes"/>
      <point x="725.23940271844845" y="865.73486280120562"/>
      <point x="742.41528646052529" y="788.13493670199864"/>
      <point x="730.77884723917771" y="689.481102835309" type="curve" smooth="yes"/>
      <point x="614.84756322201679" y="0.0" type="line"/>
      <point x="897.22617284221269" y="0.0" type="line"/>
      <point x="1022.9945929069049" y="722.18233091196601" type="line" smooth="yes"/>
      <point x="1024.5528380421595" y="730.99094402671938"/>
      <point x="1026.0150559460151" y="739.81516612996961"/>
      <point x="1027.4778132746173" y="748.63997351115086" type="curve"/>
      <point x="1074.5357623186908" y="818.7870300206107"/>
      <point x="1136.5040709031018" y="870.45532118893414"/>
      <point x="1225.2207864593197" y="868.91745700078491" type="curve" smooth="yes"/>
      <point x="1336.7277028508634" y="866.98453497617686"/>
      <point x="1352.9798293048573" y="789.43303732579011"/>
      <point x="1341.6629734576461" y="691.58022877874839" type="curve"/>
      <point x="1226.2676612349555" y="0.0" type="line"/>
      <point x="1509.2909084483297" y="0.0" type="line"/>
      <point x="1624.006379244606" y="689.22356556056866" type="line"/>
      <point x="1645.5468089107851" y="901.92956649314976"/>
      <point x="1579.24380736539" y="1097.6841548663594"/>
      <point x="1338.6458724320617" y="1102.334658920729" type="curve" smooth="yes"/>
      <point x="1199.4797067316852" y="1105.0245939694234"/>
      <point x="1090.49363629346" y="1041.13401479922"/>
      <point x="1002.8528107522011" y="937.31069406205381" type="curve"/>
      <point x="967.83192982144681" y="1051.8250299647571"/>
      <point x="861.2219726726006" y="1099.7898888240156"/>
      <point x="747.74971606439976" y="1101.923991769544" type="curve" smooth="yes"/>
      <point x="621.45104002426092" y="1104.2993246007597"/>
      <point x="515.44327554539859" y="1054.3433655593494"/>
      <point x="432.17345344802743" y="961.09431996146623" type="curve"/>
      <point x="453.83486353071885" y="1083.3274345352474" type="line"/>
      <point x="190.475157718037" y="1081.7986382103056" type="line"/>
      <point x="2.74887694342614" y="0.0" type="line"/>
      <point x="286.12980364367547" y="0.0" type="line"/>
      <point x="421.25851860517002" y="767.07186443765147" type="line"/>
      <point x="471.04946307254386" y="828.06075912450058"/>
      <point x="531.57044972849087" y="870.11857212638597"/>
    </contour>
  </outline>
</glyph>
<glyph name="n" format="1">
  <advance width="1112.59"/>
  <unicode hex="006E"/>
  <outline>
    <contour>
      <point x="677.93962382629104" y="1290" type="move" name="top"/>
    </contour>
    <contour>
      <point x="453.86858252534535" y="10" type="move" name="bottom"/>
    </contour>
    <contour>
      <point x="87.83122938780015" y="1535" type="move" name="caron"/>
    </contour>
    <contour>
      <point x="907.07076189018176" y="0" type="move" name="right"/>
    </contour>
    <contour>
      <point x="677.93962382629104" y="1290" type="move" name="marktop"/>
    </contour>
    <contour>
      <point x="1285.3720635163636" y="1600" type="move" name="top_dd"/>
    </contour>
    <contour>
      <point x="938.59846203902157" y="-407" type="move" name="bottom_dd"/>
    </contour>
    <contour>
      <point x="1231.809623826291" y="1290" type="move" name="top0315"/>
    </contour>
    <contour>
      <point x="613.57893020759559" y="868.42633230041497" type="curve" smooth="yes"/>
      <point x="727.19958211173912" y="866.02429449878844"/>
      <point x="751.20349273865247" y="794.93795374603144"/>
      <point x="738.90231894507883" y="691.75636599151255" type="curve" smooth="yes"/>
      <point x="622.89652880274093" y="0.0" type="line"/>
      <point x="905.94655810733684" y="0.0" type="line"/>
      <point x="1020.6229594411877" y="689.21535523690102" type="line"/>
      <point x="1041.7791405178" y="898.59826314562576"/>
      <point x="979.79972361458772" y="1097.412661086767"/>
      <point x="740.92806574804865" y="1102.0892337514533" type="curve" smooth="yes"/>
      <point x="613.89452902960045" y="1104.5762662048717"/>
      <point x="508.46026276999396" y="1049.8669871205857"/>
      <point x="425.50830203874568" y="956.33035984626883" type="curve"/>
      <point x="448.0782979803605" y="1083.3374676448102" type="line"/>
      <point x="185.6290059706821" y="1081.8013582185622" type="line"/>
      <point x="-2.1024227118842163" y="0.0" type="line"/>
      <point x="280.31357832016391" y="0.0" type="line"/>
      <point x="415.1493595108642" y="765.43925648075003" type="line"/>
      <point x="467.00926069371019" y="827.3324646717283"/>
      <point x="529.82176705778056" y="870.1970303968543"/>
    </contour>
  </outline>
</glyph>
<glyph name="o" format="1">
  <advance width="1123.26"/>
  <unicode hex="006F"/>
  <outline>
    <contour>
      <point x="666.22222716291708" y="1290" type="move" name="top"/>
    </contour>
    <contour>
      <point x="467.05920016247728" y="-7" type="move" name="bottom"/>
    </contour>
    <contour>
      <point x="1279.060329221619" y="1600" type="move" name="top_dd"/>
    </contour>
    <contour>
      <point x="966.36906847382977" y="-407" type="move" name="bottom_dd"/>
    </contour>
    <contour>
      <point x="949.31321777796745" y="654" type="move" name="rhotichook"/>
    </contour>
    <contour>
      <point x="1230.7622271629173" y="1290" type="move" name="top0315"/>
    </contour>
    <contour>
      <point x="53.653100327522665" y="523.85306388115578" type="line" smooth="yes"/>
      <point x="28.09553859586584" y="236.02997486665646"/>
      <point x="176.90757105910791" y="-14.295657150019839"/>
      <point x="486.08010209826557" y="-20.263567961867054" type="curve" smooth="yes"/>
      <point x="809.17442986339347" y="-26.500209119589446"/>
      <point x="1015.9304507207152" y="227.69345773959134"/>
      <point x="1048.8883295334988" y="531.44631899908632" type="curve" smooth="yes"/>
      <point x="1051.0473179831667" y="553.27888051601474" type="line" smooth="yes"/>
      <point x="1076.7216746933641" y="842.03325872855714"/>
      <point x="930.83842450486861" y="1096.2115191247276"/>
      <point x="619.14541621711135" y="1102.2189935857227" type="curve" smooth="yes"/>
      <point x="293.2771261612134" y="1108.4996780351846"/>
      <point x="88.492745614483752" y="850.00962438766021"/>
      <point x="55.735973777794655" y="545.00018584616612" type="curve" smooth="yes"/>
    </contour>
    <contour>
      <point x="339.05369140061043" y="544.74370364330866" type="line" smooth="yes"/>
      <point x="356.32605654627031" y="692.68994519044486"/>
      <point x="427.50765561833407" y="875.15371454177239"/>
      <point x="605.28189412096935" y="869.65650010064689" type="curve" smooth="yes"/>
      <point x="772.79123662578604" y="864.47670136041904"/>
      <point x="780.80976350300807" y="680.42881610608197"/>
      <point x="768.47280327850331" y="552.71162013464993" type="curve" smooth="yes"/>
      <point x="766.38807601179144" y="532.19380477409163" type="line" smooth="yes"/>
      <point x="748.83136751870688" y="383.96204642539254"/>
      <point x="676.83298888340312" y="206.20555925810058"/>
      <point x="499.91515095497141" y="211.62698661208475" type="curve" smooth="yes"/>
      <point x="332.9386055158493" y="216.74377540804346"/>
      <point x="324.65929257899126" y="395.2037164038133"/>
      <point x="336.91562556970524" y="523.49140637361131" type="curve" smooth="yes"/>
    </contour>
  </outline>
</glyph>
<glyph name="p" format="1">
  <advance width="1118.41"/>
  <unicode hex="0070"/>
  <outline>
    <contour>
      <point x="761.57180319112729" y="1280" type="move" name="top"/>
    </contour>
    <contour>
      <point x="71.418462039021662" y="-407" type="move" name="bottom"/>
    </contour>
    <contour>
      <point x="761.57180319112729" y="1280" type="move" name="marktop"/>
    </contour>
    <contour>
      <point x="1291.1920635163638" y="1600" type="move" name="top_dd"/>
    </contour>
    <contour>
      <point x="944.41846203902173" y="-407" type="move" name="bottom_dd"/>
    </contour>
    <contour>
      <point x="1235.9018031911273" y="1280" type="move" name="top0315"/>
    </contour>
    <contour>
      <point x="561.5485377009245" y="-20.73356474156871" type="curve" smooth="yes"/>
      <point x="866.39083101611118" y="-28.263192204979781"/>
      <point x="1011.9314110363806" y="271.08710787925793"/>
      <point x="1043.2778471443639" y="533.54108347756721" type="curve" smooth="yes"/>
      <point x="1045.7266481005681" y="555.69209407263395" type="line" smooth="yes"/>
      <point x="1070.546768468736" y="799.88026835010885"/>
      <point x="1004.7781673201212" y="1096.8921719031996"/>
      <point x="707.51239686114616" y="1101.9963590339974" type="curve" smooth="yes"/>
      <point x="595.69243896057878" y="1103.9163580611346"/>
      <point x="506.26121562691452" y="1056.9567229899635"/>
      <point x="432.61639114148397" y="975.47975169901565" type="curve"/>
      <point x="450.41157332542593" y="1083.4161840934446" type="line"/>
      <point x="190.45992641907992" y="1081.7962531467563" type="line"/>
      <point x="-69.329833125849177" y="-415.9271100793228" type="line"/>
      <point x="213.97379209799033" y="-415.93919133682994" type="line"/>
      <point x="312.85158603799101" y="96.826212479309476" type="line"/>
      <point x="375.77347505893357" y="20.093439822622841"/>
      <point x="462.58317389793086" y="-18.289112847726571"/>
    </contour>
    <contour>
      <point x="623.82491222343697" y="868.41018044070017" type="curve" smooth="yes"/>
      <point x="783.04539782637562" y="862.34035663360066"/>
      <point x="775.61060041010933" y="670.1765184879705"/>
      <point x="762.85363135888474" y="554.9414873036028" type="curve" smooth="yes"/>
      <point x="760.53157641051291" y="534.47619167353218" type="line" smooth="yes"/>
      <point x="741.74389343181747" y="390.77338448507862"/>
      <point x="673.75797399522958" y="207.52857651827023"/>
      <point x="499.62958624282908" y="212.05163414898331" type="curve" smooth="yes"/>
      <point x="423.55770948988663" y="214.02763293396785"/>
      <point x="367.32419535168924" y="246.64140510556868"/>
      <point x="340.41984826372521" y="318.18646183710388" type="curve"/>
      <point x="420.51005854432094" y="764.42931186065596" type="line"/>
      <point x="471.654109318368" y="831.63216536917139"/>
      <point x="536.88091448331602" y="871.72467069218351"/>
    </contour>
  </outline>
</glyph>
<glyph name="q" format="1">
  <advance width="1122.29"/>
  <unicode hex="0071"/>
  <outline>
    <contour>
      <point x="640.109623826291" y="1290" type="move" name="top"/>
    </contour>
    <contour>
      <point x="699.00846203902165" y="-407" type="move" name="bottom"/>
    </contour>
    <contour>
      <point x="640.109623826291" y="1290" type="move" name="marktop"/>
    </contour>
    <contour>
      <point x="1295.0720635163639" y="1600" type="move" name="top_dd"/>
    </contour>
    <contour>
      <point x="948.29846203902162" y="-407" type="move" name="bottom_dd"/>
    </contour>
    <contour>
      <point x="1241.5096238262909" y="1290" type="move" name="top0315"/>
    </contour>
    <contour>
      <point x="1094.7352955502788" y="1081.8566383007812" type="line"/>
      <point x="842.6500602844244" y="1082.7376842909398" type="line"/>
      <point x="797.86099210409293" y="968.70197043607504" type="line"/>
      <point x="738.06942464290785" y="1056.4414979209225"/>
      <point x="646.38992032659496" y="1099.7385410827126"/>
      <point x="540.9782038120992" y="1102.2888053678703" type="curve" smooth="yes"/>
      <point x="231.30843666534196" y="1109.7807595211723"/>
      <point x="86.769093645181187" y="817.98162282794738"/>
      <point x="54.620520306853606" y="549.52667521642877" type="curve" smooth="yes"/>
      <point x="52.155712357259276" y="527.31661491942418" type="line" smooth="yes"/>
      <point x="27.987287161182504" y="288.78442943860915"/>
      <point x="98.741480475070944" y="-14.469029707647305"/>
      <point x="389.95251752067935" y="-19.760541374281033" type="curve" smooth="yes"/>
      <point x="494.35800387376332" y="-21.657663319598605"/>
      <point x="580.68249063263511" y="20.238842319935443"/>
      <point x="652.10148419487484" y="94.258722821013905" type="curve"/>
      <point x="551.35911994286016" y="-415.92522006696697" type="line"/>
      <point x="834.86422082113438" y="-415.94172551525048" type="line"/>
    </contour>
    <contour>
      <point x="335.78838531472809" y="528.1650451826689" type="curve" smooth="yes"/>
      <point x="338.13094392588857" y="548.68052649102196" type="line" smooth="yes"/>
      <point x="357.28088450097152" y="694.23034114762254"/>
      <point x="426.25652469608588" y="875.98250830288316"/>
      <point x="602.03494565575181" y="870.67370769890601" type="curve" smooth="yes"/>
      <point x="675.672391227047" y="868.44973439552803"/>
      <point x="731.63603344281546" y="838.05133530733315"/>
      <point x="759.04415192796137" y="768.91663983826777" type="curve"/>
      <point x="676.99520449224178" y="317.83734543475589" type="line"/>
      <point x="625.25107722721725" y="251.65608090607421"/>
      <point x="559.89849449285396" y="209.63747867628294"/>
      <point x="473.00090222946665" y="212.89656142931702" type="curve" smooth="yes"/>
      <point x="314.06510214186642" y="218.85742767904176"/>
      <point x="323.07641429406425" y="414.13814165648796"/>
    </contour>
  </outline>
</glyph>
<glyph name="r" format="1">
  <advance width="725.56"/>
  <unicode hex="0072"/>
  <outline>
    <contour>
      <point x="517.88962382629097" y="1290" type="move" name="top"/>
    </contour>
    <contour>
      <point x="150.25858252534533" y="10" type="move" name="bottom"/>
    </contour>
    <contour>
      <point x="898.34206351636374" y="1600" type="move" name="top_dd"/>
    </contour>
    <contour>
      <point x="551.5684620390216" y="-407" type="move" name="bottom_dd"/>
    </contour>
    <contour>
      <point x="844.77962382629096" y="1290" type="move" name="top0315"/>
    </contour>
    <contour>
      <point x="648.95933458322111" y="822.36578904585383" type="curve" smooth="yes"/>
      <point x="681.25268761911275" y="821.80282985102974"/>
      <point x="713.57744078515668" y="816.65977775329748"/>
      <point x="745.45752109270131" y="811.88910090329432" type="curve"/>
      <point x="779.85243739232396" y="1090.0392717774853" type="line"/>
      <point x="747.86066819025132" y="1098.2733685821577"/>
      <point x="716.36262928189672" y="1104.3598729176033"/>
      <point x="683.14627414420056" y="1104.5122401944775" type="curve" smooth="yes"/>
      <point x="569.77089274878824" y="1105.0323062299042"/>
      <point x="491.26985624030965" y="1040.5660479641051"/>
      <point x="430.7039967892357" y="950.77983428726179" type="curve"/>
      <point x="455.6411046010694" y="1083.1577598322974" type="line"/>
      <point x="190.52117010695207" y="1081.8016867275107" type="line"/>
      <point x="2.751125195482814" y="0.0" type="line"/>
      <point x="286.1289985217627" y="0.0" type="line"/>
      <point x="411.57311108478223" y="709.66795262489973" type="line"/>
      <point x="470.14249741434674" y="788.81766393828741"/>
      <point x="550.46924007222231" y="824.08273383763287"/>
    </contour>
  </outline>
</glyph>
<glyph name="s" format="1">
  <advance width="1022.38"/>
  <unicode hex="0073"/>
  <outline>
    <contour>
      <point x="620.63222716291705" y="1290" type="move" name="top"/>
    </contour>
    <contour>
      <point x="418.09179917481242" y="-10" type="move" name="bottom"/>
    </contour>
    <contour>
      <point x="1178.1803292216191" y="1600" type="move" name="top_dd"/>
    </contour>
    <contour>
      <point x="865.48906847382966" y="-407" type="move" name="bottom_dd"/>
    </contour>
    <contour>
      <point x="1129.8822271629172" y="1290" type="move" name="top0315"/>
    </contour>
    <contour>
      <point x="630.33711631175561" y="306.16173366051328" type="curve" smooth="yes"/>
      <point x="613.20099210838157" y="218.27654959337545"/>
      <point x="521.06021732934698" y="186.9594581059161"/>
      <point x="441.28445951595893" y="187.64679041064196" type="curve" smooth="yes"/>
      <point x="338.04869625460191" y="188.53624952751483"/>
      <point x="277.88815907916694" y="242.60503738088093"/>
      <point x="275.84029256993887" y="345.49818061698295" type="curve"/>
      <point x="9.104917161306318" y="346.56646693689061" type="line"/>
      <point x="13.641051234539972" y="113.18414440976878"/>
      <point x="212.47723537692534" y="-15.904611349914244"/>
      <point x="431.19813264041079" y="-19.887637165591432" type="curve" smooth="yes"/>
      <point x="639.80361848379357" y="-23.686455869252576"/>
      <point x="895.57301928771744" y="76.62394339772132"/>
      <point x="904.1796692572251" y="318.0441307292017" type="curve" smooth="yes"/>
      <point x="911.84684445811945" y="533.1116517578364"/>
      <point x="723.88573480164882" y="608.00593657093305"/>
      <point x="545.36434558019562" y="650.55318068033728" type="curve" smooth="yes"/>
      <point x="483.53026350760626" y="665.29018107954346"/>
      <point x="367.61870643923385" y="685.37850758344268"/>
      <point x="383.61205586293624" y="773.40268000277069" type="curve" smooth="yes"/>
      <point x="398.38139093081799" y="854.6901240579441"/>
      <point x="480.6258104309785" y="895.26776423376793"/>
      <point x="557.0234616390884" y="894.9381138646753" type="curve" smooth="yes"/>
      <point x="651.00508225940564" y="894.53258993251904"/>
      <point x="695.9075354653836" y="842.89860612304801"/>
      <point x="694.67793780234717" y="752.56373250347292" type="curve"/>
      <point x="974.83883464328312" y="751.51793760457576" type="line"/>
      <point x="972.32962150776439" y="984.84120660228757"/>
      <point x="781.00115926994749" y="1099.1803634286107"/>
      <point x="563.90317506746885" y="1102.3804751213406" type="curve" smooth="yes"/>
      <point x="357.79166339870949" y="1105.4186417856718"/>
      <point x="122.57573288913487" y="990.36763587366409"/>
      <point x="114.93143505548373" y="758.69313914994098" type="curve" smooth="yes"/>
      <point x="108.4560210145833" y="562.44381427417227"/>
      <point x="289.41922349216452" y="480.82609109786478"/>
      <point x="452.32836466013794" y="438.64556084084217" type="curve" smooth="yes"/>
      <point x="517.20678367789344" y="421.84720258552147"/>
      <point x="648.71169424387222" y="400.39851349209715"/>
    </contour>
  </outline>
</glyph>
<glyph name="t" format="1">
  <advance width="671.24"/>
  <unicode hex="0074"/>
  <outline>
    <contour>
      <point x="317.31076189018171" y="0" type="move" name="bottom"/>
    </contour>
    <contour>
      <point x="764.4184617719601" y="1667" type="move" name="caron"/>
    </contour>
    <contour>
      <point x="307.86285920681092" y="619" type="move" name="cross"/>
    </contour>
    <contour>
      <point x="476.30708764033466" y="1476" type="move" name="top"/>
    </contour>
    <contour>
      <point x="768.9074444614547" y="1300" type="move" name="marktop"/>
    </contour>
    <contour>
      <point x="844.0220635163638" y="1600" type="move" name="top_dd"/>
    </contour>
    <contour>
      <point x="497.24846203902166" y="-407" type="move" name="bottom_dd"/>
    </contour>
    <contour>
      <point x="822.59708764033462" y="1476" type="move" name="top0315"/>
    </contour>
    <contour>
      <point x="541.27154578211753" y="5.5419989033505459" type="curve"/>
      <point x="561.13645957786684" y="227.24973973548842" type="line"/>
      <point x="532.82342868763965" y="223.25142564749845"/>
      <point x="504.39102794851078" y="219.58775277163079"/>
      <point x="475.70587790351829" y="220.56757868805852" type="curve" smooth="yes"/>
      <point x="403.59043713401405" y="223.03089429664826"/>
      <point x="391.50679355068058" y="260.98043840401323"/>
      <point x="399.82417277856695" y="328.38533205486073" type="curve" smooth="yes"/>
      <point x="492.61368433535301" y="870.92327301982709" type="line"/>
      <point x="670.81178050206881" y="871.07557993782086" type="line"/>
      <point x="707.76665411736667" y="1081.9121948638822" type="line"/>
      <point x="528.89270878525656" y="1082.0805607301354" type="line"/>
      <point x="575.65409549909486" y="1348.9215682965514" type="line"/>
      <point x="293.23161199885584" y="1348.9346748524968" type="line"/>
      <point x="246.49519102008486" y="1082.0995251965448" type="line"/>
      <point x="92.606958052786112" y="1081.9257015911069" type="line"/>
      <point x="55.699217975779803" y="871.1054577982942" type="line"/>
      <point x="210.16126417649957" y="870.93958052215294" type="line"/>
      <point x="117.03914056202431" y="299.96350985714344" type="line"/>
      <point x="100.97311622556387" y="114.55316339419545"/>
      <point x="187.30172819605016" y="-15.154711931674019"/>
      <point x="380.30393778453526" y="-18.304572645617391" type="curve" smooth="yes"/>
      <point x="434.90051137775544" y="-19.195607015865672"/>
      <point x="489.50395579141565" y="-11.954157849306963"/>
    </contour>
  </outline>
</glyph>
<glyph name="u" format="1">
  <advance width="1112.59"/>
  <unicode hex="0075"/>
  <outline>
    <contour>
      <point x="675.02962382629096" y="1290" type="move" name="top"/>
    </contour>
    <contour>
      <point x="874.09076189018174" y="0" type="move" name="ogonek"/>
    </contour>
    <contour>
      <point x="354.17076189018172" y="0" type="move" name="bottomu"/>
    </contour>
    <contour>
      <point x="1285.3720635163636" y="1600" type="move" name="top_dd"/>
    </contour>
    <contour>
      <point x="938.59846203902157" y="-407" type="move" name="bottom_dd"/>
    </contour>
    <contour>
      <point x="908.52023142988355" y="654" type="move" name="rhotichook"/>
    </contour>
    <contour>
      <point x="1231.809623826291" y="1290" type="move" name="top0315"/>
    </contour>
    <contour>
      <point x="451.17076189018178" y="0" type="move" name="bottom"/>
    </contour>
    <contour>
      <point x="642.65223068665171" y="0.0" type="line"/>
      <point x="906.12525480730562" y="0.0" type="line"/>
      <point x="1093.8386076808417" y="1081.930719932591" type="line"/>
      <point x="810.46588437980063" y="1081.9404130984276" type="line"/>
      <point x="675.55572144336713" y="317.08819093857869" type="line"/>
      <point x="619.94637463369872" y="248.12565011885192"/>
      <point x="547.32933207732458" y="211.80377256643581"/>
      <point x="457.32126240011746" y="215.42052621556908" type="curve" smooth="yes"/>
      <point x="359.99790832617032" y="219.33122663671116"/>
      <point x="337.77504882128011" y="291.98182495057722"/>
      <point x="348.18196727587855" y="378.53442024052168" type="curve" smooth="yes"/>
      <point x="466.88242543885508" y="1081.9114174397921" type="line"/>
      <point x="184.81338551089914" y="1081.9382446736852" type="line"/>
      <point x="68.31302912779033" y="381.80404327093015" type="line"/>
      <point x="47.599983047621009" y="168.76025807764103"/>
      <point x="131.25388938228556" y="-16.38914001027641"/>
      <point x="365.66689002110246" y="-20.264252820474869" type="curve" smooth="yes"/>
      <point x="485.69235894603457" y="-22.248409974359546"/>
      <point x="585.74888088251157" y="23.908282160474229"/>
      <point x="664.78892712846277" y="112.8432836337669" type="curve"/>
    </contour>
  </outline>
</glyph>
<glyph name="v" format="1">
  <advance width="1004.92"/>
  <unicode hex="0076"/>
  <outline>
    <contour>
      <point x="611.31422387070086" y="1280" type="move" name="top"/>
    </contour>
    <contour>
      <point x="412.4778057592448" y="10" type="move" name="bottom"/>
    </contour>
    <contour>
      <point x="1160.7203292216191" y="1600" type="move" name="top_dd"/>
    </contour>
    <contour>
      <point x="848.02906847382962" y="-407" type="move" name="bottom_dd"/>
    </contour>
    <contour>
      <point x="1110.8642238707009" y="1280" type="move" name="top0315"/>
    </contour>
    <contour>
      <point x="1070.3384452627076" y="1081.7474197923229" type="line"/>
      <point x="765.86035750238034" y="1081.8255145469618" type="line"/>
      <point x="459.35772295921004" y="358.98897351068354" type="line"/>
      <point x="378.63494867965403" y="1082.0044086833798" type="line"/>
      <point x="92.3482683628052" y="1082.0309093549133" type="line"/>
      <point x="278.31984536065289" y="0.0" type="line"/>
      <point x="546.85950758821718" y="0.0" type="line"/>
    </contour>
  </outline>
</glyph>
<glyph name="w" format="1">
  <advance width="1459.85"/>
  <unicode hex="0077"/>
  <outline>
    <contour>
      <point x="846.71962382629101" y="1290" type="move" name="top"/>
    </contour>
    <contour>
      <point x="628.46858252534537" y="10" type="move" name="bottom"/>
    </contour>
    <contour>
      <point x="846.71962382629101" y="1290" type="move" name="marktop"/>
    </contour>
    <contour>
      <point x="1632.6320635163638" y="1600" type="move" name="top_dd"/>
    </contour>
    <contour>
      <point x="1285.8584620390216" y="-407" type="move" name="bottom_dd"/>
    </contour>
    <contour>
      <point x="1579.0696238262908" y="1290" type="move" name="top0315"/>
    </contour>
    <contour>
      <point x="1518.326951013313" y="1081.7786976742625" type="line"/>
      <point x="1237.3958494622163" y="1081.8389749298547" type="line"/>
      <point x="981.12569134318164" y="396.26506035614443" type="line"/>
      <point x="909.27977158822534" y="1082.0916344027385" type="line"/>
      <point x="704.53669722193274" y="1081.7547619415193" type="line"/>
      <point x="397.14970638862457" y="401.17676820525554" type="line"/>
      <point x="379.03545376620593" y="1082.0075475389742" type="line"/>
      <point x="114.50741084925785" y="1082.0212848260369" type="line"/>
      <point x="194.51770156761938" y="0.0" type="line"/>
      <point x="431.08715255465506" y="0.0" type="line"/>
      <point x="747.01340857778087" y="677.81496338156683" type="line"/>
      <point x="827.89193318732282" y="0.0" type="line"/>
      <point x="1063.5952124836163" y="0.0" type="line"/>
    </contour>
  </outline>
</glyph>
<glyph name="x" format="1">
  <advance width="1011.7099999999999"/>
  <unicode hex="0078"/>
  <outline>
    <contour>
      <point x="416.3578057592448" y="10" type="move" name="bottom"/>
    </contour>
    <contour>
      <point x="748.47980246702855" y="0" type="move" name="right"/>
    </contour>
    <contour>
      <point x="501.77158419736224" y="552" type="move" name="cross"/>
    </contour>
    <contour>
      <point x="614.22422387070083" y="1280" type="move" name="top"/>
    </contour>
    <contour>
      <point x="1167.510329221619" y="1600" type="move" name="top_dd"/>
    </contour>
    <contour>
      <point x="854.81906847382959" y="-407" type="move" name="bottom_dd"/>
    </contour>
    <contour>
      <point x="1117.6542238707009" y="1280" type="move" name="top0315"/>
    </contour>
    <contour>
      <point x="404.12522894393322" y="1082.0076243973706" type="line"/>
      <point x="116.65104385977746" y="1081.9919268516683" type="line"/>
      <point x="327.25345496059094" y="567.82345326403754" type="line"/>
      <point x="-81.153265847895781" y="0.0" type="line"/>
      <point x="238.27088602791781" y="0.0" type="line"/>
      <point x="475.99964892798732" y="338.96998566432688" type="line"/>
      <point x="610.72630949667814" y="0.0" type="line"/>
      <point x="895.50625301462139" y="0.0" type="line"/>
      <point x="675.88574082230639" y="538.56270936313217" type="line"/>
      <point x="1068.3548825817804" y="1081.6190213371922" type="line"/>
      <point x="750.67640340089974" y="1081.6673740365209" type="line"/>
      <point x="524.48086869673079" y="761.99932169786393" type="line"/>
    </contour>
  </outline>
</glyph>
<glyph name="y" format="1">
  <advance width="998.13"/>
  <unicode hex="0079"/>
  <outline>
    <contour>
      <point x="624.58962382629102" y="1290" type="move" name="top"/>
    </contour>
    <contour>
      <point x="649.44473490338169" y="-110" type="move" name="bottom"/>
    </contour>
    <contour>
      <point x="624.58962382629102" y="1290" type="move" name="marktop"/>
    </contour>
    <contour>
      <point x="1170.9120635163638" y="1600" type="move" name="top_dd"/>
    </contour>
    <contour>
      <point x="824.13846203902165" y="-407" type="move" name="bottom_dd"/>
    </contour>
    <contour>
      <point x="781.45023142988362" y="654" type="move" name="rhotichook"/>
    </contour>
    <contour>
      <point x="1117.349623826291" y="1290" type="move" name="top0315"/>
    </contour>
    <contour>
      <point x="452.02995635885054" y="-162.93651853674419" type="curve" smooth="yes"/>
      <point x="1085.2083166765983" y="1081.7135031109838" type="line"/>
      <point x="772.06300557217332" y="1081.7525896956515" type="line"/>
      <point x="462.20117476401617" y="411.16054362473278" type="line"/>
      <point x="385.24033960649513" y="1082.0217723008609" type="line"/>
      <point x="92.709797461468625" y="1082.0223831407766" type="line"/>
      <point x="270.19182241489898" y="15.415775693695569" type="line"/>
      <point x="216.04117395406399" y="-85.14961860072718" type="line" smooth="yes"/>
      <point x="169.75539610661707" y="-170.9115254225203"/>
      <point x="103.05292121803068" y="-202.88196309574039"/>
      <point x="6.2823790521043037" y="-201.81733397369348" type="curve" smooth="yes"/>
      <point x="-6.8850322424331889" y="-201.67247160946184"/>
      <point x="-20.013900961688329" y="-200.51773543609778"/>
      <point x="-33.120914329283863" y="-199.3765773075894" type="curve"/>
      <point x="-55.159258645428864" y="-419.22418246402384" type="line"/>
      <point x="-10.346870892278908" y="-430.13849002543594"/>
      <point x="33.933102328377458" y="-440.39921816323829"/>
      <point x="80.341962041888777" y="-440.54931594783579" type="curve" smooth="yes"/>
      <point x="267.32702462150377" y="-441.15407210472654"/>
      <point x="377.99761107354516" y="-320.82051227388939"/>
    </contour>
  </outline>
</glyph>
<glyph name="z" format="1">
  <advance width="1011.7099999999999"/>
  <unicode hex="007A"/>
  <outline>
    <contour>
      <point x="625.55962382629104" y="1290" type="move" name="top"/>
    </contour>
    <contour>
      <point x="407.3085825253454" y="10" type="move" name="bottom"/>
    </contour>
    <contour>
      <point x="1184.4920635163637" y="1600" type="move" name="top_dd"/>
    </contour>
    <contour>
      <point x="837.71846203902157" y="-407" type="move" name="bottom_dd"/>
    </contour>
    <contour>
      <point x="1130.9296238262909" y="1290" type="move" name="top0315"/>
    </contour>
    <contour>
      <point x="129.31493419274483" y="849.10387090897541" type="line"/>
      <point x="605.21213664504023" y="846.67247849493333" type="line"/>
      <point x="0.071701460417628482" y="190.52575997133331" type="line"/>
      <point x="-33.102815978896743" y="0.0" type="line"/>
      <point x="839.91542691669474" y="0.0" type="line"/>
      <point x="880.9082022123655" y="232.90311410777252" type="line"/>
      <point x="371.72900942577928" y="235.23133793099606" type="line"/>
      <point x="981.16903511942178" y="897.31125380935339" type="line"/>
      <point x="1013.244644886008" y="1081.8236811035401" type="line"/>
      <point x="170.35260900327228" y="1081.9223291329806" type="line"/>
    </contour>
  </outline>
</glyph>
<glyph name="braceleft" format="1">
  <advance width="656.6899999999999"/>
  <unicode hex="007B"/>
  <outline>
    <contour>
      <point x="171.64307305642643" y="310.51818987699806" type="curve" smooth="yes"/>
      <point x="143.68377037029319" y="105.86084734089921" type="line" smooth="yes"/>
      <point x="119.99416328756735" y="-116.32226246038881"/>
      <point x="220.03656861831956" y="-286.93573204553053"/>
      <point x="433.88007468162323" y="-358.52985285261462" type="curve"/>
      <point x="498.47301993714302" y="-198.58899417453577" type="line"/>
      <point x="377.10228225769464" y="-142.36824771866952"/>
      <point x="381.51527658779861" y="-12.624874961026833"/>
      <point x="396.85559308649886" y="104.87141908526414" type="curve" smooth="yes"/>
      <point x="423.75517133398262" y="309.04975376214179" type="line" smooth="yes"/>
      <point x="434.7357834870748" y="427.82436094856661"/>
      <point x="399.8057748833657" y="541.4347227351326"/>
      <point x="301.08534191345672" y="613.46774293308681" type="curve"/>
      <point x="433.38530416171074" y="681.30645693471592"/>
      <point x="508.29936790463682" y="780.75447052002244"/>
      <point x="527.28866156446929" y="929.43003476487911" type="curve" smooth="yes"/>
      <point x="554.633034668047" y="1131.9001166179262" type="line" smooth="yes"/>
      <point x="574.20482062299027" y="1262.3852291074886"/>
      <point x="624.62223841656055" y="1385.0744965281863"/>
      <point x="756.05759683297015" y="1434.728965549597" type="curve"/>
      <point x="708.90753572772314" y="1601.114809983176" type="line"/>
      <point x="470.34315162620305" y="1528.687699873645"/>
      <point x="331.08032846415966" y="1380.7812029569891"/>
      <point x="299.12916088009968" y="1131.7218488563078" type="curve" smooth="yes"/>
      <point x="271.39383002306312" y="929.2899060613089" type="line" smooth="yes"/>
      <point x="252.31787872850367" y="807.80625538681124"/>
      <point x="186.03362030453064" y="725.77303824489661"/>
      <point x="58.349767491576912" y="720.48872307290708" type="curve"/>
      <point x="38.642607293650016" y="513.00043563189206" type="line"/>
      <point x="160.25770610530657" y="502.92831362292264"/>
      <point x="185.1973844991208" y="423.71179793949085"/>
    </contour>
  </outline>
</glyph>
<glyph name="bar" format="1">
  <advance width="503.43"/>
  <unicode hex="007C"/>
  <outline>
    <contour>
      <point x="473.68514889339599" y="1455.9502873030644" type="line"/>
      <point x="301.84716210345277" y="1455.960508910081" type="line"/>
      <point x="31.851296575789974" y="-269.95302636214592" type="line"/>
      <point x="203.68928336573168" y="-269.96324796916645" type="line"/>
    </contour>
  </outline>
</glyph>
<glyph name="braceright" format="1">
  <advance width="656.6899999999999"/>
  <unicode hex="007D"/>
  <outline>
    <contour>
      <point x="490.4159379753828" y="927.60549323619932" type="curve" smooth="yes"/>
      <point x="518.46629333458134" y="1132.1294383896193" type="line" smooth="yes"/>
      <point x="542.44638437884782" y="1354.4873633256484"/>
      <point x="441.88143975291007" y="1524.0331238777817"/>
      <point x="228.06545812588979" y="1595.4775476618372" type="curve"/>
      <point x="163.56557076499428" y="1436.5671840170698" type="line"/>
      <point x="285.42323218873946" y="1380.4188430317245"/>
      <point x="280.53895775625062" y="1250.6862162712596"/>
      <point x="265.20064370977684" y="1132.9346267974156" type="curve" smooth="yes"/>
      <point x="238.38859396021616" y="928.98023455795021" type="line" smooth="yes"/>
      <point x="227.41288229023269" y="808.83961744071235"/>
      <point x="264.56877854073315" y="694.73480920974339"/>
      <point x="366.23279197213162" y="624.44260685733275" type="curve"/>
      <point x="230.97110390521004" y="558.2560002438521"/>
      <point x="153.77514245086698" y="459.84209044965189"/>
      <point x="134.76823043323338" y="308.90469890674495" type="curve" smooth="yes"/>
      <point x="107.48868410626888" y="106.0837241617224" type="line" smooth="yes"/>
      <point x="87.967176502914072" y="-24.686525077241399"/>
      <point x="38.222533247201099" y="-147.63252703772787"/>
      <point x="-93.971674448310878" y="-196.84214578717052" type="curve"/>
      <point x="-47.058344865692135" y="-364.18520962518437" type="line"/>
      <point x="191.43581083729867" y="-291.55771642498325"/>
      <point x="330.35245370891909" y="-142.45722084329634"/>
      <point x="362.77379173671551" y="106.27319551476891" type="curve" smooth="yes"/>
      <point x="390.72218292528714" y="308.70944443749909" type="line" smooth="yes"/>
      <point x="409.86087579715843" y="429.88447457035858"/>
      <point x="476.27464488945509" y="511.37518196039139"/>
      <point x="603.52787682154201" y="516.52818409523286" type="curve"/>
      <point x="623.29246672861075" y="724.05301150677542" type="line"/>
      <point x="501.20525391790022" y="734.24547450435045"/>
      <point x="476.78895731649044" y="814.22204007361472"/>
    </contour>
  </outline>
</glyph>
<glyph name="asciitilde" format="1">
  <advance width="1289.1299999999999"/>
  <unicode hex="007E"/>
  <outline>
    <contour>
      <point x="1001.462415850818" y="793.77074662155007" type="line"/>
      <point x="987.90673387618278" y="710.05571626968367"/>
      <point x="941.57371830508134" y="610.03859911258712"/>
      <point x="841.92485587384272" y="611.34881404454677" type="curve" smooth="yes"/>
      <point x="782.68225727189417" y="612.12775457033479"/>
      <point x="739.0279295563887" y="655.16626706159423"/>
      <point x="701.14941970723908" y="695.42664422850817" type="curve" smooth="yes"/>
      <point x="629.84175764901761" y="771.21825748858714"/>
      <point x="545.51263393202203" y="826.7144398798855"/>
      <point x="438.42725000551786" y="829.04648757569169" type="curve" smooth="yes"/>
      <point x="205.6619968303981" y="834.11552363296846"/>
      <point x="94.137055232229301" y="620.29810160282227"/>
      <point x="79.917936185540341" y="415.65112121525198" type="curve"/>
      <point x="289.126797343931" y="413.3799441998317" type="line"/>
      <point x="303.24227453105829" y="496.00227800656546"/>
      <point x="346.20606178701087" y="593.29174019097979"/>
      <point x="444.80563518682334" y="592.90558439177892" type="curve" smooth="yes"/>
      <point x="504.74923046264138" y="592.67082103386008"/>
      <point x="549.58220323818375" y="548.94458435299168"/>
      <point x="588.15618925501224" y="508.57137846787964" type="curve" smooth="yes"/>
      <point x="660.06156858677548" y="433.31209147737093"/>
      <point x="740.46094559164749" y="376.96678707028855"/>
      <point x="848.01675897824805" y="374.80845804972699" type="curve" smooth="yes"/>
      <point x="1081.6424034213521" y="370.12027809485562"/>
      <point x="1193.6608328559007" y="590.55485277525815"/>
      <point x="1206.684729332125" y="794.95541954324744" type="curve"/>
    </contour>
  </outline>
</glyph>
<glyph name="exclamdown" format="1">
  <advance width="561.63"/>
  <unicode hex="00A1"/>
  <outline>
    <contour>
      <point x="499.71112161655867" y="954.41950203645274" type="curve" smooth="yes"/>
      <point x="497.60944169992132" y="1042.4569093706589"/>
      <point x="427.46051471807147" y="1105.0047165915512"/>
      <point x="340.53974631051159" y="1103.2474252727288" type="curve" smooth="yes"/>
      <point x="251.05570725168116" y="1101.4383118940489"/>
      <point x="183.5587540191265" y="1034.0333135288936"/>
      <point x="185.58569041519814" y="943.83698718127653" type="curve" smooth="yes"/>
      <point x="187.58229178404304" y="854.99053447587687"/>
      <point x="257.48700111654648" y="792.95115189759872"/>
      <point x="345.1308913513181" y="794.67600052565763" type="curve" smooth="yes"/>
      <point x="434.79959355873206" y="796.44069784304031"/>
      <point x="501.86591878604679" y="864.15706262734432"/>
    </contour>
    <contour>
      <point x="-36.571808584538189" y="-368.90532837358057" type="line"/>
      <point x="264.38352697073742" y="-368.95539030753213" type="line"/>
      <point x="406.23530287282892" y="638.97312735182004" type="line"/>
      <point x="171.49401917335007" y="638.91526026431802" type="line"/>
    </contour>
  </outline>
</glyph>
<glyph name="cent" format="1">
  <advance width="1143.6299999999999"/>
  <unicode hex="00A2"/>
  <outline>
    <contour>
      <point x="971.36731658804615" y="374.69574344657605" type="curve"/>
      <point x="705.91493746320623" y="373.25275282078127" type="line"/>
      <point x="684.52649869012009" y="274.45802225172139"/>
      <point x="609.8003975384828" y="208.69931460894188"/>
      <point x="505.73687302530629" y="211.46421150986922" type="curve" smooth="yes"/>
      <point x="338.64140946381224" y="215.90382405923751"/>
      <point x="353.71893974315697" y="404.97871117180551"/>
      <point x="366.87601412444542" y="525.30613166381204" type="curve" smooth="yes"/>
      <point x="369.98465479209932" y="552.8142972972305" type="line" smooth="yes"/>
      <point x="387.89930975383811" y="697.55659188351024"/>
      <point x="446.48540546333129" y="876.61548962752636"/>
      <point x="623.90262577475346" y="870.15372439890916" type="curve" smooth="yes"/>
      <point x="735.71811937541213" y="866.08125912580238"/>
      <point x="773.9008136041349" y="777.83706454768765"/>
      <point x="772.85519190267746" y="678.2503684283954" type="curve"/>
      <point x="1036.1383651103738" y="677.78554462579518" type="line"/>
      <point x="1039.9237766465101" y="871.4139744852464"/>
      <point x="955.03449337342374" y="1042.0660010294507"/>
      <point x="756.54678679158587" y="1090.5327286155095" type="curve"/>
      <point x="804.21780534384743" y="1317.7440451283369" type="line"/>
      <point x="608.17625841311985" y="1318.1507853482474" type="line"/>
      <point x="561.20952371215037" y="1093.8522383977815" type="line"/>
      <point x="277.20844069858759" y="1050.082366894344"/>
      <point x="120.61746343078519" y="828.62798943978282"/>
      <point x="88.382127519355677" y="553.34328169207004" type="curve" smooth="yes"/>
      <point x="85.244889733574396" y="524.31402681245038" type="line" smooth="yes"/>
      <point x="62.331873487893304" y="292.95304184830144"/>
      <point x="133.963736323267" y="48.372329219880427"/>
      <point x="385.52767489691661" y="-8.9841753889541192" type="curve"/>
      <point x="336.42077606603129" y="-244.79134660765118" type="line"/>
      <point x="532.40430984675595" y="-245.0964355157237" type="line"/>
      <point x="581.05503205379136" y="-10.760644895199723" type="line"/>
      <point x="786.52454238404289" y="25.168847218596724"/>
      <point x="955.57027067223532" y="155.93339644515527"/>
    </contour>
  </outline>
</glyph>
<glyph name="sterling" format="1">
  <advance width="1181.46"/>
  <unicode hex="00A3"/>
  <outline>
    <contour>
      <point x="2.9830923757366037" y="0.0" type="line"/>
      <point x="1023.3138417820776" y="0.0" type="line"/>
      <point x="1066.8293461473668" y="241.91182678412622" type="line"/>
      <point x="427.96437987278796" y="237.82048111774668" type="line"/>
      <point x="486.31903697020698" y="295.57072335624275"/>
      <point x="518.53141684934405" y="356.40442356773889"/>
      <point x="529.41273311457735" y="438.47917304728321" type="curve" smooth="yes"/>
      <point x="545.09890840591856" y="576.88942261539228" type="line"/>
      <point x="836.14935892329197" y="577.09153547768312" type="line"/>
      <point x="877.36744320954062" y="811.90186465544821" type="line"/>
      <point x="575.98347888926332" y="812.0736390704983" type="line"/>
      <point x="603.11968179703479" y="1039.584999159433" type="line" smooth="yes"/>
      <point x="617.6671588817419" y="1138.9631362414361"/>
      <point x="678.86574864191641" y="1237.6011454198519"/>
      <point x="790.19898604571108" y="1235.0598680583728" type="curve" smooth="yes"/>
      <point x="898.15756333912316" y="1232.5956202304021"/>
      <point x="929.53191163015185" y="1155.2574854549478"/>
      <point x="925.83790999146049" y="1058.684057148577" type="curve"/>
      <point x="1205.1742777351674" y="1057.7909609381045" type="line"/>
      <point x="1211.1165603756444" y="1310.0857189448493"/>
      <point x="1062.6002136066875" y="1469.8883188893956"/>
      <point x="807.51597335179815" y="1475.4139602217251" type="curve" smooth="yes"/>
      <point x="538.62132110390257" y="1481.2387630516398"/>
      <point x="340.56107034989674" y="1304.4260005238268"/>
      <point x="310.47167589873624" y="1038.5853384638783" type="curve" smooth="yes"/>
      <point x="282.7357522368402" y="812.09782660632663" type="line"/>
      <point x="132.19540255324114" y="811.89606509616294" type="line"/>
      <point x="91.152801615762414" y="577.08253649453843" type="line"/>
      <point x="248.9799594428352" y="577.0314501655921" type="line"/>
      <point x="228.76808184910027" y="422.42557591502919" type="line" smooth="yes"/>
      <point x="217.68656871258992" y="345.67730571828758"/>
      <point x="198.22033623453083" y="268.79983882460488"/>
      <point x="120.57475186898294" y="238.21880777734935" type="curve"/>
      <point x="28.06527120985443" y="241.60219064542039" type="line"/>
    </contour>
  </outline>
</glyph>
<glyph name="currency" format="1">
  <advance width="1375.46"/>
  <unicode hex="00A4"/>
  <outline>
    <contour>
      <point x="1222.4471193266031" y="104.22099640575267" type="line"/>
      <point x="1110.7890107349419" y="255.29029779182258" type="line"/>
      <point x="1198.6822836189178" y="358.87292125974511"/>
      <point x="1252.0911371121924" y="479.21201095660888"/>
      <point x="1268.231137272124" y="614.53282867911184" type="curve" smooth="yes"/>
      <point x="1282.6601430922333" y="735.50834585086807"/>
      <point x="1264.3735372134734" y="852.52629921386722"/>
      <point x="1227.0543323363092" y="967.59305745143433" type="curve"/>
      <point x="1395.4205114095423" y="1106.0220576804377" type="line"/>
      <point x="1272.2138359001622" y="1265.3827173047118" type="line"/>
      <point x="1101.8683487844846" y="1117.0537371895327" type="line"/>
      <point x="1012.294196217715" y="1193.5841408353062"/>
      <point x="898.31598598614266" y="1231.9959854093397"/>
      <point x="780.92763075620678" y="1233.4876774559655" type="curve" smooth="yes"/>
      <point x="651.57641411967631" y="1235.1313854770901"/>
      <point x="533.68537697177817" y="1191.1456576675962"/>
      <point x="426.87853513618404" y="1120.7061837813053" type="curve"/>
      <point x="318.25701733718046" y="1264.491578589148" type="line"/>
      <point x="170.07052436485077" y="1133.8947701797442" type="line"/>
      <point x="285.29363196285971" y="976.71274254537173" type="line"/>
      <point x="189.26109393358212" y="870.87109755760059"/>
      <point x="130.57935919470225" y="744.45218263027516"/>
      <point x="113.69839386877386" y="602.04625295110031" type="curve" smooth="yes"/>
      <point x="99.758455082918999" y="484.45049322156751"/>
      <point x="116.60140887074635" y="370.04419727793811"/>
      <point x="151.33838472666457" y="257.64292518207202" type="curve"/>
      <point x="-2.9037695446309755" y="131.94436137465328" type="line"/>
      <point x="119.29217556716121" y="-26.468357609276769" type="line"/>
      <point x="272.53772061087767" y="106.11891530192105" type="line"/>
      <point x="362.73841367332597" y="23.837186999263011"/>
      <point x="481.66512432379466" y="-18.343976425197791"/>
      <point x="603.25450837253027" y="-20.044291321000113" type="curve" smooth="yes"/>
      <point x="739.6219875372966" y="-21.951264186607588"/>
      <point x="863.10907625575896" y="28.156478993542535"/>
      <point x="972.90318710310066" y="105.96474972646931" type="curve"/>
      <point x="1073.2033933390073" y="-27.451910484771979" type="line"/>
    </contour>
    <contour>
      <point x="295.45231938289925" y="598.74787177588109" type="curve" smooth="yes"/>
      <point x="328.94442518804618" y="833.73628727273137"/>
      <point x="530.12599776387231" y="1053.7136815603571"/>
      <point x="779.21690877199046" y="1046.1830376967273" type="curve" smooth="yes"/>
      <point x="1007.6944110101837" y="1039.2755889534392"/>
      <point x="1117.4805115830729" y="824.25630892886795"/>
      <point x="1087.9027485165273" y="616.87652620326435" type="curve" smooth="yes"/>
      <point x="1054.5201006950483" y="382.81939901456724"/>
      <point x="853.63835933202677" y="160.93703556343951"/>
      <point x="605.0170282029552" y="168.3984222112154" type="curve" smooth="yes"/>
      <point x="375.6429468786979" y="175.28217872545503"/>
      <point x="265.77422057176614" y="390.51941772879684"/>
    </contour>
  </outline>
</glyph>
<glyph name="yen" format="1">
  <advance width="1065.06"/>
  <unicode hex="00A5"/>
  <outline>
    <contour>
      <point x="898.89456977432087" y="279.08318351076213" type="line"/>
      <point x="929.52265154755514" y="451.90396625940906" type="line"/>
      <point x="649.51623962030692" y="452.0783247453823" type="line"/>
      <point x="670.20694652562486" y="567.91279473302882" type="line"/>
      <point x="947.78449399336273" y="568.28885680502833" type="line"/>
      <point x="981.17728016388764" y="741.50005931934913" type="line"/>
      <point x="772.94820112889317" y="744.08859511092396" type="line"/>
      <point x="1211.6056980561659" y="1455.6540590222467" type="line"/>
      <point x="892.73435997593538" y="1455.7311186864581" type="line"/>
      <point x="577.80080737873209" y="894.00408324995669" type="line"/>
      <point x="458.12487803853628" y="1456.0200928866791" type="line"/>
      <point x="165.76055966569368" y="1456.0327690415666" type="line"/>
      <point x="355.64215161478012" y="741.9992090626406" type="line"/>
      <point x="111.49448450990415" y="741.91968117846397" type="line"/>
      <point x="80.6532621045735" y="568.10080757202547" type="line"/>
      <point x="378.13045735295157" y="567.92245285792524" type="line"/>
      <point x="357.40004603918533" y="452.08999607891576" type="line"/>
      <point x="61.231143952524619" y="451.91663303815506" type="line"/>
      <point x="30.587057978178976" y="279.10007414761435" type="line"/>
      <point x="327.9816804835188" y="278.9232102045749" type="line"/>
      <point x="279.11963622657692" y="0.0" type="line"/>
      <point x="571.24145152250617" y="0.0" type="line"/>
      <point x="620.09470574023942" y="278.90489917234299" type="line"/>
    </contour>
  </outline>
</glyph>
<glyph name="brokenbar" format="1">
  <advance width="501.49"/>
  <unicode hex="00A6"/>
  <outline>
    <contour>
      <point x="526.20620681451567" y="1455.9336506591171" type="line"/>
      <point x="271.91690066368284" y="1455.9490803590925" type="line"/>
      <point x="140.1603289386868" y="698.06374938945964" type="line"/>
      <point x="394.44963508954743" y="698.04831968947042" type="line"/>
    </contour>
    <contour>
      <point x="226.73639799881806" y="-269.94998451358026" type="line"/>
      <point x="364.91148468330192" y="524.93426369583324" type="line"/>
      <point x="110.62435528818359" y="524.9496767198757" type="line"/>
      <point x="-27.55073139628081" y="-269.93457148952183" type="line"/>
    </contour>
  </outline>
</glyph>
<glyph name="section" format="1">
  <advance width="1248.3899999999999"/>
  <unicode hex="00A7"/>
  <outline>
    <contour>
      <point x="1003.1640362862422" y="-71.293385748223884" type="curve" smooth="yes"/>
      <point x="1010.1994395726191" y="32.018838148969792"/>
      <point x="987.16398932845686" y="125.87174135346767"/>
      <point x="919.56369431935036" y="205.15573458911652" type="curve"/>
      <point x="1035.0721043121396" y="267.3167478591505"/>
      <point x="1114.8468614332655" y="352.97490313510571"/>
      <point x="1124.0631560979421" y="489.22044151973722" type="curve" smooth="yes"/>
      <point x="1141.2670456423716" y="743.54750880353913"/>
      <point x="923.68293249019871" y="840.16873544424993"/>
      <point x="714.67742493425794" y="903.45747155322999" type="curve" smooth="yes"/>
      <point x="620.12511883133755" y="932.08875509891163"/>
      <point x="460.12868194232254" y="959.4400516006981"/>
      <point x="485.04210538615848" y="1090.1515638276346" type="curve" smooth="yes"/>
      <point x="507.49841303420129" y="1207.9714988649146"/>
      <point x="635.96833617645188" y="1244.0913855613214"/>
      <point x="740.83064313202158" y="1242.0128976321337" type="curve" smooth="yes"/>
      <point x="862.88935184265006" y="1239.5935578324211"/>
      <point x="932.56965238500788" y="1170.4462171040868"/>
      <point x="928.18426467203858" y="1049.3363288812704" type="curve"/>
      <point x="1208.2908512016527" y="1048.8185377634127" type="line"/>
      <point x="1214.3010048757701" y="1332.0656513801307"/>
      <point x="1021.6128400039036" y="1471.4083626958145"/>
      <point x="750.95869304167059" y="1476.1397941455009" type="curve" smooth="yes"/>
      <point x="504.01732425462893" y="1480.4566914538234"/>
      <point x="220.10070116681743" y="1367.5839516005553"/>
      <point x="201.24211601636199" y="1087.0270272141486" type="curve" smooth="yes"/>
      <point x="194.30835929111078" y="983.87435453164517"/>
      <point x="219.20586526119325" y="891.18351372985705"/>
      <point x="286.46359373397365" y="812.28963642935605" type="curve"/>
      <point x="170.91314410897223" y="749.45878382457249"/>
      <point x="89.711015271144504" y="662.67769044319527"/>
      <point x="80.638144643170833" y="525.90473901933547" type="curve" smooth="yes"/>
      <point x="63.89170248628168" y="273.45318167157825"/>
      <point x="282.60587515926363" y="178.88775145065111"/>
      <point x="487.99060509138076" y="113.52020843564001" type="curve" smooth="yes"/>
      <point x="572.94922919625162" y="86.480532615987642"/>
      <point x="745.1918213678299" y="49.197241306706474"/>
      <point x="720.63637340219827" y="-73.301604811329554" type="curve" smooth="yes"/>
      <point x="697.47962873429969" y="-188.82279202965418"/>
      <point x="568.17222358271715" y="-219.28166666794544"/>
      <point x="466.82933193997837" y="-218.2414847413944" type="curve" smooth="yes"/>
      <point x="341.50411981662637" y="-216.95514863553859"/>
      <point x="249.28673786643157" y="-170.15224424092935"/>
      <point x="254.3561448332045" y="-34.663445103194093" type="curve"/>
      <point x="-25.700964985456494" y="-34.709691120181489" type="line"/>
      <point x="-31.243894146111082" y="-327.77322002588858"/>
      <point x="188.15967115490736" y="-449.44655094281507"/>
      <point x="457.00687373455719" y="-453.43097369326256" type="curve" smooth="yes"/>
      <point x="705.62732056973323" y="-457.1156278577522"/>
      <point x="983.85163038551718" y="-354.88872793317819"/>
    </contour>
    <contour>
      <point x="592.51955059939644" y="354.02157155379757" type="curve" smooth="yes"/>
      <point x="489.69660001166028" y="386.6219747034279"/>
      <point x="343.87598688986935" y="421.25563389207957"/>
      <point x="369.65205076204762" y="556.06269527362781" type="curve" smooth="yes"/>
      <point x="382.7393367530766" y="624.50831112325307"/>
      <point x="419.84464724750251" y="670.62857672905216"/>
      <point x="478.48035975304049" y="705.99951684240455" type="curve"/>
      <point x="521.85564808672507" y="689.67817092135851"/>
      <point x="565.76361932780981" y="675.50935007406247"/>
      <point x="609.73875037092955" y="660.945608352779" type="curve" smooth="yes"/>
      <point x="701.76399556433159" y="630.46856664663085"/>
      <point x="864.26426531217453" y="588.50941166919142"/>
      <point x="838.83614806789342" y="460.98943553413613" type="curve" smooth="yes"/>
      <point x="825.06625877066153" y="391.93454099764517"/>
      <point x="781.94538784405677" y="346.44686382659825"/>
      <point x="723.27494197237229" y="311.44240187180202" type="curve"/>
      <point x="680.03598421191543" y="326.91862364425907"/>
      <point x="636.2741653477641" y="340.14900640856359"/>
    </contour>
  </outline>
</glyph>
<glyph name="dieresis" format="1">
  <advance width="927.3199999999999"/>
  <unicode hex="00A8"/>
  <outline>
    <contour>
      <point x="570.19222716291699" y="1290" type="move" name="_top"/>
    </contour>
    <contour>
      <point x="618.80192988006218" y="1602" type="move" name="mkmktop_acc"/>
    </contour>
    <contour>
      <point x="210.27602886170837" y="1362.66863337315" type="curve" smooth="yes"/>
      <point x="212.01927508548079" y="1287.8129747134701"/>
      <point x="277.13961955112489" y="1236.3599904850425"/>
      <point x="349.44608760155779" y="1238.1187896890706" type="curve" smooth="yes"/>
      <point x="421.83498141213215" y="1239.8795938362971"/>
      <point x="482.20356168019993" y="1295.0073587555466"/>
      <point x="480.38726101109216" y="1369.3509250746515" type="curve" smooth="yes"/>
      <point x="478.57978815031743" y="1443.3331576314438"/>
      <point x="413.88484125332008" y="1495.5610819055114"/>
      <point x="342.17851050105895" y="1493.8866455590737" type="curve" smooth="yes"/>
      <point x="269.80409949398677" y="1492.196608667339"/>
      <point x="208.54134236893293" y="1437.1567339145386"/>
    </contour>
    <contour>
      <point x="683.48727227755307" y="1361.6438192809337" type="curve" smooth="yes"/>
      <point x="685.28653745024008" y="1287.6619522072947"/>
      <point x="749.97711881048633" y="1235.4394633072045"/>
      <point x="821.68206566683102" y="1237.1164136006814" type="curve" smooth="yes"/>
      <point x="893.99481556287674" y="1238.8075784711225"/>
      <point x="955.40809010961334" y="1293.8611960112632"/>
      <point x="953.59516253696449" y="1368.3498729741189" type="curve" smooth="yes"/>
      <point x="951.78298376974988" y="1442.8077833873649"/>
      <point x="886.37874745500847" y="1494.637826243762"/>
      <point x="814.42888169007631" y="1492.8746157914634" type="curve" smooth="yes"/>
      <point x="742.36462761911503" y="1491.1086021281419"/>
      <point x="681.68761181354625" y="1435.6419398731339"/>
    </contour>
  </outline>
</glyph>
<glyph name="copyright" format="1">
  <advance width="1558.79"/>
  <unicode hex="00A9"/>
  <outline>
    <contour>
      <point x="104.22692803964721" y="722.44456260758682" type="curve" smooth="yes"/>
      <point x="65.260781521754467" y="349.93899172640414"/>
      <point x="296.28891366153596" y="-13.907723920816096"/>
      <point x="694.66180196612891" y="-20.328744754311419" type="curve" smooth="yes"/>
      <point x="1109.5865110520633" y="-27.016549772146149"/>
      <point x="1440.1592399101462" y="339.61816501443866"/>
      <point x="1481.5727946438037" y="735.44050941705029" type="curve" smooth="yes"/>
      <point x="1520.5078137027006" y="1107.57351326972"/>
      <point x="1289.5110371259639" y="1469.8120004177415"/>
      <point x="891.85941566190536" y="1476.2050804853434" type="curve" smooth="yes"/>
      <point x="476.9636277047008" y="1482.8753965332335"/>
      <point x="145.70691394527651" y="1118.9817419467017"/>
    </contour>
    <contour>
      <point x="224.68204180894725" y="721.82002480507776" type="curve" smooth="yes"/>
      <point x="270.90465719284714" y="1052.9345854585486"/>
      <point x="555.09660348623754" y="1358.4180937771437"/>
      <point x="903.98244560979606" y="1351.2601180748156" type="curve" smooth="yes"/>
      <point x="1234.1881852377562" y="1344.485395871588"/>
      <point x="1403.3694013307681" y="1038.7504765789336"/>
      <point x="1361.1071288255482" y="736.06550567018814" type="curve" smooth="yes"/>
      <point x="1314.9692094216757" y="405.62291551306151"/>
      <point x="1031.4958814518882" y="97.433672813928382"/>
      <point x="682.54815200809662" y="104.61445638971263" type="curve" smooth="yes"/>
      <point x="351.6639695325336" y="111.42352119375815"/>
      <point x="182.37889833021575" y="418.78250408313585"/>
    </contour>
    <contour>
      <point x="927.39828718101217" y="595.69332471463372" type="line"/>
      <point x="908.6344994126631" y="483.13799410072403"/>
      <point x="848.60990396838281" y="411.47890953465532"/>
      <point x="727.43658852697217" y="416.81483778805557" type="curve" smooth="yes"/>
      <point x="592.79009982960758" y="422.744064042567"/>
      <point x="573.83555922834114" y="559.13807142016003"/>
      <point x="584.86113412729367" y="668.04470685382285" type="curve" smooth="yes"/>
      <point x="599.38098118931157" y="789.27725615889699" type="line" smooth="yes"/>
      <point x="616.55750746348099" y="915.23739212790542"/>
      <point x="687.39908408858901" y="1044.4735951485891"/>
      <point x="830.95911670524606" y="1041.7097845382145" type="curve" smooth="yes"/>
      <point x="947.83246659890085" y="1039.4597446168066"/>
      <point x="983.72598775851509" y="968.77173222753061"/>
      <point x="977.185619337812" y="860.77319510856489" type="curve"/>
      <point x="1129.1714969573725" y="859.47682641384733" type="line"/>
      <point x="1132.1014260330426" y="1052.4748071322756"/>
      <point x="1020.7476948194901" y="1172.1447778553672"/>
      <point x="825.57254849198762" y="1175.6746056673262" type="curve" smooth="yes"/>
      <point x="598.94412410264988" y="1179.773279757969"/>
      <point x="467.79031867099565" y="997.0347763660219"/>
      <point x="445.96714964998841" y="787.9806300066258" type="curve" smooth="yes"/>
      <point x="434.43943938673112" y="668.91291174585911" type="line" smooth="yes"/>
      <point x="419.16700616645431" y="470.52290272128545"/>
      <point x="517.51702427855446" y="287.44009165872012"/>
      <point x="733.47974422625623" y="281.68199285256213" type="curve" smooth="yes"/>
      <point x="937.12034778202997" y="276.25243206307147"/>
      <point x="1066.1073335599929" y="395.69371860886099"/>
      <point x="1078.6316453556819" y="596.65381506866845" type="curve"/>
    </contour>
  </outline>
</glyph>
<glyph name="ordfeminine" format="1">
  <advance width="881.73"/>
  <unicode hex="00AA"/>
  <outline>
    <contour>
      <point x="619.75673519181794" y="702.01877290728305" type="curve"/>
      <point x="784.24231573405757" y="702.25578323604861" type="line"/>
      <point x="772.03654253667321" y="764.56732692693549"/>
      <point x="774.36110165395382" y="823.34283664904103"/>
      <point x="784.5426101456078" y="885.89525834834865" type="curve" smooth="yes"/>
      <point x="832.67074920312371" y="1199.9343635070618" type="line"/>
      <point x="845.71895688458642" y="1365.2433463344903"/>
      <point x="741.94088367748725" y="1474.009769753063"/>
      <point x="577.51947736577642" y="1477.2529213285666" type="curve" smooth="yes"/>
      <point x="425.67740527503526" y="1480.2479501777618"/>
      <point x="275.03174666344557" y="1406.9963398780158"/>
      <point x="264.24461328392073" y="1242.3422906974911" type="curve"/>
      <point x="437.23282260746839" y="1228.7879771913515" type="line"/>
      <point x="456.14552292237227" y="1298.6991113266413"/>
      <point x="512.12116860265053" y="1330.6615233236155"/>
      <point x="584.25028531777559" y="1328.1143858121511" type="curve" smooth="yes"/>
      <point x="658.99155021591525" y="1325.4750039904072"/>
      <point x="672.47753613707926" y="1268.6748919185284"/>
      <point x="661.36895754323234" y="1204.0226486955435" type="curve"/>
      <point x="648.61289212286158" y="1149.1716401198071" type="line"/>
      <point x="542.66349064483438" y="1150.8645427045358" type="line" smooth="yes"/>
      <point x="382.95201242953249" y="1151.1415163431545"/>
      <point x="190.45540187015743" y="1104.4896946829613"/>
      <point x="188.3826855383636" y="911.45504515816174" type="curve" smooth="yes"/>
      <point x="186.91451546488193" y="774.72254045885256"/>
      <point x="281.38414458644394" y="690.67990536375851"/>
      <point x="415.62824589698471" y="690.97410026445232" type="curve" smooth="yes"/>
      <point x="494.2382311259351" y="691.14637343379241"/>
      <point x="559.80926924305561" y="721.2393182181321"/>
      <point x="616.65975317711491" y="773.77534849727044" type="curve"/>
      <point x="616.27694108473463" y="749.40401262470232"/>
      <point x="617.2893838720546" y="726.26895447310744"/>
    </contour>
    <contour>
      <point x="449.30850736543653" y="833.32907794176572" type="curve" smooth="yes"/>
      <point x="396.27657304663433" y="834.02024383611422"/>
      <point x="351.84191327352181" y="855.53990523310586"/>
      <point x="362.65419866041708" y="915.05366783535226" type="curve" smooth="yes"/>
      <point x="378.88116458068703" y="1004.3713063342559"/>
      <point x="481.23900698104183" y="1030.9673430445891"/>
      <point x="558.10787831333994" y="1033.4098759607" type="curve" smooth="yes"/>
      <point x="637.75859456515036" y="1033.1853735971165" type="line"/>
      <point x="609.8625567800176" y="896.23338552678081" type="line"/>
      <point x="563.12911021159391" y="863.8301211663711"/>
      <point x="508.19710173819692" y="832.56158212025002"/>
    </contour>
  </outline>
</glyph>
<glyph name="logicalnot" format="1">
  <advance width="1095.1299999999999"/>
  <unicode hex="00AC"/>
  <outline>
    <contour>
      <point x="158.29867661286767" y="804.91779027528401" type="line"/>
      <point x="127.94647989906339" y="634.09708673098839" type="line"/>
      <point x="744.56403106306834" y="633.92472507370564" type="line"/>
      <point x="698.86583054309347" y="374.07828082648194" type="line"/>
      <point x="895.0383069629496" y="374.05920426491366" type="line"/>
      <point x="970.18725716857261" y="804.91338645974793" type="line"/>
    </contour>
  </outline>
</glyph>
<glyph name="registered" format="1">
  <advance width="1558.79"/>
  <unicode hex="00AE"/>
  <outline>
    <contour>
      <point x="104.09517169043276" y="722.4681408013995" type="curve" smooth="yes"/>
      <point x="65.096581096344906" y="349.91698587361327"/>
      <point x="296.21682661986654" y="-13.772845863283232"/>
      <point x="694.5696911631195" y="-20.196331366792347" type="curve" smooth="yes"/>
      <point x="1109.4966541321876" y="-26.887076103127679"/>
      <point x="1440.1679761933465" y="339.59288350371327"/>
      <point x="1481.6164631909571" y="735.46770719955714" type="curve" smooth="yes"/>
      <point x="1520.5839877437627" y="1107.6468391687072"/>
      <point x="1289.4944199015449" y="1469.7284549767712"/>
      <point x="891.86252620644154" y="1476.1236964716745" type="curve" smooth="yes"/>
      <point x="476.96498424009343" y="1482.7966269347203"/>
      <point x="145.6100432012617" y="1119.0571736979541"/>
    </contour>
    <contour>
      <point x="224.5477918883106" y="721.84531192273562" type="curve" smooth="yes"/>
      <point x="270.80786149089096" y="1053.0131036250673"/>
      <point x="555.08758165906579" y="1358.3343652431008"/>
      <point x="903.98655695223749" y="1351.1764810487366" type="curve" smooth="yes"/>
      <point x="1234.1988598877956" y="1344.4019658126831"/>
      <point x="1403.4512323696238" y="1038.8329443277989"/>
      <point x="1361.1536791072213" y="736.0913134831851" type="curve" smooth="yes"/>
      <point x="1314.978346854158" y="405.59476432439283"/>
      <point x="1031.4161755294926" y="97.567847702479455"/>
      <point x="682.45498226226664" y="104.7488972439818" type="curve" smooth="yes"/>
      <point x="351.56408981487988" y="111.55808960502756"/>
      <point x="182.20937602401176" y="418.75195719132137"/>
    </contour>
    <contour>
      <point x="810.40641607931479" y="651.23759108528441" type="line" smooth="yes"/>
      <point x="898.12837399428827" y="646.07670415385485"/>
      <point x="920.09962077928992" y="599.11443589670432"/>
      <point x="911.4151023430245" y="515.95687197709719" type="curve" smooth="yes"/>
      <point x="904.42193048538797" y="460.79592596646103" type="line" smooth="yes"/>
      <point x="898.84256861206711" y="411.97125187809945"/>
      <point x="894.75843043859413" y="363.52872540851342"/>
      <point x="902.64226851823287" y="314.83870527330288" type="curve"/>
      <point x="1050.7703421799629" y="313.87775062614548" type="line"/>
      <point x="1051.8726224387381" y="333.26926360346238" type="line"/>
      <point x="1047.5035482961493" y="376.67183097618795"/>
      <point x="1044.7354067100484" y="414.48762362146812"/>
      <point x="1049.6154275202011" y="458.85198717364591" type="curve" smooth="yes"/>
      <point x="1055.9102158274304" y="515.20874629945115" type="line" smooth="yes"/>
      <point x="1062.6536923321255" y="593.27093577919254"/>
      <point x="1051.6766349710065" y="674.49010100755663"/>
      <point x="985.07701340242409" y="724.1041385226622" type="curve"/>
      <point x="1058.9121614209121" y="767.86986224115265"/>
      <point x="1116.5766358453507" y="819.95214835508307"/>
      <point x="1120.6540962746599" y="911.06650067696876" type="curve" smooth="yes"/>
      <point x="1128.4726031513567" y="1085.7777462046538"/>
      <point x="987.35308887608312" y="1160.6878827906353"/>
      <point x="831.32391761832002" y="1164.8770212708487" type="curve" smooth="yes"/>
      <point x="574.64887797085646" y="1165.990419811121" type="line"/>
      <point x="441.48162954920008" y="316.0550750590142" type="line"/>
      <point x="590.00474861077419" y="316.05658298553556" type="line"/>
      <point x="642.98373211855619" y="653.16135610134324" type="line"/>
    </contour>
    <contour>
      <point x="702.42768238893359" y="1033.1075734325241" type="line"/>
      <point x="843.20473886308343" y="1032.3467208592608" type="line" smooth="yes"/>
      <point x="928.71098061395242" y="1029.8556482296465"/>
      <point x="996.46243827400451" y="1008.8974247732615"/>
      <point x="976.75018606527817" y="909.20459911759485" type="curve" smooth="yes"/>
      <point x="958.98229235644408" y="819.34518016195329"/>
      <point x="859.44136772724778" y="788.48626713648935"/>
      <point x="779.19223303560625" y="786.34330848300385" type="curve" smooth="yes"/>
      <point x="663.59487425239888" y="786.95467415479743" type="line"/>
    </contour>
  </outline>
</glyph>
